Nemoy-Bold.ufo
<glyph name="exclam" format="2">
  <advance width="709"/>
  <unicode hex="0021"/>
  <outline>
    <contour>
      <point x="340" y="546" type="curve" smooth="yes"/>
      <point x="417" y="546"/>
      <point x="480" y="609"/>
      <point x="480" y="686" type="curve" smooth="yes"/>
      <point x="480" y="1537" type="line" smooth="yes"/>
      <point x="480" y="1614"/>
      <point x="417" y="1677"/>
      <point x="340" y="1677" type="curve" smooth="yes"/>
      <point x="262" y="1677"/>
      <point x="200" y="1614"/>
      <point x="200" y="1537" type="curve" smooth="yes"/>
      <point x="200" y="686" type="line" smooth="yes"/>
      <point x="200" y="609"/>
      <point x="263" y="546"/>
    </contour>
    <component base="period"/>
  </outline>
</glyph>
<glyph name="numbersign" format="2">
  <advance width="1417"/>
  <unicode hex="0023"/>
  <outline>
    <contour>
      <point x="825" y="-23" type="curve" smooth="yes"/>
      <point x="890" y="-23"/>
      <point x="943" y="22"/>
      <point x="960" y="81" type="curve" smooth="yes"/>
      <point x="1302" y="1262" type="line" smooth="yes"/>
      <point x="1325" y="1349"/>
      <point x="1260" y="1438"/>
      <point x="1167" y="1438" type="curve" smooth="yes"/>
      <point x="1102" y="1438"/>
      <point x="1049" y="1393"/>
      <point x="1032" y="1334" type="curve" smooth="yes"/>
      <point x="690" y="153" type="line" smooth="yes"/>
      <point x="667" y="66"/>
      <point x="732" y="-23"/>
    </contour>
    <contour>
      <point x="258" y="-23" type="curve" smooth="yes"/>
      <point x="323" y="-23"/>
      <point x="376" y="22"/>
      <point x="393" y="81" type="curve" smooth="yes"/>
      <point x="735" y="1262" type="line" smooth="yes"/>
      <point x="758" y="1349"/>
      <point x="693" y="1438"/>
      <point x="600" y="1438" type="curve" smooth="yes"/>
      <point x="535" y="1438"/>
      <point x="482" y="1393"/>
      <point x="465" y="1334" type="curve" smooth="yes"/>
      <point x="123" y="153" type="line" smooth="yes"/>
      <point x="100" y="66"/>
      <point x="165" y="-23"/>
    </contour>
    <contour>
      <point x="190" y="338" type="curve" smooth="yes"/>
      <point x="1138" y="338" type="line" smooth="yes"/>
      <point x="1215" y="338"/>
      <point x="1278" y="401"/>
      <point x="1278" y="478" type="curve" smooth="yes"/>
      <point x="1278" y="555"/>
      <point x="1215" y="618"/>
      <point x="1138" y="618" type="curve" smooth="yes"/>
      <point x="190" y="618" type="line" smooth="yes"/>
      <point x="113" y="618"/>
      <point x="50" y="555"/>
      <point x="50" y="478" type="curve" smooth="yes"/>
      <point x="50" y="401"/>
      <point x="113" y="338"/>
    </contour>
    <contour>
      <point x="279" y="813" type="curve" smooth="yes"/>
      <point x="1227" y="813" type="line" smooth="yes"/>
      <point x="1304" y="813"/>
      <point x="1367" y="876"/>
      <point x="1367" y="953" type="curve" smooth="yes"/>
      <point x="1367" y="1030"/>
      <point x="1304" y="1093"/>
      <point x="1227" y="1093" type="curve" smooth="yes"/>
      <point x="279" y="1093" type="line" smooth="yes"/>
      <point x="202" y="1093"/>
      <point x="139" y="1030"/>
      <point x="139" y="953" type="curve" smooth="yes"/>
      <point x="139" y="876"/>
      <point x="202" y="813"/>
    </contour>
  </outline>
</glyph>
<glyph name="dollar" format="2">
  <advance width="1303"/>
  <unicode hex="0024"/>
  <anchor x="653" y="0" name="bottom"/>
  <anchor x="653" y="1538" name="top"/>
  <outline>
    <contour>
      <point x="662" y="1398" type="curve" smooth="yes"/>
      <point x="739" y="1398"/>
      <point x="802" y="1461"/>
      <point x="802" y="1538" type="curve" smooth="yes"/>
      <point x="802" y="1828" type="line" smooth="yes"/>
      <point x="802" y="1905"/>
      <point x="739" y="1968"/>
      <point x="662" y="1968" type="curve" smooth="yes"/>
      <point x="585" y="1968"/>
      <point x="522" y="1905"/>
      <point x="522" y="1828" type="curve" smooth="yes"/>
      <point x="522" y="1538" type="line" smooth="yes"/>
      <point x="522" y="1461"/>
      <point x="585" y="1398"/>
    </contour>
    <contour>
      <point x="662" y="-401" type="curve" smooth="yes"/>
      <point x="739" y="-401"/>
      <point x="801" y="-339"/>
      <point x="802" y="-263" type="curve" smooth="yes"/>
      <point x="805" y="-1" type="line" smooth="yes"/>
      <point x="806" y="74"/>
      <point x="747" y="141"/>
      <point x="665" y="141" type="curve" smooth="yes"/>
      <point x="588" y="141"/>
      <point x="526" y="79"/>
      <point x="525" y="3" type="curve" smooth="yes"/>
      <point x="522" y="-259" type="line" smooth="yes"/>
      <point x="521" y="-334"/>
      <point x="580" y="-401"/>
    </contour>
    <component base="S"/>
  </outline>
</glyph>
<glyph name="percent" format="2">
  <advance width="1987"/>
  <unicode hex="0025"/>
  <outline>
    <contour>
      <point x="1167" y="1418" type="curve" smooth="yes"/>
      <point x="592" y="52" type="line" smooth="yes"/>
      <point x="587" y="39"/>
      <point x="584" y="25"/>
      <point x="584" y="10" type="curve" smooth="yes"/>
      <point x="584" y="-51"/>
      <point x="633" y="-100"/>
      <point x="694" y="-100" type="curve" smooth="yes"/>
      <point x="739" y="-100"/>
      <point x="778" y="-73"/>
      <point x="795" y="-33" type="curve" smooth="yes"/>
      <point x="1370" y="1333" type="line" smooth="yes"/>
      <point x="1376" y="1346"/>
      <point x="1379" y="1360"/>
      <point x="1379" y="1376" type="curve" smooth="yes"/>
      <point x="1379" y="1436"/>
      <point x="1329" y="1486"/>
      <point x="1269" y="1486" type="curve" smooth="yes"/>
      <point x="1223" y="1486"/>
      <point x="1184" y="1458"/>
    </contour>
    <component base="zero.numr" xOffset="-1"/>
    <component base="zero.dnom" xOffset="1109"/>
  </outline>
</glyph>
<glyph name="ampersand" format="2">
  <advance width="1825"/>
  <unicode hex="0026"/>
  <outline>
    <contour>
      <point x="1635" y="-38" type="curve" smooth="yes"/>
      <point x="1713" y="-38"/>
      <point x="1775" y="25"/>
      <point x="1775" y="102" type="curve" smooth="yes"/>
      <point x="1775" y="141"/>
      <point x="1760" y="177"/>
      <point x="1734" y="202" type="curve" smooth="yes"/>
      <point x="774" y="1153" type="line" smooth="yes"/>
      <point x="674" y="1253"/>
      <point x="557" y="1354"/>
      <point x="557" y="1441" type="curve" smooth="yes"/>
      <point x="557" y="1532"/>
      <point x="603" y="1578"/>
      <point x="695" y="1578" type="curve" smooth="yes"/>
      <point x="786" y="1578"/>
      <point x="832" y="1532"/>
      <point x="832" y="1441" type="curve" smooth="yes"/>
      <point x="832" y="1361"/>
      <point x="724" y="1283"/>
      <point x="588" y="1149" type="curve" smooth="yes"/>
      <point x="190" y="755" type="line"/>
      <point x="6" y="581"/>
      <point x="4" y="288"/>
      <point x="180" y="107" type="curve" smooth="yes"/>
      <point x="349" y="-63"/>
      <point x="634" y="-83"/>
      <point x="831" y="110" type="curve" smooth="yes"/>
      <point x="1558" y="820" type="line" smooth="yes"/>
      <point x="1584" y="845"/>
      <point x="1600" y="881"/>
      <point x="1600" y="920" type="curve" smooth="yes"/>
      <point x="1600" y="997"/>
      <point x="1538" y="1060"/>
      <point x="1460" y="1060" type="curve" smooth="yes"/>
      <point x="1422" y="1060"/>
      <point x="1388" y="1045"/>
      <point x="1363" y="1020" type="curve" smooth="yes"/>
      <point x="635" y="310" type="line" smooth="yes"/>
      <point x="578" y="254"/>
      <point x="463" y="221"/>
      <point x="380" y="304" type="curve" smooth="yes"/>
      <point x="295" y="391"/>
      <point x="338" y="508"/>
      <point x="384" y="553" type="curve" smooth="yes"/>
      <point x="786" y="951" type="line" smooth="yes"/>
      <point x="941" y="1105"/>
      <point x="1112" y="1227"/>
      <point x="1112" y="1441" type="curve" smooth="yes"/>
      <point x="1112" y="1671"/>
      <point x="925" y="1858"/>
      <point x="695" y="1858" type="curve" smooth="yes"/>
      <point x="464" y="1858"/>
      <point x="277" y="1671"/>
      <point x="277" y="1441" type="curve" smooth="yes"/>
      <point x="277" y="1234"/>
      <point x="450" y="1079"/>
      <point x="577" y="954" type="curve" smooth="yes"/>
      <point x="1537" y="3" type="line" smooth="yes"/>
      <point x="1562" y="-22"/>
      <point x="1597" y="-38"/>
    </contour>
  </outline>
</glyph>
<glyph name="quotesingle" format="2">
  <advance width="500"/>
  <unicode hex="0027"/>
  <outline>
    <contour>
      <point x="250" y="971" type="curve" smooth="yes"/>
      <point x="327" y="971"/>
      <point x="390" y="1034"/>
      <point x="390" y="1111" type="curve" smooth="yes"/>
      <point x="390" y="1568" type="line" smooth="yes"/>
      <point x="390" y="1645"/>
      <point x="327" y="1708"/>
      <point x="250" y="1708" type="curve" smooth="yes"/>
      <point x="173" y="1708"/>
      <point x="110" y="1645"/>
      <point x="110" y="1568" type="curve" smooth="yes"/>
      <point x="110" y="1111" type="line" smooth="yes"/>
      <point x="110" y="1034"/>
      <point x="173" y="971"/>
    </contour>
  </outline>
</glyph>
<glyph name="parenleft" format="2">
  <advance width="807"/>
  <unicode hex="0028"/>
  <outline>
    <contour>
      <point x="497" y="-115" type="curve" smooth="yes"/>
      <point x="575" y="-115"/>
      <point x="637" y="-52"/>
      <point x="637" y="25" type="curve" smooth="yes"/>
      <point x="637" y="46"/>
      <point x="633" y="65"/>
      <point x="625" y="83" type="curve" smooth="yes"/>
      <point x="528" y="295"/>
      <point x="480" y="509"/>
      <point x="480" y="740" type="curve" smooth="yes"/>
      <point x="480" y="971"/>
      <point x="528" y="1185"/>
      <point x="625" y="1397" type="curve" smooth="yes"/>
      <point x="633" y="1415"/>
      <point x="637" y="1434"/>
      <point x="637" y="1455" type="curve" smooth="yes"/>
      <point x="637" y="1532"/>
      <point x="575" y="1595"/>
      <point x="497" y="1595" type="curve" smooth="yes"/>
      <point x="441" y="1595"/>
      <point x="392" y="1561"/>
      <point x="370" y="1513" type="curve" smooth="yes"/>
      <point x="259" y="1267"/>
      <point x="200" y="1007"/>
      <point x="200" y="740" type="curve" smooth="yes"/>
      <point x="200" y="473"/>
      <point x="259" y="213"/>
      <point x="370" y="-33" type="curve" smooth="yes"/>
      <point x="392" y="-81"/>
      <point x="441" y="-115"/>
    </contour>
  </outline>
</glyph>
<glyph name="asterisk" format="2">
  <advance width="1012"/>
  <unicode hex="002A"/>
  <outline>
    <contour>
      <point x="288" y="1155" type="curve" smooth="yes"/>
      <point x="327" y="1155"/>
      <point x="362" y="1171"/>
      <point x="387" y="1196" type="curve" smooth="yes"/>
      <point x="822" y="1630" type="line" smooth="yes"/>
      <point x="847" y="1655"/>
      <point x="863" y="1690"/>
      <point x="863" y="1729" type="curve" smooth="yes"/>
      <point x="863" y="1806"/>
      <point x="800" y="1869"/>
      <point x="723" y="1869" type="curve" smooth="yes"/>
      <point x="684" y="1869"/>
      <point x="649" y="1853"/>
      <point x="624" y="1828" type="curve" smooth="yes"/>
      <point x="189" y="1394" type="line" smooth="yes"/>
      <point x="164" y="1369"/>
      <point x="148" y="1334"/>
      <point x="148" y="1295" type="curve" smooth="yes"/>
      <point x="148" y="1218"/>
      <point x="211" y="1155"/>
    </contour>
    <contour>
      <point x="722" y="1155" type="curve" smooth="yes"/>
      <point x="799" y="1155"/>
      <point x="862" y="1218"/>
      <point x="862" y="1295" type="curve" smooth="yes"/>
      <point x="862" y="1334"/>
      <point x="846" y="1368"/>
      <point x="821" y="1394" type="curve" smooth="yes"/>
      <point x="389" y="1828" type="line" smooth="yes"/>
      <point x="364" y="1853"/>
      <point x="329" y="1869"/>
      <point x="290" y="1869" type="curve" smooth="yes"/>
      <point x="213" y="1869"/>
      <point x="150" y="1806"/>
      <point x="150" y="1729" type="curve" smooth="yes"/>
      <point x="150" y="1690"/>
      <point x="166" y="1656"/>
      <point x="191" y="1630" type="curve" smooth="yes"/>
      <point x="623" y="1196" type="line" smooth="yes"/>
      <point x="648" y="1171"/>
      <point x="683" y="1155"/>
    </contour>
    <contour>
      <point x="505" y="1066" type="curve" smooth="yes"/>
      <point x="582" y="1066"/>
      <point x="645" y="1129"/>
      <point x="645" y="1206" type="curve" smooth="yes"/>
      <point x="646" y="1818" type="line" smooth="yes"/>
      <point x="646" y="1895"/>
      <point x="583" y="1958"/>
      <point x="506" y="1958" type="curve" smooth="yes"/>
      <point x="429" y="1958"/>
      <point x="366" y="1895"/>
      <point x="366" y="1818" type="curve" smooth="yes"/>
      <point x="365" y="1206" type="line" smooth="yes"/>
      <point x="365" y="1129"/>
      <point x="428" y="1066"/>
    </contour>
    <contour>
      <point x="200" y="1372" type="curve" smooth="yes"/>
      <point x="812" y="1372" type="line" smooth="yes"/>
      <point x="889" y="1372"/>
      <point x="952" y="1435"/>
      <point x="952" y="1512" type="curve" smooth="yes"/>
      <point x="952" y="1589"/>
      <point x="889" y="1652"/>
      <point x="812" y="1652" type="curve" smooth="yes"/>
      <point x="200" y="1652" type="line" smooth="yes"/>
      <point x="123" y="1652"/>
      <point x="60" y="1589"/>
      <point x="60" y="1512" type="curve" smooth="yes"/>
      <point x="60" y="1435"/>
      <point x="123" y="1372"/>
    </contour>
  </outline>
</glyph>
<glyph name="plus" format="2">
  <advance width="1450"/>
  <unicode hex="002B"/>
  <outline>
    <contour>
      <point x="202" y="438" type="curve" smooth="yes"/>
      <point x="1248" y="438" type="line" smooth="yes"/>
      <point x="1325" y="438"/>
      <point x="1388" y="501"/>
      <point x="1388" y="578" type="curve" smooth="yes"/>
      <point x="1388" y="655"/>
      <point x="1325" y="718"/>
      <point x="1248" y="718" type="curve" smooth="yes"/>
      <point x="202" y="718" type="line" smooth="yes"/>
      <point x="125" y="718"/>
      <point x="62" y="655"/>
      <point x="62" y="578" type="curve" smooth="yes"/>
      <point x="62" y="501"/>
      <point x="125" y="438"/>
    </contour>
    <contour>
      <point x="725" y="-85" type="curve" smooth="yes"/>
      <point x="802" y="-85"/>
      <point x="865" y="-22"/>
      <point x="865" y="55" type="curve" smooth="yes"/>
      <point x="865" y="1101" type="line" smooth="yes"/>
      <point x="865" y="1178"/>
      <point x="802" y="1241"/>
      <point x="725" y="1241" type="curve" smooth="yes"/>
      <point x="648" y="1241"/>
      <point x="585" y="1178"/>
      <point x="585" y="1101" type="curve" smooth="yes"/>
      <point x="585" y="55" type="line" smooth="yes"/>
      <point x="585" y="-22"/>
      <point x="648" y="-85"/>
    </contour>
  </outline>
</glyph>
<glyph name="comma" format="2">
  <advance width="780"/>
  <unicode hex="002C"/>
  <outline>
    <contour>
      <point x="189" y="-246" type="curve" smooth="yes"/>
      <point x="231" y="-246"/>
      <point x="270" y="-228"/>
      <point x="295" y="-198" type="curve" smooth="yes"/>
      <point x="613" y="181" type="line" smooth="yes"/>
      <point x="712" y="299"/>
      <point x="643" y="456"/>
      <point x="487" y="456" type="curve" smooth="yes"/>
      <point x="224" y="456" type="line" smooth="yes"/>
      <point x="65" y="456"/>
      <point x="-6" y="296"/>
      <point x="100" y="177" type="curve" smooth="yes"/>
      <point x="252" y="7" type="line" smooth="yes"/>
      <point x="278" y="-22"/>
      <point x="315" y="-40"/>
      <point x="356" y="-40" type="curve" smooth="yes"/>
      <point x="433" y="-40"/>
      <point x="496" y="23"/>
      <point x="496" y="100" type="curve" smooth="yes"/>
      <point x="496" y="136"/>
      <point x="460" y="160"/>
      <point x="460" y="193" type="curve" smooth="yes"/>
      <point x="460" y="240" type="line"/>
      <point x="237" y="176" type="line"/>
      <point x="83" y="-14" type="line" smooth="yes"/>
      <point x="62" y="-39"/>
      <point x="49" y="-71"/>
      <point x="49" y="-106" type="curve" smooth="yes"/>
      <point x="49" y="-183"/>
      <point x="112" y="-246"/>
    </contour>
  </outline>
</glyph>
<glyph name="hyphen" format="2">
  <advance width="679"/>
  <unicode hex="002D"/>
  <outline>
    <contour>
      <point x="160" y="457" type="curve" smooth="yes"/>
      <point x="519" y="457" type="line" smooth="yes"/>
      <point x="596" y="457"/>
      <point x="659" y="520"/>
      <point x="659" y="597" type="curve" smooth="yes"/>
      <point x="659" y="674"/>
      <point x="596" y="737"/>
      <point x="519" y="737" type="curve" smooth="yes"/>
      <point x="160" y="737" type="line" smooth="yes"/>
      <point x="83" y="737"/>
      <point x="20" y="674"/>
      <point x="20" y="597" type="curve" smooth="yes"/>
      <point x="20" y="520"/>
      <point x="83" y="457"/>
    </contour>
  </outline>
</glyph>
<glyph name="period" format="2">
  <advance width="709"/>
  <unicode hex="002E"/>
  <outline>
    <contour>
      <point x="449" y="-30" type="curve" smooth="yes"/>
      <point x="410" y="-30"/>
      <point x="376" y="-14"/>
      <point x="350" y="11" type="curve" smooth="yes"/>
      <point x="131" y="229" type="line" smooth="yes"/>
      <point x="106" y="254"/>
      <point x="90" y="289"/>
      <point x="90" y="328" type="curve" smooth="yes"/>
      <point x="90" y="405"/>
      <point x="153" y="468"/>
      <point x="230" y="468" type="curve" smooth="yes"/>
      <point x="269" y="468"/>
      <point x="303" y="452"/>
      <point x="329" y="427" type="curve" smooth="yes"/>
      <point x="548" y="209" type="line" smooth="yes"/>
      <point x="573" y="184"/>
      <point x="589" y="149"/>
      <point x="589" y="110" type="curve" smooth="yes"/>
      <point x="589" y="33"/>
      <point x="526" y="-30"/>
    </contour>
    <contour>
      <point x="230" y="-30" type="curve" smooth="yes"/>
      <point x="153" y="-30"/>
      <point x="90" y="33"/>
      <point x="90" y="110" type="curve" smooth="yes"/>
      <point x="90" y="149"/>
      <point x="106" y="184"/>
      <point x="131" y="209" type="curve" smooth="yes"/>
      <point x="350" y="427" type="line" smooth="yes"/>
      <point x="376" y="452"/>
      <point x="410" y="468"/>
      <point x="449" y="468" type="curve" smooth="yes"/>
      <point x="526" y="468"/>
      <point x="589" y="405"/>
      <point x="589" y="328" type="curve" smooth="yes"/>
      <point x="589" y="289"/>
      <point x="573" y="254"/>
      <point x="548" y="229" type="curve" smooth="yes"/>
      <point x="329" y="11" type="line" smooth="yes"/>
      <point x="303" y="-14"/>
      <point x="269" y="-30"/>
    </contour>
  </outline>
</glyph>
<glyph name="slash" format="2">
  <advance width="888"/>
  <unicode hex="002F"/>
  <outline>
    <contour>
      <point x="196" y="-348" type="curve" smooth="yes"/>
      <point x="260" y="-348"/>
      <point x="314" y="-306"/>
      <point x="331" y="-247" type="curve" smooth="yes"/>
      <point x="822" y="1296" type="line" smooth="yes"/>
      <point x="848" y="1385"/>
      <point x="781" y="1475"/>
      <point x="688" y="1475" type="curve" smooth="yes"/>
      <point x="624" y="1475"/>
      <point x="570" y="1433"/>
      <point x="553" y="1374" type="curve" smooth="yes"/>
      <point x="62" y="-169" type="line" smooth="yes"/>
      <point x="36" y="-258"/>
      <point x="103" y="-348"/>
    </contour>
  </outline>
</glyph>
<glyph name="zero" format="2">
  <advance width="1450"/>
  <unicode hex="0030"/>
  <outline>
    <contour>
      <point x="727" y="-30" type="curve" smooth="yes"/>
      <point x="1089" y="-30"/>
      <point x="1350" y="328"/>
      <point x="1350" y="769" type="curve" smooth="yes"/>
      <point x="1350" y="1210"/>
      <point x="1089" y="1568"/>
      <point x="727" y="1568" type="curve" smooth="yes"/>
      <point x="361" y="1568"/>
      <point x="100" y="1210"/>
      <point x="100" y="769" type="curve" smooth="yes"/>
      <point x="100" y="328"/>
      <point x="361" y="-30"/>
    </contour>
    <contour>
      <point x="727" y="250" type="curve" smooth="yes"/>
      <point x="503" y="250"/>
      <point x="380" y="419"/>
      <point x="380" y="769" type="curve" smooth="yes"/>
      <point x="380" y="1119"/>
      <point x="503" y="1288"/>
      <point x="727" y="1288" type="curve" smooth="yes"/>
      <point x="947" y="1288"/>
      <point x="1070" y="1119"/>
      <point x="1070" y="769" type="curve" smooth="yes"/>
      <point x="1070" y="419"/>
      <point x="947" y="250"/>
    </contour>
  </outline>
</glyph>
<glyph name="one" format="2">
  <advance width="1057"/>
  <unicode hex="0031"/>
  <outline>
    <contour>
      <point x="427" y="901" type="line"/>
      <point x="426" y="280" type="line"/>
      <point x="296" y="280" type="line" smooth="yes"/>
      <point x="219" y="280"/>
      <point x="156" y="217"/>
      <point x="156" y="140" type="curve" smooth="yes"/>
      <point x="156" y="63"/>
      <point x="219" y="0"/>
      <point x="296" y="0" type="curve" smooth="yes"/>
      <point x="837" y="0" type="line" smooth="yes"/>
      <point x="914" y="0"/>
      <point x="977" y="63"/>
      <point x="977" y="140" type="curve" smooth="yes"/>
      <point x="977" y="217"/>
      <point x="914" y="280"/>
      <point x="837" y="280" type="curve" smooth="yes"/>
      <point x="706" y="280" type="line"/>
      <point x="707" y="1367" type="line" smooth="yes"/>
      <point x="707" y="1564"/>
      <point x="480" y="1641"/>
      <point x="362" y="1482" type="curve" smooth="yes"/>
      <point x="118" y="1155" type="line" smooth="yes"/>
      <point x="32" y="1039"/>
      <point x="101" y="901"/>
      <point x="245" y="901" type="curve" smooth="yes"/>
    </contour>
    <contour>
      <point x="427" y="1181" type="line"/>
      <point x="400" y="1181" type="line"/>
      <point x="427" y="1218" type="line"/>
    </contour>
  </outline>
</glyph>
<glyph name="two" format="2">
  <advance width="1458"/>
  <unicode hex="0032"/>
  <outline>
    <contour>
      <point x="314" y="0" type="curve" smooth="yes"/>
      <point x="1218" y="0" type="line" smooth="yes"/>
      <point x="1295" y="0"/>
      <point x="1358" y="63"/>
      <point x="1358" y="140" type="curve" smooth="yes"/>
      <point x="1358" y="217"/>
      <point x="1295" y="280"/>
      <point x="1218" y="280" type="curve" smooth="yes"/>
      <point x="656" y="280" type="line"/>
      <point x="988" y="473" type="line" smooth="yes"/>
      <point x="1221" y="609"/>
      <point x="1294" y="785"/>
      <point x="1294" y="971" type="curve" smooth="yes"/>
      <point x="1294" y="1310"/>
      <point x="1044" y="1568"/>
      <point x="708" y="1568" type="curve" smooth="yes"/>
      <point x="371" y="1568"/>
      <point x="100" y="1290"/>
      <point x="100" y="951" type="curve" smooth="yes"/>
      <point x="100" y="922"/>
      <point x="101" y="895"/>
      <point x="104" y="869" type="curve" smooth="yes"/>
      <point x="109" y="820"/>
      <point x="157" y="789"/>
      <point x="214" y="789" type="curve" smooth="yes"/>
      <point x="1152" y="789" type="line" smooth="yes"/>
      <point x="1229" y="789"/>
      <point x="1292" y="852"/>
      <point x="1292" y="929" type="curve" smooth="yes"/>
      <point x="1292" y="1006"/>
      <point x="1229" y="1069"/>
      <point x="1152" y="1069" type="curve" smooth="yes"/>
      <point x="306" y="1069" type="line"/>
      <point x="380" y="951" type="line"/>
      <point x="380" y="1157"/>
      <point x="508" y="1288"/>
      <point x="708" y="1288" type="curve" smooth="yes"/>
      <point x="907" y="1288"/>
      <point x="1014" y="1177"/>
      <point x="1014" y="971" type="curve" smooth="yes"/>
      <point x="1014" y="874"/>
      <point x="996" y="797"/>
      <point x="818" y="695" type="curve" smooth="yes"/>
      <point x="199" y="341" type="line" smooth="yes"/>
      <point x="31" y="245"/>
      <point x="119" y="0"/>
    </contour>
  </outline>
</glyph>
<glyph name="three" format="2">
  <advance width="1274"/>
  <unicode hex="0033"/>
  <outline>
    <contour>
      <point x="627" y="-30" type="curve" smooth="yes"/>
      <point x="960" y="-30"/>
      <point x="1204" y="197"/>
      <point x="1204" y="483" type="curve" smooth="yes"/>
      <point x="1204" y="768"/>
      <point x="960" y="994"/>
      <point x="627" y="994" type="curve" smooth="yes"/>
      <point x="553" y="994"/>
      <point x="483" y="981"/>
      <point x="420" y="956" type="curve" smooth="yes"/>
      <point x="368" y="935"/>
      <point x="332" y="884"/>
      <point x="332" y="826" type="curve" smooth="yes"/>
      <point x="332" y="750"/>
      <point x="394" y="687"/>
      <point x="471" y="687" type="curve" smooth="yes"/>
      <point x="489" y="687"/>
      <point x="508" y="691"/>
      <point x="524" y="698" type="curve" smooth="yes"/>
      <point x="553" y="709"/>
      <point x="585" y="714"/>
      <point x="627" y="714" type="curve" smooth="yes"/>
      <point x="830" y="714"/>
      <point x="924" y="626"/>
      <point x="924" y="483" type="curve" smooth="yes"/>
      <point x="924" y="338"/>
      <point x="830" y="250"/>
      <point x="627" y="250" type="curve" smooth="yes"/>
      <point x="456" y="250"/>
      <point x="391" y="306"/>
      <point x="341" y="402" type="curve" smooth="yes"/>
      <point x="313" y="455"/>
      <point x="271" y="499"/>
      <point x="209" y="499" type="curve" smooth="yes"/>
      <point x="109" y="499"/>
      <point x="45" y="399"/>
      <point x="79" y="313" type="curve" smooth="yes"/>
      <point x="153" y="113"/>
      <point x="353" y="-30"/>
    </contour>
    <contour>
      <point x="637" y="619" type="curve" smooth="yes"/>
      <point x="938" y="619"/>
      <point x="1151" y="832"/>
      <point x="1151" y="1094" type="curve" smooth="yes"/>
      <point x="1151" y="1355"/>
      <point x="938" y="1568"/>
      <point x="637" y="1568" type="curve" smooth="yes"/>
      <point x="395" y="1568"/>
      <point x="214" y="1445"/>
      <point x="154" y="1265" type="curve" smooth="yes"/>
      <point x="125" y="1178"/>
      <point x="172" y="1078"/>
      <point x="283" y="1078" type="curve" smooth="yes"/>
      <point x="345" y="1078"/>
      <point x="385" y="1123"/>
      <point x="415" y="1174" type="curve" smooth="yes"/>
      <point x="458" y="1247"/>
      <point x="500" y="1288"/>
      <point x="637" y="1288" type="curve" smooth="yes"/>
      <point x="762" y="1288"/>
      <point x="871" y="1219"/>
      <point x="871" y="1094" type="curve" smooth="yes"/>
      <point x="871" y="968"/>
      <point x="762" y="900"/>
      <point x="637" y="900" type="curve" smooth="yes"/>
      <point x="591" y="900"/>
      <point x="559" y="909"/>
      <point x="531" y="928" type="curve" smooth="yes"/>
      <point x="509" y="943"/>
      <point x="481" y="951"/>
      <point x="452" y="951" type="curve" smooth="yes"/>
      <point x="375" y="951"/>
      <point x="313" y="890"/>
      <point x="313" y="813" type="curve" smooth="yes"/>
      <point x="313" y="771"/>
      <point x="329" y="731"/>
      <point x="359" y="709" type="curve" smooth="yes"/>
      <point x="437" y="651"/>
      <point x="534" y="619"/>
    </contour>
  </outline>
</glyph>
<glyph name="four" format="2">
  <advance width="1438"/>
  <unicode hex="0034"/>
  <outline>
    <contour>
      <point x="947" y="126" type="curve" smooth="yes"/>
      <point x="1024" y="126"/>
      <point x="1087" y="189"/>
      <point x="1087" y="266" type="curve" smooth="yes"/>
      <point x="1087" y="1369" type="line" smooth="yes"/>
      <point x="1087" y="1566"/>
      <point x="860" y="1642"/>
      <point x="742" y="1484" type="curve" smooth="yes"/>
      <point x="78" y="594" type="line" smooth="yes"/>
      <point x="-8" y="478"/>
      <point x="61" y="340"/>
      <point x="205" y="340" type="curve" smooth="yes"/>
      <point x="821" y="340" type="line" smooth="yes"/>
      <point x="898" y="340"/>
      <point x="961" y="403"/>
      <point x="961" y="480" type="curve" smooth="yes"/>
      <point x="961" y="557"/>
      <point x="898" y="620"/>
      <point x="821" y="620" type="curve" smooth="yes"/>
      <point x="446" y="620" type="line"/>
      <point x="807" y="1103" type="line"/>
      <point x="807" y="266" type="line" smooth="yes"/>
      <point x="807" y="189"/>
      <point x="870" y="126"/>
    </contour>
    <contour>
      <point x="677" y="0" type="curve" smooth="yes"/>
      <point x="1218" y="0" type="line" smooth="yes"/>
      <point x="1295" y="0"/>
      <point x="1358" y="63"/>
      <point x="1358" y="140" type="curve" smooth="yes"/>
      <point x="1358" y="217"/>
      <point x="1295" y="280"/>
      <point x="1218" y="280" type="curve" smooth="yes"/>
      <point x="677" y="280" type="line" smooth="yes"/>
      <point x="600" y="280"/>
      <point x="537" y="217"/>
      <point x="537" y="140" type="curve" smooth="yes"/>
      <point x="537" y="63"/>
      <point x="600" y="0"/>
    </contour>
  </outline>
</glyph>
<glyph name="five" format="2">
  <advance width="1254"/>
  <unicode hex="0035"/>
  <outline>
    <contour>
      <point x="609" y="-30" type="curve" smooth="yes"/>
      <point x="905" y="-30"/>
      <point x="1150" y="195"/>
      <point x="1150" y="479" type="curve" smooth="yes"/>
      <point x="1150" y="763"/>
      <point x="905" y="989"/>
      <point x="609" y="989" type="curve" smooth="yes"/>
      <point x="543" y="989"/>
      <point x="480" y="978"/>
      <point x="421" y="957" type="curve"/>
      <point x="421" y="1258" type="line"/>
      <point x="718" y="1258" type="line"/>
      <point x="404" y="1022" type="line" smooth="yes"/>
      <point x="370" y="997"/>
      <point x="348" y="956"/>
      <point x="348" y="910" type="curve" smooth="yes"/>
      <point x="348" y="833"/>
      <point x="411" y="770"/>
      <point x="488" y="770" type="curve" smooth="yes"/>
      <point x="519" y="770"/>
      <point x="548" y="780"/>
      <point x="572" y="798" type="curve" smooth="yes"/>
      <point x="1099" y="1193" type="line" smooth="yes"/>
      <point x="1258" y="1312"/>
      <point x="1181" y="1538"/>
      <point x="984" y="1538" type="curve" smooth="yes"/>
      <point x="263" y="1538" type="line" smooth="yes"/>
      <point x="192" y="1538"/>
      <point x="141" y="1487"/>
      <point x="141" y="1416" type="curve" smooth="yes"/>
      <point x="141" y="802" type="line" smooth="yes"/>
      <point x="141" y="612"/>
      <point x="334" y="587"/>
      <point x="510" y="686" type="curve" smooth="yes"/>
      <point x="545" y="705"/>
      <point x="575" y="709"/>
      <point x="609" y="709" type="curve" smooth="yes"/>
      <point x="775" y="709"/>
      <point x="870" y="622"/>
      <point x="870" y="479" type="curve" smooth="yes"/>
      <point x="870" y="337"/>
      <point x="776" y="250"/>
      <point x="609" y="250" type="curve" smooth="yes"/>
      <point x="485" y="250"/>
      <point x="412" y="297"/>
      <point x="366" y="392" type="curve" smooth="yes"/>
      <point x="343" y="439"/>
      <point x="295" y="471"/>
      <point x="240" y="471" type="curve" smooth="yes"/>
      <point x="163" y="471"/>
      <point x="100" y="408"/>
      <point x="100" y="331" type="curve" smooth="yes"/>
      <point x="100" y="309"/>
      <point x="105" y="288"/>
      <point x="114" y="270" type="curve" smooth="yes"/>
      <point x="200" y="93"/>
      <point x="390" y="-30"/>
    </contour>
  </outline>
</glyph>
<glyph name="six" format="2">
  <advance width="1261"/>
  <unicode hex="0036"/>
  <outline>
    <contour>
      <point x="210" y="350" type="curve" smooth="yes"/>
      <point x="287" y="350"/>
      <point x="350" y="413"/>
      <point x="350" y="490" type="curve" smooth="yes"/>
      <point x="350" y="982"/>
      <point x="645" y="1190"/>
      <point x="1014" y="1263" type="curve" smooth="yes"/>
      <point x="1078" y="1276"/>
      <point x="1126" y="1333"/>
      <point x="1126" y="1401" type="curve" smooth="yes"/>
      <point x="1126" y="1478"/>
      <point x="1064" y="1541"/>
      <point x="986" y="1541" type="curve" smooth="yes"/>
      <point x="776" y="1541"/>
      <point x="70" y="1281"/>
      <point x="70" y="490" type="curve" smooth="yes"/>
      <point x="70" y="413"/>
      <point x="133" y="350"/>
    </contour>
    <contour>
      <point x="631" y="-31" type="curve" smooth="yes"/>
      <point x="958" y="-31"/>
      <point x="1191" y="202"/>
      <point x="1191" y="490" type="curve" smooth="yes"/>
      <point x="1191" y="777"/>
      <point x="958" y="1010"/>
      <point x="631" y="1010" type="curve" smooth="yes"/>
      <point x="303" y="1010"/>
      <point x="70" y="777"/>
      <point x="70" y="490" type="curve" smooth="yes"/>
      <point x="70" y="202"/>
      <point x="303" y="-31"/>
    </contour>
    <contour>
      <point x="631" y="249" type="curve" smooth="yes"/>
      <point x="449" y="249"/>
      <point x="350" y="348"/>
      <point x="350" y="490" type="curve" smooth="yes"/>
      <point x="350" y="631"/>
      <point x="449" y="730"/>
      <point x="631" y="730" type="curve" smooth="yes"/>
      <point x="812" y="730"/>
      <point x="911" y="631"/>
      <point x="911" y="490" type="curve" smooth="yes"/>
      <point x="911" y="348"/>
      <point x="812" y="249"/>
    </contour>
  </outline>
</glyph>
<glyph name="seven" format="2">
  <advance width="1395"/>
  <unicode hex="0037"/>
  <outline>
    <contour>
      <point x="579" y="-1" type="curve" smooth="yes"/>
      <point x="634" y="-1"/>
      <point x="681" y="30"/>
      <point x="704" y="76" type="curve" smooth="yes"/>
      <point x="1336" y="1326" type="line" smooth="yes"/>
      <point x="1390" y="1433"/>
      <point x="1323" y="1538"/>
      <point x="1205" y="1538" type="curve" smooth="yes"/>
      <point x="221" y="1538" type="line" smooth="yes"/>
      <point x="53" y="1538"/>
      <point x="-21" y="1364"/>
      <point x="98" y="1244" type="curve" smooth="yes"/>
      <point x="474" y="865" type="line"/>
      <point x="464" y="865" type="line" smooth="yes"/>
      <point x="387" y="865"/>
      <point x="324" y="802"/>
      <point x="324" y="725" type="curve" smooth="yes"/>
      <point x="324" y="648"/>
      <point x="387" y="585"/>
      <point x="464" y="585" type="curve" smooth="yes"/>
      <point x="732" y="585" type="line" smooth="yes"/>
      <point x="900" y="585"/>
      <point x="974" y="759"/>
      <point x="855" y="879" type="curve" smooth="yes"/>
      <point x="479" y="1258" type="line"/>
      <point x="987" y="1258" type="line"/>
      <point x="454" y="202" type="line" smooth="yes"/>
      <point x="444" y="183"/>
      <point x="439" y="161"/>
      <point x="439" y="139" type="curve" smooth="yes"/>
      <point x="439" y="61"/>
      <point x="502" y="-1"/>
    </contour>
  </outline>
</glyph>
<glyph name="eight" format="2">
  <advance width="1379"/>
  <unicode hex="0038"/>
  <outline>
    <contour>
      <point x="690" y="-30" type="curve" smooth="yes"/>
      <point x="1026" y="-30"/>
      <point x="1299" y="199"/>
      <point x="1299" y="482" type="curve" smooth="yes"/>
      <point x="1299" y="764"/>
      <point x="1026" y="993"/>
      <point x="690" y="993" type="curve" smooth="yes"/>
      <point x="353" y="993"/>
      <point x="80" y="764"/>
      <point x="80" y="482" type="curve" smooth="yes"/>
      <point x="80" y="199"/>
      <point x="353" y="-30"/>
    </contour>
    <contour>
      <point x="690" y="250" type="curve" smooth="yes"/>
      <point x="455" y="250"/>
      <point x="360" y="370"/>
      <point x="360" y="482" type="curve" smooth="yes"/>
      <point x="360" y="593"/>
      <point x="455" y="713"/>
      <point x="690" y="713" type="curve" smooth="yes"/>
      <point x="924" y="713"/>
      <point x="1019" y="593"/>
      <point x="1019" y="482" type="curve" smooth="yes"/>
      <point x="1019" y="370"/>
      <point x="924" y="250"/>
    </contour>
    <contour>
      <point x="690" y="633" type="curve" smooth="yes"/>
      <point x="997" y="633"/>
      <point x="1246" y="842"/>
      <point x="1246" y="1101" type="curve" smooth="yes"/>
      <point x="1246" y="1359"/>
      <point x="997" y="1568"/>
      <point x="690" y="1568" type="curve" smooth="yes"/>
      <point x="382" y="1568"/>
      <point x="133" y="1359"/>
      <point x="133" y="1101" type="curve" smooth="yes"/>
      <point x="133" y="842"/>
      <point x="382" y="633"/>
    </contour>
    <contour>
      <point x="690" y="913" type="curve" smooth="yes"/>
      <point x="484" y="913"/>
      <point x="413" y="1013"/>
      <point x="413" y="1101" type="curve" smooth="yes"/>
      <point x="413" y="1188"/>
      <point x="484" y="1288"/>
      <point x="690" y="1288" type="curve" smooth="yes"/>
      <point x="895" y="1288"/>
      <point x="966" y="1188"/>
      <point x="966" y="1101" type="curve" smooth="yes"/>
      <point x="966" y="1013"/>
      <point x="895" y="913"/>
    </contour>
  </outline>
</glyph>
<glyph name="equal" format="2">
  <advance width="1450"/>
  <unicode hex="003D"/>
  <outline>
    <contour>
      <point x="202" y="746" type="curve" smooth="yes"/>
      <point x="1248" y="746" type="line" smooth="yes"/>
      <point x="1325" y="746"/>
      <point x="1388" y="809"/>
      <point x="1388" y="886" type="curve" smooth="yes"/>
      <point x="1388" y="963"/>
      <point x="1325" y="1026"/>
      <point x="1248" y="1026" type="curve" smooth="yes"/>
      <point x="202" y="1026" type="line" smooth="yes"/>
      <point x="125" y="1026"/>
      <point x="62" y="963"/>
      <point x="62" y="886" type="curve" smooth="yes"/>
      <point x="62" y="809"/>
      <point x="125" y="746"/>
    </contour>
    <contour>
      <point x="202" y="217" type="curve" smooth="yes"/>
      <point x="1248" y="217" type="line" smooth="yes"/>
      <point x="1325" y="217"/>
      <point x="1388" y="280"/>
      <point x="1388" y="357" type="curve" smooth="yes"/>
      <point x="1388" y="434"/>
      <point x="1325" y="497"/>
      <point x="1248" y="497" type="curve" smooth="yes"/>
      <point x="202" y="497" type="line" smooth="yes"/>
      <point x="125" y="497"/>
      <point x="62" y="434"/>
      <point x="62" y="357" type="curve" smooth="yes"/>
      <point x="62" y="280"/>
      <point x="125" y="217"/>
    </contour>
  </outline>
</glyph>
<glyph name="greater" format="2">
  <advance width="1450"/>
  <unicode hex="003E"/>
  <outline>
    <contour>
      <point x="265" y="63" type="curve" smooth="yes"/>
      <point x="283" y="63"/>
      <point x="302" y="67"/>
      <point x="318" y="74" type="curve" smooth="yes"/>
      <point x="1210" y="443" type="line" smooth="yes"/>
      <point x="1366" y="508"/>
      <point x="1366" y="698"/>
      <point x="1210" y="763" type="curve" smooth="yes"/>
      <point x="317" y="1133" type="line" smooth="yes"/>
      <point x="301" y="1140"/>
      <point x="283" y="1144"/>
      <point x="264" y="1144" type="curve" smooth="yes"/>
      <point x="186" y="1144"/>
      <point x="124" y="1081"/>
      <point x="124" y="1004" type="curve" smooth="yes"/>
      <point x="124" y="946"/>
      <point x="159" y="896"/>
      <point x="210" y="875" type="curve" smooth="yes"/>
      <point x="865" y="603" type="line"/>
      <point x="211" y="332" type="line" smooth="yes"/>
      <point x="160" y="311"/>
      <point x="125" y="261"/>
      <point x="125" y="203" type="curve" smooth="yes"/>
      <point x="125" y="126"/>
      <point x="187" y="63"/>
    </contour>
  </outline>
</glyph>
<glyph name="question" format="2">
  <advance width="1197"/>
  <unicode hex="003F"/>
  <outline>
    <contour>
      <point x="549" y="496" type="curve" smooth="yes"/>
      <point x="626" y="496"/>
      <point x="689" y="559"/>
      <point x="689" y="636" type="curve" smooth="yes"/>
      <point x="689" y="640" type="line"/>
      <point x="833" y="724" type="line" smooth="yes"/>
      <point x="999" y="821"/>
      <point x="1077" y="968"/>
      <point x="1077" y="1132" type="curve" smooth="yes"/>
      <point x="1077" y="1380"/>
      <point x="871" y="1568"/>
      <point x="597" y="1568" type="curve" smooth="yes"/>
      <point x="326" y="1568"/>
      <point x="100" y="1369"/>
      <point x="100" y="1118" type="curve" smooth="yes"/>
      <point x="100" y="1100"/>
      <point x="105" y="1070"/>
      <point x="112" y="1040" type="curve" smooth="yes"/>
      <point x="121" y="994"/>
      <point x="166" y="964"/>
      <point x="221" y="964" type="curve" smooth="yes"/>
      <point x="936" y="964" type="line" smooth="yes"/>
      <point x="1013" y="964"/>
      <point x="1076" y="1027"/>
      <point x="1076" y="1104" type="curve" smooth="yes"/>
      <point x="1076" y="1181"/>
      <point x="1013" y="1244"/>
      <point x="936" y="1244" type="curve" smooth="yes"/>
      <point x="241" y="1244" type="line"/>
      <point x="380" y="1118" type="line"/>
      <point x="380" y="1225"/>
      <point x="452" y="1288"/>
      <point x="597" y="1288" type="curve" smooth="yes"/>
      <point x="741" y="1288"/>
      <point x="797" y="1239"/>
      <point x="797" y="1132" type="curve" smooth="yes"/>
      <point x="797" y="1068"/>
      <point x="776" y="1024"/>
      <point x="659" y="944" type="curve" smooth="yes"/>
      <point x="455" y="805" type="line" smooth="yes"/>
      <point x="426" y="785"/>
      <point x="409" y="754"/>
      <point x="409" y="719" type="curve" smooth="yes"/>
      <point x="409" y="636" type="line" smooth="yes"/>
      <point x="409" y="559"/>
      <point x="472" y="496"/>
    </contour>
    <component base="period" xOffset="208"/>
  </outline>
</glyph>
<glyph name="at" format="2">
  <advance width="1983"/>
  <unicode hex="0040"/>
  <outline>
    <contour>
      <point x="992" y="-142" type="curve" smooth="yes"/>
      <point x="1137" y="-142"/>
      <point x="1276" y="-107"/>
      <point x="1398" y="-47" type="curve" smooth="yes"/>
      <point x="1444" y="-24"/>
      <point x="1476" y="23"/>
      <point x="1476" y="78" type="curve" smooth="yes"/>
      <point x="1476" y="155"/>
      <point x="1413" y="218"/>
      <point x="1336" y="218" type="curve" smooth="yes"/>
      <point x="1313" y="218"/>
      <point x="1292" y="213"/>
      <point x="1273" y="204" type="curve" smooth="yes"/>
      <point x="1183" y="159"/>
      <point x="1099" y="138"/>
      <point x="992" y="138" type="curve" smooth="yes"/>
      <point x="618" y="138"/>
      <point x="360" y="395"/>
      <point x="360" y="767" type="curve" smooth="yes"/>
      <point x="360" y="1140"/>
      <point x="619" y="1400"/>
      <point x="992" y="1400" type="curve" smooth="yes"/>
      <point x="1364" y="1400"/>
      <point x="1623" y="1140"/>
      <point x="1623" y="767" type="curve" smooth="yes"/>
      <point x="1623" y="572"/>
      <point x="1596" y="536"/>
      <point x="1571" y="536" type="curve" smooth="yes"/>
      <point x="1545" y="536"/>
      <point x="1537" y="536"/>
      <point x="1501" y="605" type="curve" smooth="yes"/>
      <point x="1160" y="1268" type="line" smooth="yes"/>
      <point x="1096" y="1393"/>
      <point x="944" y="1393"/>
      <point x="880" y="1268" type="curve" smooth="yes"/>
      <point x="510" y="548" type="line" smooth="yes"/>
      <point x="500" y="529"/>
      <point x="494" y="507"/>
      <point x="494" y="484" type="curve" smooth="yes"/>
      <point x="494" y="406"/>
      <point x="557" y="344"/>
      <point x="634" y="344" type="curve" smooth="yes"/>
      <point x="688" y="344"/>
      <point x="736" y="375"/>
      <point x="759" y="420" type="curve" smooth="yes"/>
      <point x="1020" y="928" type="line"/>
      <point x="1252" y="477" type="line" smooth="yes"/>
      <point x="1326" y="332"/>
      <point x="1418" y="256"/>
      <point x="1556" y="256" type="curve" smooth="yes"/>
      <point x="1748" y="256"/>
      <point x="1903" y="379"/>
      <point x="1903" y="767" type="curve" smooth="yes"/>
      <point x="1903" y="1271"/>
      <point x="1495" y="1680"/>
      <point x="992" y="1680" type="curve" smooth="yes"/>
      <point x="488" y="1680"/>
      <point x="80" y="1271"/>
      <point x="80" y="767" type="curve" smooth="yes"/>
      <point x="80" y="264"/>
      <point x="487" y="-142"/>
    </contour>
    <contour>
      <point x="903" y="364" type="line" smooth="yes"/>
      <point x="963" y="274"/>
      <point x="1077" y="274"/>
      <point x="1137" y="364" type="curve" smooth="yes"/>
      <point x="1364" y="701" type="line" smooth="yes"/>
      <point x="1379" y="723"/>
      <point x="1388" y="750"/>
      <point x="1388" y="779" type="curve" smooth="yes"/>
      <point x="1388" y="857"/>
      <point x="1326" y="919"/>
      <point x="1248" y="919" type="curve" smooth="yes"/>
      <point x="1200" y="919"/>
      <point x="1157" y="895"/>
      <point x="1132" y="858" type="curve" smooth="yes"/>
      <point x="1020" y="692" type="line"/>
      <point x="909" y="857" type="line" smooth="yes"/>
      <point x="884" y="895"/>
      <point x="841" y="919"/>
      <point x="793" y="919" type="curve" smooth="yes"/>
      <point x="715" y="919"/>
      <point x="653" y="857"/>
      <point x="653" y="779" type="curve" smooth="yes"/>
      <point x="653" y="751"/>
      <point x="661" y="724"/>
      <point x="676" y="701" type="curve" smooth="yes"/>
    </contour>
  </outline>
</glyph>
<glyph name="A" format="2">
  <advance width="1694"/>
  <unicode hex="0041"/>
  <anchor x="850" y="0" name="bottom"/>
  <anchor x="1481" y="127" name="ogonek"/>
  <anchor x="850" y="1538" name="top"/>
  <outline>
    <contour>
      <point x="180" y="1" type="curve" smooth="yes"/>
      <point x="233" y="1"/>
      <point x="280" y="30"/>
      <point x="303" y="75" type="curve" smooth="yes"/>
      <point x="847" y="1134" type="line"/>
      <point x="1391" y="74" type="line" smooth="yes"/>
      <point x="1414" y="29"/>
      <point x="1461" y="0"/>
      <point x="1514" y="0" type="curve" smooth="yes"/>
      <point x="1592" y="0"/>
      <point x="1654" y="63"/>
      <point x="1654" y="140" type="curve" smooth="yes"/>
      <point x="1654" y="164"/>
      <point x="1648" y="187"/>
      <point x="1638" y="207" type="curve" smooth="yes"/>
      <point x="987" y="1474" type="line" smooth="yes"/>
      <point x="923" y="1599"/>
      <point x="771" y="1599"/>
      <point x="707" y="1474" type="curve" smooth="yes"/>
      <point x="56" y="208" type="line" smooth="yes"/>
      <point x="46" y="188"/>
      <point x="40" y="165"/>
      <point x="40" y="141" type="curve" smooth="yes"/>
      <point x="40" y="64"/>
      <point x="102" y="1"/>
    </contour>
    <contour>
      <point x="730" y="68" type="line" smooth="yes"/>
      <point x="791" y="-22"/>
      <point x="903" y="-22"/>
      <point x="964" y="68" type="curve" smooth="yes"/>
      <point x="1326" y="606" type="line" smooth="yes"/>
      <point x="1341" y="628"/>
      <point x="1351" y="656"/>
      <point x="1351" y="686" type="curve" smooth="yes"/>
      <point x="1351" y="763"/>
      <point x="1288" y="826"/>
      <point x="1211" y="826" type="curve" smooth="yes"/>
      <point x="1163" y="826"/>
      <point x="1121" y="802"/>
      <point x="1096" y="765" type="curve" smooth="yes"/>
      <point x="847" y="396" type="line"/>
      <point x="609" y="748" type="line" smooth="yes"/>
      <point x="584" y="785"/>
      <point x="542" y="809"/>
      <point x="494" y="809" type="curve" smooth="yes"/>
      <point x="417" y="809"/>
      <point x="354" y="746"/>
      <point x="354" y="669" type="curve" smooth="yes"/>
      <point x="354" y="639"/>
      <point x="364" y="611"/>
      <point x="379" y="589" type="curve" smooth="yes"/>
    </contour>
  </outline>
</glyph>
<glyph name="B" format="2">
  <advance width="1427"/>
  <unicode hex="0042"/>
  <anchor x="726" y="0" name="bottom"/>
  <anchor x="726" y="769" name="center"/>
  <anchor x="726" y="1538" name="top"/>
  <outline>
    <contour>
      <point x="262" y="0" type="curve" smooth="yes"/>
      <point x="753" y="0" type="line" smooth="yes"/>
      <point x="1070" y="0"/>
      <point x="1327" y="256"/>
      <point x="1327" y="573" type="curve" smooth="yes"/>
      <point x="1327" y="890"/>
      <point x="1070" y="1147"/>
      <point x="753" y="1147" type="curve" smooth="yes"/>
      <point x="336" y="1147" type="line" smooth="yes"/>
      <point x="259" y="1147"/>
      <point x="196" y="1084"/>
      <point x="196" y="1007" type="curve" smooth="yes"/>
      <point x="196" y="930"/>
      <point x="259" y="867"/>
      <point x="336" y="867" type="curve" smooth="yes"/>
      <point x="753" y="867" type="line" smooth="yes"/>
      <point x="884" y="867"/>
      <point x="1047" y="774"/>
      <point x="1047" y="573" type="curve" smooth="yes"/>
      <point x="1047" y="372"/>
      <point x="884" y="280"/>
      <point x="753" y="280" type="curve" smooth="yes"/>
      <point x="420" y="280" type="line"/>
      <point x="420" y="1258" type="line"/>
      <point x="601" y="1258" type="line" smooth="yes"/>
      <point x="731" y="1258"/>
      <point x="826" y="1196"/>
      <point x="826" y="1033" type="curve" smooth="yes"/>
      <point x="826" y="869"/>
      <point x="731" y="807"/>
      <point x="601" y="807" type="curve" smooth="yes"/>
      <point x="336" y="807" type="line" smooth="yes"/>
      <point x="259" y="807"/>
      <point x="196" y="744"/>
      <point x="196" y="667" type="curve" smooth="yes"/>
      <point x="196" y="590"/>
      <point x="259" y="527"/>
      <point x="336" y="527" type="curve" smooth="yes"/>
      <point x="601" y="527" type="line" smooth="yes"/>
      <point x="880" y="527"/>
      <point x="1106" y="753"/>
      <point x="1106" y="1033" type="curve" smooth="yes"/>
      <point x="1106" y="1312"/>
      <point x="880" y="1538"/>
      <point x="601" y="1538" type="curve" smooth="yes"/>
      <point x="262" y="1538" type="line" smooth="yes"/>
      <point x="191" y="1538"/>
      <point x="140" y="1487"/>
      <point x="140" y="1416" type="curve" smooth="yes"/>
      <point x="140" y="122" type="line" smooth="yes"/>
      <point x="140" y="51"/>
      <point x="191" y="0"/>
    </contour>
  </outline>
</glyph>
<glyph name="C" format="2">
  <advance width="1567"/>
  <unicode hex="0043"/>
  <anchor x="784" y="-30" name="bottom"/>
  <anchor x="899" y="1538" name="top"/>
  <outline>
    <contour>
      <point x="900" y="-30" type="curve" smooth="yes"/>
      <point x="1112" y="-30"/>
      <point x="1304" y="52"/>
      <point x="1447" y="186" type="curve" smooth="yes"/>
      <point x="1474" y="212"/>
      <point x="1491" y="248"/>
      <point x="1491" y="288" type="curve" smooth="yes"/>
      <point x="1491" y="365"/>
      <point x="1429" y="428"/>
      <point x="1351" y="428" type="curve" smooth="yes"/>
      <point x="1314" y="428"/>
      <point x="1281" y="414"/>
      <point x="1256" y="390" type="curve" smooth="yes"/>
      <point x="1149" y="290"/>
      <point x="1055" y="250"/>
      <point x="900" y="250" type="curve" smooth="yes"/>
      <point x="573" y="250"/>
      <point x="380" y="441"/>
      <point x="380" y="767" type="curve" smooth="yes"/>
      <point x="380" y="1093"/>
      <point x="573" y="1288"/>
      <point x="900" y="1288" type="curve" smooth="yes"/>
      <point x="1062" y="1288"/>
      <point x="1160" y="1243"/>
      <point x="1268" y="1134" type="curve" smooth="yes"/>
      <point x="1293" y="1109"/>
      <point x="1328" y="1093"/>
      <point x="1367" y="1093" type="curve" smooth="yes"/>
      <point x="1445" y="1093"/>
      <point x="1507" y="1155"/>
      <point x="1507" y="1233" type="curve" smooth="yes"/>
      <point x="1507" y="1271"/>
      <point x="1492" y="1306"/>
      <point x="1467" y="1331" type="curve" smooth="yes"/>
      <point x="1323" y="1477"/>
      <point x="1122" y="1568"/>
      <point x="900" y="1568" type="curve" smooth="yes"/>
      <point x="457" y="1568"/>
      <point x="100" y="1209"/>
      <point x="100" y="767" type="curve" smooth="yes"/>
      <point x="100" y="325"/>
      <point x="457" y="-30"/>
    </contour>
  </outline>
</glyph>
<glyph name="D" format="2">
  <advance width="1542"/>
  <unicode hex="0044"/>
  <anchor x="771" y="0" name="bottom"/>
  <anchor x="771" y="769" name="center"/>
  <anchor x="673" y="1538" name="top"/>
  <outline>
    <contour>
      <point x="262" y="0" type="curve" smooth="yes"/>
      <point x="735" y="0" type="line" smooth="yes"/>
      <point x="1155" y="0"/>
      <point x="1442" y="303"/>
      <point x="1442" y="769" type="curve" smooth="yes"/>
      <point x="1442" y="1233"/>
      <point x="1155" y="1538"/>
      <point x="735" y="1538" type="curve" smooth="yes"/>
      <point x="262" y="1538" type="line" smooth="yes"/>
      <point x="191" y="1538"/>
      <point x="140" y="1487"/>
      <point x="140" y="1416" type="curve" smooth="yes"/>
      <point x="140" y="122" type="line" smooth="yes"/>
      <point x="140" y="51"/>
      <point x="191" y="0"/>
    </contour>
    <contour>
      <point x="420" y="280" type="line"/>
      <point x="420" y="1258" type="line"/>
      <point x="735" y="1258" type="line" smooth="yes"/>
      <point x="1034" y="1258"/>
      <point x="1162" y="1122"/>
      <point x="1162" y="769" type="curve" smooth="yes"/>
      <point x="1162" y="415"/>
      <point x="1035" y="280"/>
      <point x="735" y="280" type="curve" smooth="yes"/>
    </contour>
  </outline>
</glyph>
<glyph name="E" format="2">
  <advance width="1470"/>
  <unicode hex="0045"/>
  <anchor x="707" y="0" name="bottom"/>
  <anchor x="1069" y="106" name="ogonek"/>
  <anchor x="713" y="1538" name="top"/>
  <anchor x="20" y="1538" name="topleft"/>
  <outline>
    <contour>
      <point x="262" y="0" type="curve" smooth="yes"/>
      <point x="1210" y="0" type="line" smooth="yes"/>
      <point x="1287" y="0"/>
      <point x="1350" y="63"/>
      <point x="1350" y="140" type="curve" smooth="yes"/>
      <point x="1350" y="217"/>
      <point x="1287" y="280"/>
      <point x="1210" y="280" type="curve" smooth="yes"/>
      <point x="420" y="280" type="line"/>
      <point x="420" y="1258" type="line"/>
      <point x="892" y="1258" type="line"/>
      <point x="144" y="502" type="line"/>
      <point x="144" y="569" type="line"/>
      <point x="1191" y="565" type="line" smooth="yes"/>
      <point x="1268" y="565"/>
      <point x="1331" y="628"/>
      <point x="1331" y="705" type="curve" smooth="yes"/>
      <point x="1331" y="782"/>
      <point x="1268" y="844"/>
      <point x="1191" y="845" type="curve" smooth="yes"/>
      <point x="890" y="849" type="line"/>
      <point x="1280" y="1245" type="line" smooth="yes"/>
      <point x="1398" y="1365"/>
      <point x="1325" y="1538"/>
      <point x="1157" y="1538" type="curve" smooth="yes"/>
      <point x="262" y="1538" type="line" smooth="yes"/>
      <point x="191" y="1538"/>
      <point x="140" y="1487"/>
      <point x="140" y="1416" type="curve" smooth="yes"/>
      <point x="140" y="122" type="line" smooth="yes"/>
      <point x="140" y="51"/>
      <point x="191" y="0"/>
    </contour>
  </outline>
</glyph>
<glyph name="F" format="2">
  <advance width="1452"/>
  <unicode hex="0046"/>
  <anchor x="716" y="0" name="bottom"/>
  <anchor x="716" y="1538" name="top"/>
  <outline>
    <contour>
      <point x="280" y="0" type="curve" smooth="yes"/>
      <point x="357" y="0"/>
      <point x="420" y="63"/>
      <point x="420" y="140" type="curve" smooth="yes"/>
      <point x="420" y="1258" type="line"/>
      <point x="892" y="1258" type="line"/>
      <point x="175" y="541" type="line"/>
      <point x="175" y="573" type="line"/>
      <point x="1128" y="577" type="line" smooth="yes"/>
      <point x="1237" y="577"/>
      <point x="1300" y="625"/>
      <point x="1300" y="713" type="curve" smooth="yes"/>
      <point x="1300" y="790"/>
      <point x="1237" y="853"/>
      <point x="1160" y="853" type="curve" smooth="yes"/>
      <point x="883" y="853" type="line"/>
      <point x="1273" y="1243" type="line" smooth="yes"/>
      <point x="1393" y="1363"/>
      <point x="1319" y="1538"/>
      <point x="1150" y="1538" type="curve" smooth="yes"/>
      <point x="262" y="1538" type="line" smooth="yes"/>
      <point x="191" y="1538"/>
      <point x="140" y="1487"/>
      <point x="140" y="1416" type="curve" smooth="yes"/>
      <point x="140" y="140" type="line" smooth="yes"/>
      <point x="140" y="63"/>
      <point x="203" y="0"/>
    </contour>
  </outline>
</glyph>
<glyph name="G" format="2">
  <advance width="1799"/>
  <unicode hex="0047"/>
  <anchor x="900" y="0" name="bottom"/>
  <anchor x="900" y="1538" name="top"/>
  <outline>
    <contour>
      <point x="900" y="-30" type="curve" smooth="yes"/>
      <point x="1338" y="-30"/>
      <point x="1693" y="319"/>
      <point x="1699" y="756" type="curve" smooth="yes"/>
      <point x="1700" y="830"/>
      <point x="1641" y="898"/>
      <point x="1559" y="898" type="curve" smooth="yes"/>
      <point x="1482" y="898"/>
      <point x="1420" y="836"/>
      <point x="1419" y="760" type="curve" smooth="yes"/>
      <point x="1415" y="438"/>
      <point x="1223" y="250"/>
      <point x="900" y="250" type="curve" smooth="yes"/>
      <point x="573" y="250"/>
      <point x="380" y="441"/>
      <point x="380" y="767" type="curve" smooth="yes"/>
      <point x="380" y="1093"/>
      <point x="573" y="1288"/>
      <point x="900" y="1288" type="curve" smooth="yes"/>
      <point x="1062" y="1288"/>
      <point x="1160" y="1243"/>
      <point x="1268" y="1134" type="curve" smooth="yes"/>
      <point x="1293" y="1109"/>
      <point x="1328" y="1093"/>
      <point x="1367" y="1093" type="curve" smooth="yes"/>
      <point x="1445" y="1093"/>
      <point x="1507" y="1155"/>
      <point x="1507" y="1233" type="curve" smooth="yes"/>
      <point x="1507" y="1271"/>
      <point x="1492" y="1306"/>
      <point x="1467" y="1331" type="curve" smooth="yes"/>
      <point x="1323" y="1477"/>
      <point x="1122" y="1568"/>
      <point x="900" y="1568" type="curve" smooth="yes"/>
      <point x="457" y="1568"/>
      <point x="100" y="1209"/>
      <point x="100" y="767" type="curve" smooth="yes"/>
      <point x="100" y="325"/>
      <point x="457" y="-30"/>
    </contour>
    <contour>
      <point x="1489" y="-54" type="curve" smooth="yes"/>
      <point x="1566" y="-54"/>
      <point x="1629" y="9"/>
      <point x="1629" y="86" type="curve" smooth="yes"/>
      <point x="1629" y="127"/>
      <point x="1611" y="165"/>
      <point x="1583" y="190" type="curve" smooth="yes"/>
      <point x="1104" y="618" type="line"/>
      <point x="1559" y="618" type="line" smooth="yes"/>
      <point x="1636" y="618"/>
      <point x="1699" y="681"/>
      <point x="1699" y="758" type="curve" smooth="yes"/>
      <point x="1699" y="835"/>
      <point x="1636" y="898"/>
      <point x="1559" y="898" type="curve" smooth="yes"/>
      <point x="842" y="898" type="line" smooth="yes"/>
      <point x="662" y="898"/>
      <point x="587" y="706"/>
      <point x="722" y="585" type="curve" smooth="yes"/>
      <point x="1395" y="-18" type="line" smooth="yes"/>
      <point x="1420" y="-40"/>
      <point x="1453" y="-54"/>
    </contour>
  </outline>
</glyph>
<glyph name="H" format="2">
  <advance width="1591"/>
  <unicode hex="0048"/>
  <anchor x="796" y="0" name="bottom"/>
  <anchor x="796" y="769" name="center"/>
  <anchor x="796" y="1538" name="top"/>
  <anchor x="20" y="1538" name="topleft"/>
  <outline>
    <contour>
      <point x="237" y="452" type="line"/>
      <point x="1354" y="452" type="line"/>
      <point x="1354" y="747" type="line"/>
      <point x="883" y="1219" type="line" smooth="yes"/>
      <point x="833" y="1270"/>
      <point x="759" y="1269"/>
      <point x="709" y="1219" type="curve" smooth="yes"/>
      <point x="237" y="747" type="line"/>
    </contour>
    <contour>
      <point x="280" y="0" type="curve" smooth="yes"/>
      <point x="357" y="0"/>
      <point x="420" y="63"/>
      <point x="420" y="140" type="curve" smooth="yes"/>
      <point x="420" y="1398" type="line" smooth="yes"/>
      <point x="420" y="1475"/>
      <point x="357" y="1538"/>
      <point x="280" y="1538" type="curve" smooth="yes"/>
      <point x="203" y="1538"/>
      <point x="140" y="1475"/>
      <point x="140" y="1398" type="curve" smooth="yes"/>
      <point x="140" y="140" type="line" smooth="yes"/>
      <point x="140" y="63"/>
      <point x="203" y="0"/>
    </contour>
    <contour>
      <point x="618" y="732" type="line"/>
      <point x="796" y="910" type="line"/>
      <point x="973" y="732" type="line"/>
    </contour>
    <contour>
      <point x="1311" y="0" type="curve" smooth="yes"/>
      <point x="1388" y="0"/>
      <point x="1451" y="63"/>
      <point x="1451" y="140" type="curve" smooth="yes"/>
      <point x="1451" y="1398" type="line" smooth="yes"/>
      <point x="1451" y="1475"/>
      <point x="1388" y="1538"/>
      <point x="1311" y="1538" type="curve" smooth="yes"/>
      <point x="1234" y="1538"/>
      <point x="1171" y="1475"/>
      <point x="1171" y="1398" type="curve" smooth="yes"/>
      <point x="1171" y="140" type="line" smooth="yes"/>
      <point x="1171" y="63"/>
      <point x="1234" y="0"/>
    </contour>
  </outline>
</glyph>
<glyph name="I" format="2">
  <advance width="1101"/>
  <unicode hex="0049"/>
  <anchor x="550" y="0" name="bottom"/>
  <anchor x="781" y="120" name="ogonek"/>
  <anchor x="550" y="1538" name="top"/>
  <anchor x="164" y="1538" name="topleft"/>
  <outline>
    <contour>
      <point x="550" y="0" type="curve" smooth="yes"/>
      <point x="627" y="0"/>
      <point x="690" y="63"/>
      <point x="690" y="140" type="curve" smooth="yes"/>
      <point x="690" y="1398" type="line" smooth="yes"/>
      <point x="690" y="1475"/>
      <point x="627" y="1538"/>
      <point x="550" y="1538" type="curve" smooth="yes"/>
      <point x="473" y="1538"/>
      <point x="410" y="1475"/>
      <point x="410" y="1398" type="curve" smooth="yes"/>
      <point x="410" y="140" type="line" smooth="yes"/>
      <point x="410" y="63"/>
      <point x="473" y="0"/>
    </contour>
    <contour>
      <point x="280" y="0" type="curve" smooth="yes"/>
      <point x="821" y="0" type="line" smooth="yes"/>
      <point x="898" y="0"/>
      <point x="961" y="63"/>
      <point x="961" y="140" type="curve" smooth="yes"/>
      <point x="961" y="217"/>
      <point x="898" y="280"/>
      <point x="821" y="280" type="curve" smooth="yes"/>
      <point x="280" y="280" type="line" smooth="yes"/>
      <point x="203" y="280"/>
      <point x="140" y="217"/>
      <point x="140" y="140" type="curve" smooth="yes"/>
      <point x="140" y="63"/>
      <point x="203" y="0"/>
    </contour>
    <contour>
      <point x="280" y="1258" type="curve" smooth="yes"/>
      <point x="821" y="1258" type="line" smooth="yes"/>
      <point x="898" y="1258"/>
      <point x="961" y="1321"/>
      <point x="961" y="1398" type="curve" smooth="yes"/>
      <point x="961" y="1475"/>
      <point x="898" y="1538"/>
      <point x="821" y="1538" type="curve" smooth="yes"/>
      <point x="280" y="1538" type="line" smooth="yes"/>
      <point x="203" y="1538"/>
      <point x="140" y="1475"/>
      <point x="140" y="1398" type="curve" smooth="yes"/>
      <point x="140" y="1321"/>
      <point x="203" y="1258"/>
    </contour>
  </outline>
</glyph>
<glyph name="J" format="2">
  <advance width="1304"/>
  <unicode hex="004A"/>
  <anchor x="630" y="0" name="bottom"/>
  <anchor x="670" y="1538" name="top"/>
  <outline>
    <contour>
      <point x="1024" y="363" type="curve" smooth="yes"/>
      <point x="1101" y="363"/>
      <point x="1164" y="426"/>
      <point x="1164" y="503" type="curve" smooth="yes"/>
      <point x="1164" y="1416" type="line" smooth="yes"/>
      <point x="1164" y="1487"/>
      <point x="1113" y="1538"/>
      <point x="1042" y="1538" type="curve" smooth="yes"/>
      <point x="329" y="1538" type="line" smooth="yes"/>
      <point x="160" y="1538"/>
      <point x="86" y="1363"/>
      <point x="206" y="1243" type="curve" smooth="yes"/>
      <point x="906" y="543" type="line" smooth="yes"/>
      <point x="931" y="518"/>
      <point x="966" y="502"/>
      <point x="1005" y="502" type="curve" smooth="yes"/>
      <point x="1082" y="502"/>
      <point x="1145" y="565"/>
      <point x="1145" y="642" type="curve" smooth="yes"/>
      <point x="1145" y="681"/>
      <point x="1129" y="716"/>
      <point x="1104" y="741" type="curve" smooth="yes"/>
      <point x="587" y="1258" type="line"/>
      <point x="884" y="1258" type="line"/>
      <point x="884" y="503" type="line" smooth="yes"/>
      <point x="884" y="426"/>
      <point x="947" y="363"/>
    </contour>
    <contour>
      <point x="632" y="-30" type="curve" smooth="yes"/>
      <point x="925" y="-30"/>
      <point x="1164" y="209"/>
      <point x="1164" y="502" type="curve" smooth="yes"/>
      <point x="1164" y="579"/>
      <point x="1101" y="642"/>
      <point x="1024" y="642" type="curve" smooth="yes"/>
      <point x="947" y="642"/>
      <point x="884" y="579"/>
      <point x="884" y="502" type="curve" smooth="yes"/>
      <point x="884" y="344"/>
      <point x="790" y="250"/>
      <point x="632" y="250" type="curve" smooth="yes"/>
      <point x="475" y="250"/>
      <point x="380" y="344"/>
      <point x="380" y="502" type="curve" smooth="yes"/>
      <point x="380" y="579"/>
      <point x="317" y="642"/>
      <point x="240" y="642" type="curve" smooth="yes"/>
      <point x="163" y="642"/>
      <point x="100" y="579"/>
      <point x="100" y="502" type="curve" smooth="yes"/>
      <point x="100" y="209"/>
      <point x="340" y="-30"/>
    </contour>
  </outline>
</glyph>
<glyph name="K" format="2">
  <advance width="1580"/>
  <unicode hex="004B"/>
  <anchor x="887" y="0" name="bottom"/>
  <anchor x="887" y="1538" name="top"/>
  <outline>
    <contour>
      <point x="280" y="0" type="curve" smooth="yes"/>
      <point x="357" y="0"/>
      <point x="420" y="63"/>
      <point x="420" y="140" type="curve" smooth="yes"/>
      <point x="420" y="1076" type="line"/>
      <point x="1263" y="49" type="line" smooth="yes"/>
      <point x="1288" y="18"/>
      <point x="1327" y="-1"/>
      <point x="1370" y="-1" type="curve" smooth="yes"/>
      <point x="1448" y="-1"/>
      <point x="1510" y="61"/>
      <point x="1510" y="139" type="curve" smooth="yes"/>
      <point x="1510" y="173"/>
      <point x="1498" y="204"/>
      <point x="1478" y="228" type="curve" smooth="yes"/>
      <point x="468" y="1461" type="line" smooth="yes"/>
      <point x="425" y="1514"/>
      <point x="370" y="1538"/>
      <point x="317" y="1538" type="curve" smooth="yes"/>
      <point x="225" y="1538"/>
      <point x="140" y="1464"/>
      <point x="140" y="1344" type="curve" smooth="yes"/>
      <point x="140" y="140" type="line" smooth="yes"/>
      <point x="140" y="63"/>
      <point x="203" y="0"/>
    </contour>
    <contour>
      <point x="308" y="279" type="curve" smooth="yes"/>
      <point x="349" y="279"/>
      <point x="386" y="297"/>
      <point x="412" y="325" type="curve" smooth="yes"/>
      <point x="1299" y="1304" type="line" smooth="yes"/>
      <point x="1321" y="1329"/>
      <point x="1335" y="1362"/>
      <point x="1335" y="1398" type="curve" smooth="yes"/>
      <point x="1335" y="1475"/>
      <point x="1272" y="1538"/>
      <point x="1195" y="1538" type="curve" smooth="yes"/>
      <point x="1154" y="1538"/>
      <point x="1116" y="1520"/>
      <point x="1091" y="1492" type="curve" smooth="yes"/>
      <point x="204" y="513" type="line" smooth="yes"/>
      <point x="182" y="488"/>
      <point x="168" y="455"/>
      <point x="168" y="419" type="curve" smooth="yes"/>
      <point x="168" y="342"/>
      <point x="231" y="279"/>
    </contour>
  </outline>
</glyph>
<glyph name="L" format="2">
  <advance width="1267"/>
  <unicode hex="004C"/>
  <anchor x="655" y="0" name="bottom"/>
  <anchor x="655" y="769" name="center"/>
  <anchor x="655" y="1538" name="top"/>
  <anchor x="1259" y="1538" name="topright"/>
  <outline>
    <contour>
      <point x="262" y="0" type="curve" smooth="yes"/>
      <point x="1045" y="0" type="line" smooth="yes"/>
      <point x="1214" y="0"/>
      <point x="1288" y="175"/>
      <point x="1168" y="295" type="curve" smooth="yes"/>
      <point x="420" y="1043" type="line" smooth="yes"/>
      <point x="395" y="1068"/>
      <point x="360" y="1084"/>
      <point x="321" y="1084" type="curve" smooth="yes"/>
      <point x="244" y="1084"/>
      <point x="181" y="1021"/>
      <point x="181" y="944" type="curve" smooth="yes"/>
      <point x="181" y="905"/>
      <point x="197" y="870"/>
      <point x="222" y="845" type="curve" smooth="yes"/>
      <point x="787" y="280" type="line"/>
      <point x="420" y="280" type="line"/>
      <point x="420" y="1398" type="line" smooth="yes"/>
      <point x="420" y="1475"/>
      <point x="357" y="1538"/>
      <point x="280" y="1538" type="curve" smooth="yes"/>
      <point x="203" y="1538"/>
      <point x="140" y="1475"/>
      <point x="140" y="1398" type="curve" smooth="yes"/>
      <point x="140" y="122" type="line" smooth="yes"/>
      <point x="140" y="51"/>
      <point x="191" y="0"/>
    </contour>
  </outline>
</glyph>
<glyph name="M" format="2">
  <advance width="1778"/>
  <unicode hex="004D"/>
  <anchor x="889" y="0" name="bottom"/>
  <anchor x="889" y="1538" name="top"/>
  <outline>
    <contour>
      <point x="1498" y="0" type="curve" smooth="yes"/>
      <point x="1575" y="0"/>
      <point x="1638" y="63"/>
      <point x="1638" y="140" type="curve" smooth="yes"/>
      <point x="1638" y="1366" type="line" smooth="yes"/>
      <point x="1638" y="1471"/>
      <point x="1566" y="1538"/>
      <point x="1483" y="1538" type="curve" smooth="yes"/>
      <point x="1444" y="1538"/>
      <point x="1403" y="1524"/>
      <point x="1365" y="1491" type="curve" smooth="yes"/>
      <point x="224" y="513" type="line" smooth="yes"/>
      <point x="194" y="487"/>
      <point x="176" y="449"/>
      <point x="176" y="407" type="curve" smooth="yes"/>
      <point x="176" y="330"/>
      <point x="238" y="267"/>
      <point x="316" y="267" type="curve" smooth="yes"/>
      <point x="351" y="267"/>
      <point x="383" y="280"/>
      <point x="407" y="301" type="curve" smooth="yes"/>
      <point x="1358" y="1117" type="line"/>
      <point x="1358" y="140" type="line" smooth="yes"/>
      <point x="1358" y="63"/>
      <point x="1421" y="0"/>
    </contour>
    <contour>
      <point x="280" y="0" type="curve" smooth="yes"/>
      <point x="357" y="0"/>
      <point x="420" y="63"/>
      <point x="420" y="140" type="curve" smooth="yes"/>
      <point x="420" y="1117" type="line"/>
      <point x="1371" y="301" type="line" smooth="yes"/>
      <point x="1395" y="280"/>
      <point x="1427" y="267"/>
      <point x="1462" y="267" type="curve" smooth="yes"/>
      <point x="1540" y="267"/>
      <point x="1602" y="330"/>
      <point x="1602" y="407" type="curve" smooth="yes"/>
      <point x="1602" y="449"/>
      <point x="1584" y="487"/>
      <point x="1554" y="513" type="curve" smooth="yes"/>
      <point x="413" y="1491" type="line" smooth="yes"/>
      <point x="375" y="1524"/>
      <point x="334" y="1538"/>
      <point x="295" y="1538" type="curve" smooth="yes"/>
      <point x="212" y="1538"/>
      <point x="140" y="1471"/>
      <point x="140" y="1366" type="curve" smooth="yes"/>
      <point x="140" y="140" type="line" smooth="yes"/>
      <point x="140" y="63"/>
      <point x="203" y="0"/>
    </contour>
  </outline>
</glyph>
<glyph name="N" format="2">
  <advance width="1615"/>
  <unicode hex="004E"/>
  <anchor x="808" y="0" name="bottom"/>
  <anchor x="808" y="1538" name="top"/>
  <outline>
    <contour>
      <point x="262" y="0" type="curve" smooth="yes"/>
      <point x="1335" y="0" type="line"/>
      <point x="1434" y="244" type="line"/>
      <point x="501" y="1448" type="line" smooth="yes"/>
      <point x="376" y="1610"/>
      <point x="140" y="1541"/>
      <point x="140" y="1336" type="curve" smooth="yes"/>
      <point x="140" y="122" type="line" smooth="yes"/>
      <point x="140" y="51"/>
      <point x="191" y="0"/>
    </contour>
    <contour>
      <point x="420" y="280" type="line"/>
      <point x="420" y="1096" type="line"/>
      <point x="1052" y="280" type="line"/>
    </contour>
    <contour>
      <point x="1335" y="0" type="curve" smooth="yes"/>
      <point x="1412" y="0"/>
      <point x="1475" y="63"/>
      <point x="1475" y="140" type="curve" smooth="yes"/>
      <point x="1475" y="1398" type="line" smooth="yes"/>
      <point x="1475" y="1475"/>
      <point x="1412" y="1538"/>
      <point x="1335" y="1538" type="curve" smooth="yes"/>
      <point x="1258" y="1538"/>
      <point x="1195" y="1475"/>
      <point x="1195" y="1398" type="curve" smooth="yes"/>
      <point x="1195" y="140" type="line" smooth="yes"/>
      <point x="1195" y="63"/>
      <point x="1258" y="0"/>
    </contour>
  </outline>
</glyph>
<glyph name="O" format="2">
  <advance width="1799"/>
  <unicode hex="004F"/>
  <anchor x="900" y="0" name="bottom"/>
  <anchor x="900" y="769" name="center"/>
  <anchor x="852" y="10" name="ogonek"/>
  <anchor x="900" y="1538" name="top"/>
  <anchor x="20" y="1538" name="topleft"/>
  <anchor x="1779" y="1538" name="topright"/>
  <outline>
    <contour>
      <point x="900" y="-30" type="curve" smooth="yes"/>
      <point x="1342" y="-30"/>
      <point x="1699" y="325"/>
      <point x="1699" y="767" type="curve" smooth="yes"/>
      <point x="1699" y="1209"/>
      <point x="1342" y="1568"/>
      <point x="900" y="1568" type="curve" smooth="yes"/>
      <point x="457" y="1568"/>
      <point x="100" y="1209"/>
      <point x="100" y="767" type="curve" smooth="yes"/>
      <point x="100" y="325"/>
      <point x="457" y="-30"/>
    </contour>
    <contour>
      <point x="900" y="250" type="curve" smooth="yes"/>
      <point x="573" y="250"/>
      <point x="380" y="441"/>
      <point x="380" y="767" type="curve" smooth="yes"/>
      <point x="380" y="1093"/>
      <point x="573" y="1288"/>
      <point x="900" y="1288" type="curve" smooth="yes"/>
      <point x="1226" y="1288"/>
      <point x="1419" y="1093"/>
      <point x="1419" y="767" type="curve" smooth="yes"/>
      <point x="1419" y="441"/>
      <point x="1226" y="250"/>
    </contour>
  </outline>
</glyph>
<glyph name="P" format="2">
  <advance width="1256"/>
  <unicode hex="0050"/>
  <anchor x="628" y="0" name="bottom"/>
  <anchor x="628" y="1538" name="top"/>
  <outline>
    <contour>
      <point x="280" y="0" type="curve" smooth="yes"/>
      <point x="357" y="0"/>
      <point x="420" y="63"/>
      <point x="420" y="140" type="curve" smooth="yes"/>
      <point x="420" y="1258" type="line"/>
      <point x="651" y="1258" type="line" smooth="yes"/>
      <point x="774" y="1258"/>
      <point x="876" y="1176"/>
      <point x="876" y="1033" type="curve" smooth="yes"/>
      <point x="876" y="889"/>
      <point x="774" y="807"/>
      <point x="651" y="807" type="curve" smooth="yes"/>
      <point x="386" y="807" type="line" smooth="yes"/>
      <point x="309" y="807"/>
      <point x="246" y="744"/>
      <point x="246" y="667" type="curve" smooth="yes"/>
      <point x="246" y="590"/>
      <point x="309" y="527"/>
      <point x="386" y="527" type="curve" smooth="yes"/>
      <point x="651" y="527" type="line" smooth="yes"/>
      <point x="930" y="527"/>
      <point x="1156" y="753"/>
      <point x="1156" y="1033" type="curve" smooth="yes"/>
      <point x="1156" y="1312"/>
      <point x="930" y="1538"/>
      <point x="651" y="1538" type="curve" smooth="yes"/>
      <point x="262" y="1538" type="line" smooth="yes"/>
      <point x="191" y="1538"/>
      <point x="140" y="1487"/>
      <point x="140" y="1416" type="curve" smooth="yes"/>
      <point x="140" y="140" type="line" smooth="yes"/>
      <point x="140" y="63"/>
      <point x="203" y="0"/>
    </contour>
  </outline>
</glyph>
<glyph name="Q" format="2">
  <advance width="1799"/>
  <unicode hex="0051"/>
  <anchor x="900" y="0" name="bottom"/>
  <anchor x="900" y="1538" name="top"/>
  <outline>
    <contour>
      <point x="900" y="-30" type="curve" smooth="yes"/>
      <point x="1342" y="-30"/>
      <point x="1699" y="325"/>
      <point x="1699" y="767" type="curve" smooth="yes"/>
      <point x="1699" y="1209"/>
      <point x="1342" y="1568"/>
      <point x="900" y="1568" type="curve" smooth="yes"/>
      <point x="457" y="1568"/>
      <point x="100" y="1209"/>
      <point x="100" y="767" type="curve" smooth="yes"/>
      <point x="100" y="325"/>
      <point x="457" y="-30"/>
    </contour>
    <contour>
      <point x="900" y="250" type="curve" smooth="yes"/>
      <point x="826" y="250"/>
      <point x="759" y="260"/>
      <point x="700" y="279" type="curve"/>
      <point x="899" y="571" type="line"/>
      <point x="1100" y="279" type="line"/>
      <point x="1041" y="260"/>
      <point x="974" y="250"/>
    </contour>
    <contour>
      <point x="471" y="441" type="line"/>
      <point x="412" y="525"/>
      <point x="380" y="635"/>
      <point x="380" y="767" type="curve" smooth="yes"/>
      <point x="380" y="1093"/>
      <point x="573" y="1288"/>
      <point x="900" y="1288" type="curve" smooth="yes"/>
      <point x="1226" y="1288"/>
      <point x="1419" y="1093"/>
      <point x="1419" y="767" type="curve" smooth="yes"/>
      <point x="1419" y="635"/>
      <point x="1387" y="526"/>
      <point x="1328" y="442" type="curve"/>
      <point x="1015" y="899" type="line" smooth="yes"/>
      <point x="955" y="986"/>
      <point x="844" y="985"/>
      <point x="784" y="898" type="curve" smooth="yes"/>
    </contour>
  </outline>
</glyph>
<glyph name="R" format="2">
  <advance width="1430"/>
  <unicode hex="0052"/>
  <anchor x="715" y="0" name="bottom"/>
  <anchor x="671" y="1538" name="top"/>
  <outline>
    <contour>
      <point x="280" y="0" type="curve" smooth="yes"/>
      <point x="357" y="0"/>
      <point x="420" y="63"/>
      <point x="420" y="140" type="curve" smooth="yes"/>
      <point x="420" y="1258" type="line"/>
      <point x="707" y="1258" type="line" smooth="yes"/>
      <point x="893" y="1258"/>
      <point x="988" y="1163"/>
      <point x="988" y="977" type="curve" smooth="yes"/>
      <point x="988" y="790"/>
      <point x="893" y="695"/>
      <point x="707" y="695" type="curve" smooth="yes"/>
      <point x="322" y="695" type="line" smooth="yes"/>
      <point x="245" y="695"/>
      <point x="182" y="632"/>
      <point x="182" y="555" type="curve" smooth="yes"/>
      <point x="182" y="478"/>
      <point x="245" y="415"/>
      <point x="322" y="415" type="curve" smooth="yes"/>
      <point x="707" y="415" type="line" smooth="yes"/>
      <point x="1017" y="415"/>
      <point x="1268" y="666"/>
      <point x="1268" y="977" type="curve" smooth="yes"/>
      <point x="1268" y="1287"/>
      <point x="1017" y="1538"/>
      <point x="707" y="1538" type="curve" smooth="yes"/>
      <point x="260" y="1538" type="line" smooth="yes"/>
      <point x="182" y="1538"/>
      <point x="140" y="1496"/>
      <point x="140" y="1418" type="curve" smooth="yes"/>
      <point x="140" y="140" type="line" smooth="yes"/>
      <point x="140" y="63"/>
      <point x="203" y="0"/>
    </contour>
    <contour>
      <point x="1190" y="0" type="curve" smooth="yes"/>
      <point x="1268" y="0"/>
      <point x="1330" y="63"/>
      <point x="1330" y="140" type="curve" smooth="yes"/>
      <point x="1330" y="170"/>
      <point x="1321" y="198"/>
      <point x="1305" y="221" type="curve" smooth="yes"/>
      <point x="456" y="1469" type="line" smooth="yes"/>
      <point x="431" y="1505"/>
      <point x="389" y="1528"/>
      <point x="341" y="1528" type="curve" smooth="yes"/>
      <point x="264" y="1528"/>
      <point x="201" y="1465"/>
      <point x="201" y="1388" type="curve" smooth="yes"/>
      <point x="201" y="1358"/>
      <point x="211" y="1331"/>
      <point x="227" y="1308" type="curve" smooth="yes"/>
      <point x="1076" y="60" type="line" smooth="yes"/>
      <point x="1101" y="24"/>
      <point x="1143" y="0"/>
    </contour>
  </outline>
</glyph>
<glyph name="S" format="2">
  <advance width="1303"/>
  <unicode hex="0053"/>
  <anchor x="653" y="0" name="bottom"/>
  <anchor x="653" y="1538" name="top"/>
  <outline>
    <contour>
      <point x="190" y="0" type="curve" smooth="yes"/>
      <point x="997" y="0" type="line" smooth="yes"/>
      <point x="1187" y="0"/>
      <point x="1262" y="209"/>
      <point x="1114" y="331" type="curve" smooth="yes"/>
      <point x="482" y="852" type="line" smooth="yes"/>
      <point x="416" y="906"/>
      <point x="401" y="950"/>
      <point x="401" y="1014" type="curve" smooth="yes"/>
      <point x="401" y="1168"/>
      <point x="491" y="1258"/>
      <point x="645" y="1258" type="curve" smooth="yes"/>
      <point x="792" y="1258" type="line"/>
      <point x="422" y="895" type="line" smooth="yes"/>
      <point x="397" y="870"/>
      <point x="381" y="835"/>
      <point x="381" y="796" type="curve" smooth="yes"/>
      <point x="381" y="719"/>
      <point x="444" y="656"/>
      <point x="521" y="656" type="curve" smooth="yes"/>
      <point x="559" y="656"/>
      <point x="594" y="671"/>
      <point x="619" y="696" type="curve" smooth="yes"/>
      <point x="1173" y="1243" type="line" smooth="yes"/>
      <point x="1294" y="1362"/>
      <point x="1220" y="1538"/>
      <point x="1051" y="1538" type="curve" smooth="yes"/>
      <point x="645" y="1538" type="line" smooth="yes"/>
      <point x="356" y="1538"/>
      <point x="121" y="1303"/>
      <point x="121" y="1014" type="curve" smooth="yes"/>
      <point x="121" y="894"/>
      <point x="172" y="746"/>
      <point x="306" y="634" type="curve" smooth="yes"/>
      <point x="731" y="280" type="line"/>
      <point x="190" y="280" type="line" smooth="yes"/>
      <point x="113" y="280"/>
      <point x="50" y="217"/>
      <point x="50" y="140" type="curve" smooth="yes"/>
      <point x="50" y="63"/>
      <point x="113" y="0"/>
    </contour>
  </outline>
</glyph>
<glyph name="T" format="2">
  <advance width="1488"/>
  <unicode hex="0054"/>
  <anchor x="744" y="0" name="bottom"/>
  <anchor x="772" y="769" name="center"/>
  <anchor x="744" y="1538" name="top"/>
  <outline>
    <contour>
      <point x="210" y="846" type="curve" smooth="yes"/>
      <point x="242" y="846"/>
      <point x="271" y="857"/>
      <point x="295" y="875" type="curve" smooth="yes"/>
      <point x="744" y="1215" type="line"/>
      <point x="1193" y="875" type="line" smooth="yes"/>
      <point x="1217" y="857"/>
      <point x="1246" y="846"/>
      <point x="1278" y="846" type="curve" smooth="yes"/>
      <point x="1356" y="846"/>
      <point x="1418" y="909"/>
      <point x="1418" y="986" type="curve" smooth="yes"/>
      <point x="1418" y="1031"/>
      <point x="1398" y="1072"/>
      <point x="1364" y="1097" type="curve" smooth="yes"/>
      <point x="812" y="1514" type="line" smooth="yes"/>
      <point x="770" y="1546"/>
      <point x="718" y="1546"/>
      <point x="676" y="1514" type="curve" smooth="yes"/>
      <point x="124" y="1097" type="line" smooth="yes"/>
      <point x="90" y="1072"/>
      <point x="70" y="1031"/>
      <point x="70" y="986" type="curve" smooth="yes"/>
      <point x="70" y="909"/>
      <point x="132" y="846"/>
    </contour>
    <contour>
      <point x="744" y="0" type="curve" smooth="yes"/>
      <point x="821" y="0"/>
      <point x="884" y="63"/>
      <point x="884" y="140" type="curve" smooth="yes"/>
      <point x="884" y="1378" type="line" smooth="yes"/>
      <point x="884" y="1455"/>
      <point x="821" y="1518"/>
      <point x="744" y="1518" type="curve" smooth="yes"/>
      <point x="667" y="1518"/>
      <point x="604" y="1455"/>
      <point x="604" y="1378" type="curve" smooth="yes"/>
      <point x="604" y="140" type="line" smooth="yes"/>
      <point x="604" y="63"/>
      <point x="667" y="0"/>
    </contour>
  </outline>
</glyph>
<glyph name="U" format="2">
  <advance width="1589"/>
  <unicode hex="0055"/>
  <anchor x="796" y="0" name="bottom"/>
  <anchor x="860" y="69" name="ogonek"/>
  <anchor x="796" y="1538" name="top"/>
  <anchor x="1452" y="1538" name="topright"/>
  <outline>
    <contour>
      <point x="795" y="-31" type="curve" smooth="yes"/>
      <point x="1154" y="-31"/>
      <point x="1449" y="240"/>
      <point x="1449" y="603" type="curve" smooth="yes"/>
      <point x="1449" y="1398" type="line" smooth="yes"/>
      <point x="1449" y="1475"/>
      <point x="1386" y="1538"/>
      <point x="1309" y="1538" type="curve" smooth="yes"/>
      <point x="1232" y="1538"/>
      <point x="1169" y="1475"/>
      <point x="1169" y="1398" type="curve" smooth="yes"/>
      <point x="1169" y="603" type="line" smooth="yes"/>
      <point x="1169" y="381"/>
      <point x="1025" y="249"/>
      <point x="795" y="249" type="curve" smooth="yes"/>
      <point x="564" y="249"/>
      <point x="420" y="381"/>
      <point x="420" y="603" type="curve" smooth="yes"/>
      <point x="420" y="1398" type="line" smooth="yes"/>
      <point x="420" y="1475"/>
      <point x="357" y="1538"/>
      <point x="280" y="1538" type="curve" smooth="yes"/>
      <point x="203" y="1538"/>
      <point x="140" y="1475"/>
      <point x="140" y="1398" type="curve" smooth="yes"/>
      <point x="140" y="603" type="line" smooth="yes"/>
      <point x="140" y="240"/>
      <point x="435" y="-31"/>
    </contour>
  </outline>
</glyph>
<glyph name="V" format="2">
  <advance width="1598"/>
  <unicode hex="0056"/>
  <anchor x="798" y="0" name="_bottom"/>
  <anchor x="798" y="1538" name="top"/>
  <outline>
    <contour>
      <point x="1291" y="1458" type="curve" smooth="yes"/>
      <point x="798" y="416" type="line"/>
      <point x="307" y="1458" type="line" smooth="yes"/>
      <point x="285" y="1505"/>
      <point x="236" y="1538"/>
      <point x="180" y="1538" type="curve" smooth="yes"/>
      <point x="103" y="1538"/>
      <point x="40" y="1475"/>
      <point x="40" y="1398" type="curve" smooth="yes"/>
      <point x="40" y="1377"/>
      <point x="45" y="1356"/>
      <point x="54" y="1338" type="curve" smooth="yes"/>
      <point x="651" y="73" type="line" smooth="yes"/>
      <point x="684" y="4"/>
      <point x="741" y="-30"/>
      <point x="799" y="-30" type="curve" smooth="yes"/>
      <point x="856" y="-30"/>
      <point x="913" y="4"/>
      <point x="946" y="73" type="curve" smooth="yes"/>
      <point x="1544" y="1338" type="line" smooth="yes"/>
      <point x="1553" y="1356"/>
      <point x="1558" y="1377"/>
      <point x="1558" y="1398" type="curve" smooth="yes"/>
      <point x="1558" y="1475"/>
      <point x="1495" y="1538"/>
      <point x="1418" y="1538" type="curve" smooth="yes"/>
      <point x="1362" y="1538"/>
      <point x="1313" y="1505"/>
    </contour>
  </outline>
</glyph>
<glyph name="X" format="2">
  <advance width="1443"/>
  <unicode hex="0058"/>
  <anchor x="718" y="0" name="bottom"/>
  <anchor x="718" y="1538" name="top"/>
  <outline>
    <contour>
      <point x="68" y="1398" type="curve" smooth="yes"/>
      <point x="68" y="1360"/>
      <point x="85" y="1327"/>
      <point x="112" y="1296" type="curve" smooth="yes"/>
      <point x="534" y="807" type="line"/>
      <point x="91" y="292" type="line" smooth="yes"/>
      <point x="-12" y="172"/>
      <point x="47" y="0"/>
      <point x="214" y="0" type="curve" smooth="yes"/>
      <point x="1226" y="0" type="line" smooth="yes"/>
      <point x="1393" y="0"/>
      <point x="1458" y="165"/>
      <point x="1349" y="292" type="curve" smooth="yes"/>
      <point x="903" y="808" type="line"/>
      <point x="1325" y="1300" type="line" smooth="yes"/>
      <point x="1347" y="1326"/>
      <point x="1365" y="1360"/>
      <point x="1365" y="1398" type="curve" smooth="yes"/>
      <point x="1365" y="1475"/>
      <point x="1303" y="1538"/>
      <point x="1225" y="1538" type="curve" smooth="yes"/>
      <point x="1188" y="1538"/>
      <point x="1151" y="1526"/>
      <point x="1129" y="1500" type="curve" smooth="yes"/>
      <point x="718" y="1022" type="line"/>
      <point x="308" y="1496" type="line" smooth="yes"/>
      <point x="284" y="1523"/>
      <point x="247" y="1538"/>
      <point x="208" y="1538" type="curve" smooth="yes"/>
      <point x="130" y="1538"/>
      <point x="68" y="1475"/>
    </contour>
    <contour>
      <point x="450" y="280" type="line"/>
      <point x="719" y="593" type="line"/>
      <point x="989" y="280" type="line"/>
    </contour>
  </outline>
</glyph>
<glyph name="Y" format="2">
  <advance width="1714"/>
  <unicode hex="0059"/>
  <anchor x="857" y="0" name="bottom"/>
  <anchor x="857" y="1538" name="top"/>
  <anchor x="857" y="1538" name="topleft"/>
  <outline>
    <contour>
      <point x="857" y="386" type="line"/>
      <point x="1625" y="1262" type="line" smooth="yes"/>
      <point x="1729" y="1381"/>
      <point x="1657" y="1538"/>
      <point x="1500" y="1538" type="curve" smooth="yes"/>
      <point x="214" y="1538" type="line" smooth="yes"/>
      <point x="57" y="1538"/>
      <point x="-15" y="1381"/>
      <point x="89" y="1262" type="curve" smooth="yes"/>
    </contour>
    <contour>
      <point x="857" y="0" type="curve" smooth="yes"/>
      <point x="934" y="0"/>
      <point x="997" y="63"/>
      <point x="997" y="140" type="curve" smooth="yes"/>
      <point x="997" y="626" type="line" smooth="yes"/>
      <point x="997" y="703"/>
      <point x="934" y="766"/>
      <point x="857" y="766" type="curve" smooth="yes"/>
      <point x="780" y="766"/>
      <point x="717" y="703"/>
      <point x="717" y="626" type="curve" smooth="yes"/>
      <point x="717" y="140" type="line" smooth="yes"/>
      <point x="717" y="63"/>
      <point x="780" y="0"/>
    </contour>
    <contour>
      <point x="857" y="810" type="line"/>
      <point x="465" y="1258" type="line"/>
      <point x="1249" y="1258" type="line"/>
    </contour>
  </outline>
</glyph>
<glyph name="Z" format="2">
  <advance width="1394"/>
  <unicode hex="005A"/>
  <anchor x="666" y="0" name="bottom"/>
  <anchor x="666" y="769" name="center"/>
  <anchor x="666" y="1538" name="top"/>
  <outline>
    <contour>
      <point x="228" y="0" type="curve" smooth="yes"/>
      <point x="1214" y="0" type="line" smooth="yes"/>
      <point x="1291" y="0"/>
      <point x="1354" y="63"/>
      <point x="1354" y="140" type="curve" smooth="yes"/>
      <point x="1354" y="217"/>
      <point x="1291" y="280"/>
      <point x="1214" y="280" type="curve" smooth="yes"/>
      <point x="473" y="280" type="line"/>
      <point x="1268" y="1275" type="line" smooth="yes"/>
      <point x="1361" y="1392"/>
      <point x="1291" y="1538"/>
      <point x="1142" y="1538" type="curve" smooth="yes"/>
      <point x="208" y="1538" type="line" smooth="yes"/>
      <point x="59" y="1538"/>
      <point x="-11" y="1392"/>
      <point x="82" y="1275" type="curve" smooth="yes"/>
      <point x="510" y="740" type="line"/>
      <point x="102" y="263" type="line"/>
      <point x="9" y="146"/>
      <point x="79" y="0"/>
    </contour>
    <contour>
      <point x="675" y="981" type="line"/>
      <point x="453" y="1258" type="line"/>
      <point x="897" y="1258" type="line"/>
    </contour>
  </outline>
</glyph>
<glyph name="bracketleft" format="2">
  <advance width="845"/>
  <unicode hex="005B"/>
  <outline>
    <contour>
      <point x="222" y="-170" type="curve" smooth="yes"/>
      <point x="535" y="-170" type="line" smooth="yes"/>
      <point x="612" y="-170"/>
      <point x="675" y="-107"/>
      <point x="675" y="-30" type="curve" smooth="yes"/>
      <point x="675" y="47"/>
      <point x="612" y="110"/>
      <point x="535" y="110" type="curve" smooth="yes"/>
      <point x="380" y="110" type="line"/>
      <point x="380" y="1428" type="line"/>
      <point x="535" y="1428" type="line" smooth="yes"/>
      <point x="612" y="1428"/>
      <point x="675" y="1491"/>
      <point x="675" y="1568" type="curve" smooth="yes"/>
      <point x="675" y="1645"/>
      <point x="612" y="1708"/>
      <point x="535" y="1708" type="curve" smooth="yes"/>
      <point x="222" y="1708" type="line" smooth="yes"/>
      <point x="151" y="1708"/>
      <point x="100" y="1657"/>
      <point x="100" y="1586" type="curve" smooth="yes"/>
      <point x="100" y="-48" type="line" smooth="yes"/>
      <point x="100" y="-119"/>
      <point x="151" y="-170"/>
    </contour>
  </outline>
</glyph>
<glyph name="asciicircum" format="2">
  <advance width="1450"/>
  <unicode hex="005E"/>
  <outline>
    <contour>
      <point x="415" y="596" type="curve" smooth="yes"/>
      <point x="471" y="596"/>
      <point x="519" y="628"/>
      <point x="541" y="675" type="curve" smooth="yes"/>
      <point x="725" y="1057" type="line"/>
      <point x="909" y="675" type="line" smooth="yes"/>
      <point x="931" y="628"/>
      <point x="979" y="596"/>
      <point x="1035" y="596" type="curve" smooth="yes"/>
      <point x="1112" y="596"/>
      <point x="1175" y="659"/>
      <point x="1175" y="736" type="curve" smooth="yes"/>
      <point x="1175" y="758"/>
      <point x="1170" y="778"/>
      <point x="1161" y="797" type="curve" smooth="yes"/>
      <point x="871" y="1399" type="line" smooth="yes"/>
      <point x="806" y="1534"/>
      <point x="644" y="1534"/>
      <point x="579" y="1399" type="curve" smooth="yes"/>
      <point x="289" y="797" type="line" smooth="yes"/>
      <point x="280" y="778"/>
      <point x="275" y="758"/>
      <point x="275" y="736" type="curve" smooth="yes"/>
      <point x="275" y="659"/>
      <point x="338" y="596"/>
    </contour>
  </outline>
</glyph>
<glyph name="underscore" format="2">
  <advance width="995"/>
  <unicode hex="005F"/>
  <outline>
    <contour>
      <point x="160" y="-170" type="curve" smooth="yes"/>
      <point x="835" y="-170" type="line" smooth="yes"/>
      <point x="912" y="-170"/>
      <point x="975" y="-107"/>
      <point x="975" y="-30" type="curve" smooth="yes"/>
      <point x="975" y="47"/>
      <point x="912" y="110"/>
      <point x="835" y="110" type="curve" smooth="yes"/>
      <point x="160" y="110" type="line" smooth="yes"/>
      <point x="83" y="110"/>
      <point x="20" y="47"/>
      <point x="20" y="-30" type="curve" smooth="yes"/>
      <point x="20" y="-107"/>
      <point x="83" y="-170"/>
    </contour>
  </outline>
</glyph>
<glyph name="braceleft" format="2">
  <advance width="785"/>
  <unicode hex="007B"/>
  <outline>
    <contour>
      <point x="240" y="685" type="curve" smooth="yes"/>
      <point x="314" y="685"/>
      <point x="615" y="734"/>
      <point x="615" y="955" type="curve" smooth="yes"/>
      <point x="615" y="1580" type="line" smooth="yes"/>
      <point x="615" y="1657"/>
      <point x="552" y="1720"/>
      <point x="475" y="1720" type="curve" smooth="yes"/>
      <point x="398" y="1720"/>
      <point x="335" y="1657"/>
      <point x="335" y="1580" type="curve" smooth="yes"/>
      <point x="335" y="955" type="line" smooth="yes"/>
      <point x="335" y="915"/>
      <point x="335" y="915"/>
      <point x="240" y="915" type="curve" smooth="yes"/>
      <point x="163" y="915"/>
      <point x="100" y="852"/>
      <point x="100" y="775" type="curve" smooth="yes"/>
      <point x="100" y="698"/>
      <point x="163" y="685"/>
    </contour>
    <contour>
      <point x="475" y="-170" type="curve" smooth="yes"/>
      <point x="552" y="-170"/>
      <point x="615" y="-107"/>
      <point x="615" y="-30" type="curve" smooth="yes"/>
      <point x="615" y="595" type="line" smooth="yes"/>
      <point x="615" y="816"/>
      <point x="314" y="865"/>
      <point x="240" y="865" type="curve" smooth="yes"/>
      <point x="163" y="865"/>
      <point x="100" y="852"/>
      <point x="100" y="775" type="curve" smooth="yes"/>
      <point x="100" y="698"/>
      <point x="163" y="635"/>
      <point x="240" y="635" type="curve" smooth="yes"/>
      <point x="335" y="635"/>
      <point x="335" y="635"/>
      <point x="335" y="595" type="curve" smooth="yes"/>
      <point x="335" y="-30" type="line" smooth="yes"/>
      <point x="335" y="-107"/>
      <point x="398" y="-170"/>
    </contour>
  </outline>
</glyph>
<glyph name="bar" format="2">
  <advance width="500"/>
  <unicode hex="007C"/>
  <outline>
    <contour>
      <point x="250" y="-458" type="curve" smooth="yes"/>
      <point x="327" y="-458"/>
      <point x="390" y="-395"/>
      <point x="390" y="-318" type="curve" smooth="yes"/>
      <point x="390" y="1575" type="line" smooth="yes"/>
      <point x="390" y="1652"/>
      <point x="327" y="1715"/>
      <point x="250" y="1715" type="curve" smooth="yes"/>
      <point x="173" y="1715"/>
      <point x="110" y="1652"/>
      <point x="110" y="1575" type="curve" smooth="yes"/>
      <point x="110" y="-318" type="line" smooth="yes"/>
      <point x="110" y="-395"/>
      <point x="173" y="-458"/>
    </contour>
  </outline>
</glyph>
<glyph name="asciitilde" format="2">
  <advance width="1450"/>
  <unicode hex="007E"/>
  <outline>
    <contour>
      <point x="968" y="378" type="curve" smooth="yes"/>
      <point x="1190" y="378"/>
      <point x="1365" y="529"/>
      <point x="1340" y="805" type="curve" smooth="yes"/>
      <point x="1334" y="877"/>
      <point x="1274" y="933"/>
      <point x="1201" y="933" type="curve" smooth="yes"/>
      <point x="1116" y="933"/>
      <point x="1055" y="860"/>
      <point x="1062" y="781" type="curve" smooth="yes"/>
      <point x="1070" y="684"/>
      <point x="1062" y="649"/>
      <point x="994" y="649" type="curve" smooth="yes"/>
      <point x="948" y="649"/>
      <point x="906" y="667"/>
      <point x="835" y="763" type="curve" smooth="yes"/>
      <point x="742" y="889"/>
      <point x="645" y="992"/>
      <point x="454" y="992" type="curve" smooth="yes"/>
      <point x="206" y="992"/>
      <point x="56" y="754"/>
      <point x="124" y="500" type="curve" smooth="yes"/>
      <point x="140" y="440"/>
      <point x="194" y="396"/>
      <point x="259" y="396" type="curve" smooth="yes"/>
      <point x="336" y="396"/>
      <point x="399" y="459"/>
      <point x="399" y="536" type="curve" smooth="yes"/>
      <point x="399" y="621"/>
      <point x="348" y="712"/>
      <point x="454" y="712" type="curve" smooth="yes"/>
      <point x="526" y="712"/>
      <point x="546" y="684"/>
      <point x="608" y="599" type="curve" smooth="yes"/>
      <point x="699" y="473"/>
      <point x="791" y="378"/>
    </contour>
  </outline>
</glyph>
<glyph name="cent" format="2">
  <advance width="1295"/>
  <unicode hex="00A2"/>
  <outline>
    <contour>
      <point x="722" y="-159" type="curve" smooth="yes"/>
      <point x="895" y="-159"/>
      <point x="1053" y="-92"/>
      <point x="1168" y="17" type="curve" smooth="yes"/>
      <point x="1195" y="43"/>
      <point x="1212" y="79"/>
      <point x="1212" y="119" type="curve" smooth="yes"/>
      <point x="1212" y="196"/>
      <point x="1149" y="259"/>
      <point x="1072" y="259" type="curve" smooth="yes"/>
      <point x="1035" y="259"/>
      <point x="1001" y="244"/>
      <point x="976" y="221" type="curve" smooth="yes"/>
      <point x="903" y="152"/>
      <point x="830" y="121"/>
      <point x="722" y="121" type="curve" smooth="yes"/>
      <point x="496" y="121"/>
      <point x="350" y="266"/>
      <point x="350" y="491" type="curve" smooth="yes"/>
      <point x="350" y="716"/>
      <point x="496" y="864"/>
      <point x="722" y="864" type="curve" smooth="yes"/>
      <point x="834" y="864"/>
      <point x="911" y="828"/>
      <point x="985" y="754" type="curve" smooth="yes"/>
      <point x="1011" y="728"/>
      <point x="1046" y="712"/>
      <point x="1085" y="712" type="curve" smooth="yes"/>
      <point x="1162" y="712"/>
      <point x="1225" y="775"/>
      <point x="1225" y="852" type="curve" smooth="yes"/>
      <point x="1225" y="890"/>
      <point x="1210" y="925"/>
      <point x="1185" y="950" type="curve" smooth="yes"/>
      <point x="1068" y="1068"/>
      <point x="903" y="1144"/>
      <point x="722" y="1144" type="curve" smooth="yes"/>
      <point x="360" y="1144"/>
      <point x="70" y="851"/>
      <point x="70" y="491" type="curve" smooth="yes"/>
      <point x="70" y="131"/>
      <point x="361" y="-159"/>
    </contour>
    <contour>
      <point x="719" y="-421" type="curve" smooth="yes"/>
      <point x="796" y="-421"/>
      <point x="858" y="-359"/>
      <point x="859" y="-283" type="curve" smooth="yes"/>
      <point x="862" y="-21" type="line" smooth="yes"/>
      <point x="863" y="54"/>
      <point x="804" y="121"/>
      <point x="722" y="121" type="curve" smooth="yes"/>
      <point x="645" y="121"/>
      <point x="583" y="59"/>
      <point x="582" y="-17" type="curve" smooth="yes"/>
      <point x="579" y="-279" type="line" smooth="yes"/>
      <point x="578" y="-354"/>
      <point x="637" y="-421"/>
    </contour>
    <contour>
      <point x="719" y="864" type="curve" smooth="yes"/>
      <point x="796" y="864"/>
      <point x="859" y="927"/>
      <point x="859" y="1004" type="curve" smooth="yes"/>
      <point x="859" y="1294" type="line" smooth="yes"/>
      <point x="859" y="1371"/>
      <point x="796" y="1434"/>
      <point x="719" y="1434" type="curve" smooth="yes"/>
      <point x="642" y="1434"/>
      <point x="579" y="1371"/>
      <point x="579" y="1294" type="curve" smooth="yes"/>
      <point x="579" y="1004" type="line" smooth="yes"/>
      <point x="579" y="927"/>
      <point x="642" y="864"/>
    </contour>
  </outline>
</glyph>
<glyph name="sterling" format="2">
  <advance width="1555"/>
  <unicode hex="00A3"/>
  <outline>
    <contour>
      <point x="412" y="-199" type="curve" smooth="yes"/>
      <point x="718" y="-199"/>
      <point x="879" y="99"/>
      <point x="879" y="395" type="curve" smooth="yes"/>
      <point x="879" y="1037"/>
      <point x="560" y="943"/>
      <point x="560" y="1196" type="curve" smooth="yes"/>
      <point x="560" y="1328"/>
      <point x="606" y="1376"/>
      <point x="732" y="1376" type="curve" smooth="yes"/>
      <point x="858" y="1376"/>
      <point x="921" y="1312"/>
      <point x="921" y="1180" type="curve"/>
      <point x="928" y="1332" type="line"/>
      <point x="443" y="1332" type="line" smooth="yes"/>
      <point x="366" y="1332"/>
      <point x="303" y="1269"/>
      <point x="303" y="1192" type="curve" smooth="yes"/>
      <point x="303" y="1115"/>
      <point x="366" y="1052"/>
      <point x="443" y="1052" type="curve" smooth="yes"/>
      <point x="1083" y="1052" type="line" smooth="yes"/>
      <point x="1150" y="1052"/>
      <point x="1201" y="1104"/>
      <point x="1201" y="1180" type="curve" smooth="yes"/>
      <point x="1201" y="1443"/>
      <point x="990" y="1656"/>
      <point x="732" y="1656" type="curve" smooth="yes"/>
      <point x="473" y="1656"/>
      <point x="280" y="1457"/>
      <point x="280" y="1196" type="curve" smooth="yes"/>
      <point x="280" y="725"/>
      <point x="599" y="739"/>
      <point x="599" y="395" type="curve" smooth="yes"/>
      <point x="599" y="229"/>
      <point x="547" y="81"/>
      <point x="412" y="81" type="curve" smooth="yes"/>
      <point x="351" y="81"/>
      <point x="330" y="122"/>
      <point x="330" y="163" type="curve" smooth="yes"/>
      <point x="330" y="204"/>
      <point x="351" y="245"/>
      <point x="412" y="245" type="curve" smooth="yes"/>
      <point x="512" y="245"/>
      <point x="580" y="145"/>
      <point x="680" y="55" type="curve" smooth="yes"/>
      <point x="769" y="-26"/>
      <point x="910" y="-148"/>
      <point x="1100" y="-145" type="curve" smooth="yes"/>
      <point x="1361" y="-141"/>
      <point x="1505" y="17"/>
      <point x="1505" y="453" type="curve" smooth="yes"/>
      <point x="1505" y="530"/>
      <point x="1442" y="593"/>
      <point x="1365" y="593" type="curve" smooth="yes"/>
      <point x="1288" y="593"/>
      <point x="1225" y="530"/>
      <point x="1225" y="453" type="curve" smooth="yes"/>
      <point x="1225" y="144"/>
      <point x="1191" y="135"/>
      <point x="1095" y="135" type="curve" smooth="yes"/>
      <point x="1014" y="135"/>
      <point x="952" y="186"/>
      <point x="868" y="262" type="curve" smooth="yes"/>
      <point x="760" y="360"/>
      <point x="641" y="525"/>
      <point x="412" y="525" type="curve" smooth="yes"/>
      <point x="212" y="525"/>
      <point x="50" y="363"/>
      <point x="50" y="163" type="curve" smooth="yes"/>
      <point x="50" y="-37"/>
      <point x="212" y="-199"/>
    </contour>
    <contour>
      <point x="213" y="569" type="curve" smooth="yes"/>
      <point x="956" y="569" type="line" smooth="yes"/>
      <point x="1033" y="569"/>
      <point x="1096" y="632"/>
      <point x="1096" y="709" type="curve" smooth="yes"/>
      <point x="1096" y="786"/>
      <point x="1033" y="849"/>
      <point x="956" y="849" type="curve" smooth="yes"/>
      <point x="213" y="849" type="line" smooth="yes"/>
      <point x="136" y="849"/>
      <point x="73" y="786"/>
      <point x="73" y="709" type="curve" smooth="yes"/>
      <point x="73" y="632"/>
      <point x="136" y="569"/>
    </contour>
  </outline>
</glyph>
<glyph name="currency" format="2">
  <advance width="1240"/>
  <unicode hex="00A4"/>
  <outline>
    <contour>
      <point x="244" y="300" type="curve" smooth="yes"/>
      <point x="453" y="93"/>
      <point x="787" y="93"/>
      <point x="996" y="300" type="curve" smooth="yes"/>
      <point x="1203" y="509"/>
      <point x="1203" y="843"/>
      <point x="996" y="1052" type="curve" smooth="yes"/>
      <point x="787" y="1259"/>
      <point x="453" y="1259"/>
      <point x="244" y="1052" type="curve" smooth="yes"/>
      <point x="37" y="843"/>
      <point x="37" y="509"/>
    </contour>
    <contour>
      <point x="214" y="126" type="curve" smooth="yes"/>
      <point x="253" y="126"/>
      <point x="288" y="142"/>
      <point x="313" y="167" type="curve" smooth="yes"/>
      <point x="442" y="296" type="line" smooth="yes"/>
      <point x="467" y="321"/>
      <point x="483" y="356"/>
      <point x="483" y="395" type="curve" smooth="yes"/>
      <point x="483" y="472"/>
      <point x="420" y="535"/>
      <point x="343" y="535" type="curve" smooth="yes"/>
      <point x="304" y="535"/>
      <point x="269" y="519"/>
      <point x="244" y="494" type="curve" smooth="yes"/>
      <point x="115" y="365" type="line" smooth="yes"/>
      <point x="90" y="340"/>
      <point x="74" y="305"/>
      <point x="74" y="266" type="curve" smooth="yes"/>
      <point x="74" y="189"/>
      <point x="137" y="126"/>
    </contour>
    <contour>
      <point x="1026" y="126" type="curve" smooth="yes"/>
      <point x="1103" y="126"/>
      <point x="1166" y="189"/>
      <point x="1166" y="266" type="curve" smooth="yes"/>
      <point x="1166" y="305"/>
      <point x="1150" y="340"/>
      <point x="1125" y="365" type="curve" smooth="yes"/>
      <point x="996" y="494" type="line" smooth="yes"/>
      <point x="971" y="519"/>
      <point x="936" y="535"/>
      <point x="897" y="535" type="curve" smooth="yes"/>
      <point x="820" y="535"/>
      <point x="757" y="472"/>
      <point x="757" y="395" type="curve" smooth="yes"/>
      <point x="757" y="356"/>
      <point x="773" y="321"/>
      <point x="798" y="296" type="curve" smooth="yes"/>
      <point x="927" y="167" type="line" smooth="yes"/>
      <point x="952" y="142"/>
      <point x="987" y="126"/>
    </contour>
    <contour>
      <point x="339" y="813" type="curve" smooth="yes"/>
      <point x="416" y="813"/>
      <point x="479" y="876"/>
      <point x="479" y="953" type="curve" smooth="yes"/>
      <point x="479" y="992"/>
      <point x="463" y="1027"/>
      <point x="438" y="1052" type="curve" smooth="yes"/>
      <point x="309" y="1181" type="line" smooth="yes"/>
      <point x="284" y="1206"/>
      <point x="249" y="1222"/>
      <point x="210" y="1222" type="curve" smooth="yes"/>
      <point x="133" y="1222"/>
      <point x="70" y="1159"/>
      <point x="70" y="1082" type="curve" smooth="yes"/>
      <point x="70" y="1043"/>
      <point x="86" y="1008"/>
      <point x="111" y="983" type="curve" smooth="yes"/>
      <point x="240" y="854" type="line" smooth="yes"/>
      <point x="265" y="829"/>
      <point x="300" y="813"/>
    </contour>
    <contour>
      <point x="442" y="498" type="curve" smooth="yes"/>
      <point x="330" y="611"/>
      <point x="330" y="741"/>
      <point x="442" y="854" type="curve" smooth="yes"/>
      <point x="555" y="966"/>
      <point x="685" y="966"/>
      <point x="798" y="854" type="curve" smooth="yes"/>
      <point x="910" y="741"/>
      <point x="910" y="611"/>
      <point x="798" y="498" type="curve" smooth="yes"/>
      <point x="685" y="386"/>
      <point x="555" y="386"/>
    </contour>
    <contour>
      <point x="901" y="813" type="curve" smooth="yes"/>
      <point x="940" y="813"/>
      <point x="975" y="829"/>
      <point x="1000" y="854" type="curve" smooth="yes"/>
      <point x="1129" y="983" type="line" smooth="yes"/>
      <point x="1154" y="1008"/>
      <point x="1170" y="1043"/>
      <point x="1170" y="1082" type="curve" smooth="yes"/>
      <point x="1170" y="1159"/>
      <point x="1107" y="1222"/>
      <point x="1030" y="1222" type="curve" smooth="yes"/>
      <point x="991" y="1222"/>
      <point x="956" y="1206"/>
      <point x="931" y="1181" type="curve" smooth="yes"/>
      <point x="802" y="1052" type="line" smooth="yes"/>
      <point x="777" y="1027"/>
      <point x="761" y="992"/>
      <point x="761" y="953" type="curve" smooth="yes"/>
      <point x="761" y="876"/>
      <point x="824" y="813"/>
    </contour>
  </outline>
</glyph>
<glyph name="yen" format="2">
  <advance width="1714"/>
  <unicode hex="00A5"/>
  <anchor x="857" y="0" name="bottom"/>
  <anchor x="857" y="1538" name="top"/>
  <anchor x="857" y="1538" name="topleft"/>
  <outline>
    <contour>
      <point x="486" y="517" type="curve" smooth="yes"/>
      <point x="1229" y="517" type="line" smooth="yes"/>
      <point x="1306" y="517"/>
      <point x="1369" y="580"/>
      <point x="1369" y="657" type="curve" smooth="yes"/>
      <point x="1369" y="734"/>
      <point x="1306" y="797"/>
      <point x="1229" y="797" type="curve" smooth="yes"/>
      <point x="486" y="797" type="line" smooth="yes"/>
      <point x="409" y="797"/>
      <point x="346" y="734"/>
      <point x="346" y="657" type="curve" smooth="yes"/>
      <point x="346" y="580"/>
      <point x="409" y="517"/>
    </contour>
    <contour>
      <point x="486" y="186" type="curve" smooth="yes"/>
      <point x="1229" y="186" type="line" smooth="yes"/>
      <point x="1306" y="186"/>
      <point x="1369" y="249"/>
      <point x="1369" y="326" type="curve" smooth="yes"/>
      <point x="1369" y="403"/>
      <point x="1306" y="466"/>
      <point x="1229" y="466" type="curve" smooth="yes"/>
      <point x="486" y="466" type="line" smooth="yes"/>
      <point x="409" y="466"/>
      <point x="346" y="403"/>
      <point x="346" y="326" type="curve" smooth="yes"/>
      <point x="346" y="249"/>
      <point x="409" y="186"/>
    </contour>
    <component base="Y"/>
  </outline>
</glyph>
<glyph name="brokenbar" format="2">
  <advance width="530"/>
  <unicode hex="00A6"/>
  <outline>
    <contour>
      <point x="250" y="691" type="curve" smooth="yes"/>
      <point x="327" y="691"/>
      <point x="390" y="754"/>
      <point x="390" y="831" type="curve" smooth="yes"/>
      <point x="390" y="1575" type="line" smooth="yes"/>
      <point x="390" y="1652"/>
      <point x="327" y="1715"/>
      <point x="250" y="1715" type="curve" smooth="yes"/>
      <point x="173" y="1715"/>
      <point x="110" y="1652"/>
      <point x="110" y="1575" type="curve" smooth="yes"/>
      <point x="110" y="831" type="line" smooth="yes"/>
      <point x="110" y="754"/>
      <point x="173" y="691"/>
    </contour>
    <contour>
      <point x="250" y="-458" type="curve" smooth="yes"/>
      <point x="327" y="-458"/>
      <point x="390" y="-395"/>
      <point x="390" y="-318" type="curve" smooth="yes"/>
      <point x="390" y="426" type="line" smooth="yes"/>
      <point x="390" y="503"/>
      <point x="327" y="566"/>
      <point x="250" y="566" type="curve" smooth="yes"/>
      <point x="173" y="566"/>
      <point x="110" y="503"/>
      <point x="110" y="426" type="curve" smooth="yes"/>
      <point x="110" y="-318" type="line" smooth="yes"/>
      <point x="110" y="-395"/>
      <point x="173" y="-458"/>
    </contour>
  </outline>
</glyph>
<glyph name="section" format="2">
  <advance width="1561"/>
  <unicode hex="00A7"/>
  <outline>
    <contour>
      <point x="150" y="-351" type="curve" smooth="yes"/>
      <point x="957" y="-351" type="line" smooth="yes"/>
      <point x="1147" y="-351"/>
      <point x="1222" y="-142"/>
      <point x="1074" y="-20" type="curve" smooth="yes"/>
      <point x="442" y="501" type="line" smooth="yes"/>
      <point x="376" y="555"/>
      <point x="361" y="599"/>
      <point x="361" y="663" type="curve" smooth="yes"/>
      <point x="361" y="817"/>
      <point x="451" y="907"/>
      <point x="605" y="907" type="curve" smooth="yes"/>
      <point x="752" y="907" type="line"/>
      <point x="382" y="544" type="line" smooth="yes"/>
      <point x="357" y="519"/>
      <point x="341" y="484"/>
      <point x="341" y="445" type="curve" smooth="yes"/>
      <point x="341" y="368"/>
      <point x="404" y="305"/>
      <point x="481" y="305" type="curve" smooth="yes"/>
      <point x="519" y="305"/>
      <point x="554" y="320"/>
      <point x="579" y="345" type="curve" smooth="yes"/>
      <point x="1133" y="892" type="line" smooth="yes"/>
      <point x="1254" y="1011"/>
      <point x="1180" y="1187"/>
      <point x="1011" y="1187" type="curve" smooth="yes"/>
      <point x="605" y="1187" type="line" smooth="yes"/>
      <point x="316" y="1187"/>
      <point x="81" y="952"/>
      <point x="81" y="663" type="curve" smooth="yes"/>
      <point x="81" y="543"/>
      <point x="132" y="395"/>
      <point x="266" y="283" type="curve" smooth="yes"/>
      <point x="691" y="-71" type="line"/>
      <point x="150" y="-71" type="line" smooth="yes"/>
      <point x="73" y="-71"/>
      <point x="10" y="-134"/>
      <point x="10" y="-211" type="curve" smooth="yes"/>
      <point x="10" y="-288"/>
      <point x="73" y="-351"/>
    </contour>
    <contour>
      <point x="715" y="0" type="curve" smooth="yes"/>
      <point x="1315" y="0" type="line" smooth="yes"/>
      <point x="1505" y="0"/>
      <point x="1580" y="209"/>
      <point x="1432" y="331" type="curve" smooth="yes"/>
      <point x="800" y="852" type="line" smooth="yes"/>
      <point x="734" y="906"/>
      <point x="719" y="950"/>
      <point x="719" y="1014" type="curve" smooth="yes"/>
      <point x="719" y="1168"/>
      <point x="809" y="1258"/>
      <point x="963" y="1258" type="curve" smooth="yes"/>
      <point x="1110" y="1258" type="line"/>
      <point x="740" y="895" type="line" smooth="yes"/>
      <point x="715" y="870"/>
      <point x="699" y="835"/>
      <point x="699" y="796" type="curve" smooth="yes"/>
      <point x="699" y="719"/>
      <point x="762" y="656"/>
      <point x="839" y="656" type="curve" smooth="yes"/>
      <point x="877" y="656"/>
      <point x="912" y="671"/>
      <point x="937" y="696" type="curve" smooth="yes"/>
      <point x="1491" y="1243" type="line" smooth="yes"/>
      <point x="1612" y="1362"/>
      <point x="1538" y="1538"/>
      <point x="1369" y="1538" type="curve" smooth="yes"/>
      <point x="963" y="1538" type="line" smooth="yes"/>
      <point x="674" y="1538"/>
      <point x="439" y="1303"/>
      <point x="439" y="1014" type="curve" smooth="yes"/>
      <point x="439" y="894"/>
      <point x="490" y="746"/>
      <point x="624" y="634" type="curve" smooth="yes"/>
      <point x="1049" y="280" type="line"/>
      <point x="715" y="280" type="line" smooth="yes"/>
      <point x="638" y="280"/>
      <point x="575" y="217"/>
      <point x="575" y="140" type="curve" smooth="yes"/>
      <point x="575" y="63"/>
      <point x="638" y="0"/>
    </contour>
  </outline>
</glyph>
<glyph name="copyright" format="2">
  <advance width="2049"/>
  <unicode hex="00A9"/>
  <anchor x="978.0" y="210.0" name="bottom"/>
  <anchor x="1035.5" y="994.0" name="top"/>
  <outline>
    <contour>
      <point x="1025" y="-345" type="curve" smooth="yes"/>
      <point x="1551" y="-345"/>
      <point x="1979" y="83"/>
      <point x="1979" y="610" type="curve" smooth="yes"/>
      <point x="1979" y="1136"/>
      <point x="1551" y="1564"/>
      <point x="1025" y="1564" type="curve" smooth="yes"/>
      <point x="498" y="1564"/>
      <point x="70" y="1136"/>
      <point x="70" y="610" type="curve" smooth="yes"/>
      <point x="70" y="83"/>
      <point x="498" y="-345"/>
    </contour>
    <contour>
      <point x="1025" y="-65" type="curve" smooth="yes"/>
      <point x="633" y="-65"/>
      <point x="350" y="218"/>
      <point x="350" y="610" type="curve" smooth="yes"/>
      <point x="350" y="1001"/>
      <point x="633" y="1284"/>
      <point x="1025" y="1284" type="curve" smooth="yes"/>
      <point x="1416" y="1284"/>
      <point x="1699" y="1001"/>
      <point x="1699" y="610" type="curve" smooth="yes"/>
      <point x="1699" y="218"/>
      <point x="1416" y="-65"/>
    </contour>
    <component base="C" xScale="0.5" yScale="0.5" xOffset="586" yOffset="225"/>
  </outline>
</glyph>
<glyph name="logicalnot" format="2">
  <advance width="1450"/>
  <unicode hex="00AC"/>
  <outline>
    <contour>
      <point x="1248" y="21" type="curve" smooth="yes"/>
      <point x="1325" y="21"/>
      <point x="1388" y="84"/>
      <point x="1388" y="161" type="curve" smooth="yes"/>
      <point x="1388" y="690" type="line" smooth="yes"/>
      <point x="1388" y="761"/>
      <point x="1337" y="812"/>
      <point x="1266" y="812" type="curve" smooth="yes"/>
      <point x="202" y="812" type="line" smooth="yes"/>
      <point x="125" y="812"/>
      <point x="62" y="749"/>
      <point x="62" y="672" type="curve" smooth="yes"/>
      <point x="62" y="595"/>
      <point x="125" y="532"/>
      <point x="202" y="532" type="curve" smooth="yes"/>
      <point x="1108" y="532" type="line"/>
      <point x="1108" y="161" type="line" smooth="yes"/>
      <point x="1108" y="84"/>
      <point x="1171" y="21"/>
    </contour>
  </outline>
</glyph>
<glyph name="registered" format="2">
  <advance width="1402"/>
  <unicode hex="00AE"/>
  <anchor x="732.2885" y="837.0" name="bottom"/>
  <anchor x="718.9168999999999" y="1304.3982" name="top"/>
  <outline>
    <contour>
      <point x="701" y="445" type="curve" smooth="yes"/>
      <point x="1049" y="445"/>
      <point x="1332" y="728"/>
      <point x="1332" y="1076" type="curve" smooth="yes"/>
      <point x="1332" y="1424"/>
      <point x="1049" y="1707"/>
      <point x="701" y="1707" type="curve" smooth="yes"/>
      <point x="353" y="1707"/>
      <point x="70" y="1424"/>
      <point x="70" y="1076" type="curve" smooth="yes"/>
      <point x="70" y="728"/>
      <point x="353" y="445"/>
    </contour>
    <contour>
      <point x="701" y="725" type="curve" smooth="yes"/>
      <point x="488" y="725"/>
      <point x="350" y="863"/>
      <point x="350" y="1076" type="curve" smooth="yes"/>
      <point x="350" y="1289"/>
      <point x="488" y="1427"/>
      <point x="701" y="1427" type="curve" smooth="yes"/>
      <point x="914" y="1427"/>
      <point x="1052" y="1289"/>
      <point x="1052" y="1076" type="curve" smooth="yes"/>
      <point x="1052" y="863"/>
      <point x="914" y="725"/>
    </contour>
    <component base="R" xScale="0.3039" yScale="0.3039" xOffset="515" yOffset="837"/>
  </outline>
</glyph>
<glyph name="degree" format="2">
  <advance width="1039"/>
  <unicode hex="00B0"/>
  <outline>
    <contour>
      <point x="520" y="658" type="curve" smooth="yes"/>
      <point x="767" y="658"/>
      <point x="969" y="860"/>
      <point x="969" y="1108" type="curve" smooth="yes"/>
      <point x="969" y="1355"/>
      <point x="767" y="1557"/>
      <point x="520" y="1557" type="curve" smooth="yes"/>
      <point x="272" y="1557"/>
      <point x="70" y="1355"/>
      <point x="70" y="1108" type="curve" smooth="yes"/>
      <point x="70" y="860"/>
      <point x="272" y="658"/>
    </contour>
    <contour>
      <point x="520" y="938" type="curve" smooth="yes"/>
      <point x="407" y="938"/>
      <point x="350" y="995"/>
      <point x="350" y="1108" type="curve" smooth="yes"/>
      <point x="350" y="1220"/>
      <point x="407" y="1277"/>
      <point x="520" y="1277" type="curve" smooth="yes"/>
      <point x="632" y="1277"/>
      <point x="689" y="1220"/>
      <point x="689" y="1108" type="curve" smooth="yes"/>
      <point x="689" y="995"/>
      <point x="632" y="938"/>
    </contour>
  </outline>
</glyph>
<glyph name="plusminus" format="2">
  <advance width="1450"/>
  <unicode hex="00B1"/>
  <outline>
    <contour>
      <point x="202" y="732" type="curve" smooth="yes"/>
      <point x="1248" y="732" type="line" smooth="yes"/>
      <point x="1325" y="732"/>
      <point x="1388" y="795"/>
      <point x="1388" y="872" type="curve" smooth="yes"/>
      <point x="1388" y="949"/>
      <point x="1325" y="1012"/>
      <point x="1248" y="1012" type="curve" smooth="yes"/>
      <point x="202" y="1012" type="line" smooth="yes"/>
      <point x="125" y="1012"/>
      <point x="62" y="949"/>
      <point x="62" y="872" type="curve" smooth="yes"/>
      <point x="62" y="795"/>
      <point x="125" y="732"/>
    </contour>
    <contour>
      <point x="202" y="-54" type="curve" smooth="yes"/>
      <point x="1248" y="-54" type="line" smooth="yes"/>
      <point x="1325" y="-54"/>
      <point x="1388" y="9"/>
      <point x="1388" y="86" type="curve" smooth="yes"/>
      <point x="1388" y="163"/>
      <point x="1325" y="226"/>
      <point x="1248" y="226" type="curve" smooth="yes"/>
      <point x="202" y="226" type="line" smooth="yes"/>
      <point x="125" y="226"/>
      <point x="62" y="163"/>
      <point x="62" y="86" type="curve" smooth="yes"/>
      <point x="62" y="9"/>
      <point x="125" y="-54"/>
    </contour>
    <contour>
      <point x="725" y="332" type="curve" smooth="yes"/>
      <point x="802" y="332"/>
      <point x="865" y="395"/>
      <point x="865" y="472" type="curve" smooth="yes"/>
      <point x="865" y="1273" type="line" smooth="yes"/>
      <point x="865" y="1350"/>
      <point x="802" y="1413"/>
      <point x="725" y="1413" type="curve" smooth="yes"/>
      <point x="648" y="1413"/>
      <point x="585" y="1350"/>
      <point x="585" y="1273" type="curve" smooth="yes"/>
      <point x="585" y="472" type="line" smooth="yes"/>
      <point x="585" y="395"/>
      <point x="648" y="332"/>
    </contour>
  </outline>
</glyph>
<glyph name="paragraph" format="2">
  <advance width="1535"/>
  <unicode hex="00B6"/>
  <outline>
    <contour>
      <point x="855" y="-30" type="curve" smooth="yes"/>
      <point x="932" y="-30"/>
      <point x="995" y="33"/>
      <point x="995" y="110" type="curve" smooth="yes"/>
      <point x="995" y="1416" type="line" smooth="yes"/>
      <point x="995" y="1487"/>
      <point x="944" y="1538"/>
      <point x="873" y="1538" type="curve" smooth="yes"/>
      <point x="555" y="1538" type="line" smooth="yes"/>
      <point x="276" y="1538"/>
      <point x="50" y="1312"/>
      <point x="50" y="1033" type="curve" smooth="yes"/>
      <point x="50" y="753"/>
      <point x="276" y="527"/>
      <point x="555" y="527" type="curve" smooth="yes"/>
      <point x="566" y="527" type="line" smooth="yes"/>
      <point x="644" y="527"/>
      <point x="707" y="589"/>
      <point x="707" y="667" type="curve" smooth="yes"/>
      <point x="707" y="744"/>
      <point x="644" y="807"/>
      <point x="567" y="807" type="curve" smooth="yes"/>
      <point x="556" y="807" type="line" smooth="yes"/>
      <point x="442" y="807"/>
      <point x="330" y="869"/>
      <point x="330" y="1033" type="curve" smooth="yes"/>
      <point x="330" y="1196"/>
      <point x="442" y="1258"/>
      <point x="555" y="1258" type="curve" smooth="yes"/>
      <point x="715" y="1258" type="line"/>
      <point x="715" y="110" type="line" smooth="yes"/>
      <point x="715" y="33"/>
      <point x="778" y="-30"/>
    </contour>
    <contour>
      <point x="1245" y="-30" type="curve" smooth="yes"/>
      <point x="1322" y="-30"/>
      <point x="1385" y="33"/>
      <point x="1385" y="110" type="curve" smooth="yes"/>
      <point x="1385" y="1398" type="line" smooth="yes"/>
      <point x="1385" y="1475"/>
      <point x="1322" y="1538"/>
      <point x="1245" y="1538" type="curve" smooth="yes"/>
      <point x="1168" y="1538"/>
      <point x="1105" y="1475"/>
      <point x="1105" y="1398" type="curve" smooth="yes"/>
      <point x="1105" y="110" type="line" smooth="yes"/>
      <point x="1105" y="33"/>
      <point x="1168" y="-30"/>
    </contour>
  </outline>
</glyph>
<glyph name="onequarter" format="2">
  <advance width="1890"/>
  <unicode hex="00BC"/>
  <outline>
    <contour>
      <point x="1144" y="1418" type="curve" smooth="yes"/>
      <point x="569" y="52" type="line" smooth="yes"/>
      <point x="564" y="39"/>
      <point x="561" y="25"/>
      <point x="561" y="10" type="curve" smooth="yes"/>
      <point x="561" y="-51"/>
      <point x="610" y="-100"/>
      <point x="671" y="-100" type="curve" smooth="yes"/>
      <point x="716" y="-100"/>
      <point x="755" y="-73"/>
      <point x="772" y="-33" type="curve" smooth="yes"/>
      <point x="1347" y="1333" type="line" smooth="yes"/>
      <point x="1353" y="1346"/>
      <point x="1356" y="1360"/>
      <point x="1356" y="1376" type="curve" smooth="yes"/>
      <point x="1356" y="1436"/>
      <point x="1306" y="1486"/>
      <point x="1246" y="1486" type="curve" smooth="yes"/>
      <point x="1200" y="1486"/>
      <point x="1161" y="1458"/>
    </contour>
    <component base="one.numr" xOffset="64"/>
    <component base="four.dnom" xOffset="987"/>
  </outline>
</glyph>
<glyph name="onehalf" format="2">
  <advance width="1953"/>
  <unicode hex="00BD"/>
  <outline>
    <contour>
      <point x="1114" y="1418" type="curve" smooth="yes"/>
      <point x="539" y="52" type="line" smooth="yes"/>
      <point x="534" y="39"/>
      <point x="531" y="25"/>
      <point x="531" y="10" type="curve" smooth="yes"/>
      <point x="531" y="-51"/>
      <point x="580" y="-100"/>
      <point x="641" y="-100" type="curve" smooth="yes"/>
      <point x="686" y="-100"/>
      <point x="725" y="-73"/>
      <point x="742" y="-33" type="curve" smooth="yes"/>
      <point x="1317" y="1333" type="line" smooth="yes"/>
      <point x="1323" y="1346"/>
      <point x="1326" y="1360"/>
      <point x="1326" y="1376" type="curve" smooth="yes"/>
      <point x="1326" y="1436"/>
      <point x="1276" y="1486"/>
      <point x="1216" y="1486" type="curve" smooth="yes"/>
      <point x="1170" y="1486"/>
      <point x="1131" y="1458"/>
    </contour>
    <component base="one.numr" xOffset="64"/>
    <component base="two.dnom" xOffset="1086"/>
  </outline>
</glyph>
<glyph name="threequarters" format="2">
  <advance width="1890"/>
  <unicode hex="00BE"/>
  <outline>
    <contour>
      <point x="1154" y="1418" type="curve" smooth="yes"/>
      <point x="579" y="52" type="line" smooth="yes"/>
      <point x="574" y="39"/>
      <point x="571" y="25"/>
      <point x="571" y="10" type="curve" smooth="yes"/>
      <point x="571" y="-51"/>
      <point x="620" y="-100"/>
      <point x="681" y="-100" type="curve" smooth="yes"/>
      <point x="726" y="-100"/>
      <point x="765" y="-73"/>
      <point x="782" y="-33" type="curve" smooth="yes"/>
      <point x="1357" y="1333" type="line" smooth="yes"/>
      <point x="1363" y="1346"/>
      <point x="1366" y="1360"/>
      <point x="1366" y="1376" type="curve" smooth="yes"/>
      <point x="1366" y="1436"/>
      <point x="1316" y="1486"/>
      <point x="1256" y="1486" type="curve" smooth="yes"/>
      <point x="1210" y="1486"/>
      <point x="1171" y="1458"/>
    </contour>
    <component base="three.numr"/>
    <component base="four.dnom" xOffset="1019"/>
  </outline>
</glyph>
<glyph name="multiply" format="2">
  <advance width="1450"/>
  <unicode hex="00D7"/>
  <outline>
    <contour>
      <point x="239" y="-48" type="curve" smooth="yes"/>
      <point x="162" y="-48"/>
      <point x="99" y="15"/>
      <point x="99" y="92" type="curve" smooth="yes"/>
      <point x="99" y="131"/>
      <point x="115" y="166"/>
      <point x="140" y="191" type="curve" smooth="yes"/>
      <point x="1112" y="1163" type="line" smooth="yes"/>
      <point x="1137" y="1188"/>
      <point x="1172" y="1204"/>
      <point x="1211" y="1204" type="curve" smooth="yes"/>
      <point x="1288" y="1204"/>
      <point x="1351" y="1141"/>
      <point x="1351" y="1064" type="curve" smooth="yes"/>
      <point x="1351" y="1025"/>
      <point x="1335" y="990"/>
      <point x="1310" y="965" type="curve" smooth="yes"/>
      <point x="338" y="-7" type="line" smooth="yes"/>
      <point x="313" y="-32"/>
      <point x="278" y="-48"/>
    </contour>
    <contour>
      <point x="1211" y="-48" type="curve" smooth="yes"/>
      <point x="1172" y="-48"/>
      <point x="1137" y="-32"/>
      <point x="1112" y="-7" type="curve" smooth="yes"/>
      <point x="140" y="965" type="line" smooth="yes"/>
      <point x="115" y="990"/>
      <point x="99" y="1025"/>
      <point x="99" y="1064" type="curve" smooth="yes"/>
      <point x="99" y="1141"/>
      <point x="162" y="1204"/>
      <point x="239" y="1204" type="curve" smooth="yes"/>
      <point x="278" y="1204"/>
      <point x="313" y="1188"/>
      <point x="338" y="1163" type="curve" smooth="yes"/>
      <point x="1310" y="191" type="line" smooth="yes"/>
      <point x="1335" y="166"/>
      <point x="1351" y="131"/>
      <point x="1351" y="92" type="curve" smooth="yes"/>
      <point x="1351" y="15"/>
      <point x="1288" y="-48"/>
    </contour>
  </outline>
</glyph>
<glyph name="germandbls" format="2">
  <advance width="1645"/>
  <unicode hex="00DF"/>
  <outline>
    <contour>
      <point x="280" y="0" type="curve" smooth="yes"/>
      <point x="357" y="0"/>
      <point x="420" y="63"/>
      <point x="420" y="140" type="curve" smooth="yes"/>
      <point x="420" y="1258" type="line"/>
      <point x="814" y="1258" type="line"/>
      <point x="190" y="671" type="line" smooth="yes"/>
      <point x="163" y="645"/>
      <point x="146" y="609"/>
      <point x="146" y="569" type="curve" smooth="yes"/>
      <point x="146" y="492"/>
      <point x="209" y="429"/>
      <point x="286" y="429" type="curve" smooth="yes"/>
      <point x="324" y="429"/>
      <point x="358" y="444"/>
      <point x="383" y="468" type="curve" smooth="yes"/>
      <point x="1196" y="1233" type="line" smooth="yes"/>
      <point x="1324" y="1354"/>
      <point x="1250" y="1538"/>
      <point x="1075" y="1538" type="curve" smooth="yes"/>
      <point x="262" y="1538" type="line" smooth="yes"/>
      <point x="191" y="1538"/>
      <point x="140" y="1487"/>
      <point x="140" y="1416" type="curve" smooth="yes"/>
      <point x="140" y="140" type="line" smooth="yes"/>
      <point x="140" y="63"/>
      <point x="203" y="0"/>
    </contour>
    <contour>
      <point x="673" y="0" type="curve" smooth="yes"/>
      <point x="985" y="0" type="line" smooth="yes"/>
      <point x="1294" y="0"/>
      <point x="1545" y="251"/>
      <point x="1545" y="559" type="curve" smooth="yes"/>
      <point x="1545" y="689"/>
      <point x="1483" y="831"/>
      <point x="1355" y="954" type="curve" smooth="yes"/>
      <point x="1096" y="1204" type="line" smooth="yes"/>
      <point x="1071" y="1229"/>
      <point x="1037" y="1244"/>
      <point x="999" y="1244" type="curve" smooth="yes"/>
      <point x="921" y="1244"/>
      <point x="859" y="1181"/>
      <point x="859" y="1104" type="curve" smooth="yes"/>
      <point x="859" y="1065"/>
      <point x="875" y="1029"/>
      <point x="901" y="1004" type="curve" smooth="yes"/>
      <point x="1159" y="753" type="line" smooth="yes"/>
      <point x="1244" y="671"/>
      <point x="1265" y="624"/>
      <point x="1265" y="559" type="curve" smooth="yes"/>
      <point x="1265" y="378"/>
      <point x="1167" y="280"/>
      <point x="985" y="280" type="curve" smooth="yes"/>
      <point x="673" y="280" type="line" smooth="yes"/>
      <point x="596" y="280"/>
      <point x="533" y="217"/>
      <point x="533" y="140" type="curve" smooth="yes"/>
      <point x="533" y="63"/>
      <point x="596" y="0"/>
    </contour>
  </outline>
</glyph>
<glyph name="eth" format="2">
  <advance width="1571"/>
  <unicode hex="00F0"/>
  <anchor x="800" y="0" name="bottom"/>
  <anchor x="800" y="769" name="center"/>
  <anchor x="702" y="1538" name="top"/>
  <outline>
    <contour>
      <point x="180" y="700" type="curve" smooth="yes"/>
      <point x="720" y="700" type="line" smooth="yes"/>
      <point x="797" y="700"/>
      <point x="860" y="763"/>
      <point x="860" y="840" type="curve" smooth="yes"/>
      <point x="860" y="917"/>
      <point x="797" y="980"/>
      <point x="720" y="980" type="curve" smooth="yes"/>
      <point x="180" y="980" type="line" smooth="yes"/>
      <point x="103" y="980"/>
      <point x="40" y="917"/>
      <point x="40" y="840" type="curve" smooth="yes"/>
      <point x="40" y="763"/>
      <point x="103" y="700"/>
    </contour>
    <component base="D" xOffset="29"/>
  </outline>
</glyph>
<glyph name="divide" format="2">
  <advance width="1450"/>
  <unicode hex="00F7"/>
  <outline>
    <contour>
      <point x="202" y="438" type="curve" smooth="yes"/>
      <point x="1248" y="438" type="line" smooth="yes"/>
      <point x="1325" y="438"/>
      <point x="1388" y="501"/>
      <point x="1388" y="578" type="curve" smooth="yes"/>
      <point x="1388" y="655"/>
      <point x="1325" y="718"/>
      <point x="1248" y="718" type="curve" smooth="yes"/>
      <point x="202" y="718" type="line" smooth="yes"/>
      <point x="125" y="718"/>
      <point x="62" y="655"/>
      <point x="62" y="578" type="curve" smooth="yes"/>
      <point x="62" y="501"/>
      <point x="125" y="438"/>
    </contour>
    <contour>
      <point x="725" y="280" type="curve" smooth="yes"/>
      <point x="802" y="280"/>
      <point x="865" y="217"/>
      <point x="865" y="140" type="curve" smooth="yes"/>
      <point x="865" y="63"/>
      <point x="802" y="0"/>
      <point x="725" y="0" type="curve" smooth="yes"/>
      <point x="648" y="0"/>
      <point x="585" y="63"/>
      <point x="585" y="140" type="curve" smooth="yes"/>
      <point x="585" y="217"/>
      <point x="648" y="280"/>
    </contour>
    <contour>
      <point x="725" y="1175" type="curve" smooth="yes"/>
      <point x="802" y="1175"/>
      <point x="865" y="1112"/>
      <point x="865" y="1035" type="curve" smooth="yes"/>
      <point x="865" y="958"/>
      <point x="802" y="895"/>
      <point x="725" y="895" type="curve" smooth="yes"/>
      <point x="648" y="895"/>
      <point x="585" y="958"/>
      <point x="585" y="1035" type="curve" smooth="yes"/>
      <point x="585" y="1112"/>
      <point x="648" y="1175"/>
    </contour>
  </outline>
</glyph>
<glyph name="thorn" format="2">
  <advance width="1486"/>
  <unicode hex="00FE"/>
  <outline>
    <contour>
      <point x="350" y="157" type="curve" smooth="yes"/>
      <point x="741" y="157" type="line" smooth="yes"/>
      <point x="1097" y="157"/>
      <point x="1386" y="446"/>
      <point x="1386" y="803" type="curve" smooth="yes"/>
      <point x="1386" y="1159"/>
      <point x="1097" y="1448"/>
      <point x="741" y="1448" type="curve" smooth="yes"/>
      <point x="350" y="1448" type="line" smooth="yes"/>
      <point x="273" y="1448"/>
      <point x="210" y="1385"/>
      <point x="210" y="1308" type="curve" smooth="yes"/>
      <point x="210" y="1231"/>
      <point x="273" y="1168"/>
      <point x="350" y="1168" type="curve" smooth="yes"/>
      <point x="741" y="1168" type="line" smooth="yes"/>
      <point x="962" y="1168"/>
      <point x="1106" y="1024"/>
      <point x="1106" y="803" type="curve" smooth="yes"/>
      <point x="1106" y="581"/>
      <point x="962" y="437"/>
      <point x="741" y="437" type="curve" smooth="yes"/>
      <point x="350" y="437" type="line" smooth="yes"/>
      <point x="273" y="437"/>
      <point x="210" y="374"/>
      <point x="210" y="297" type="curve" smooth="yes"/>
      <point x="210" y="220"/>
      <point x="273" y="157"/>
    </contour>
    <contour>
      <point x="280" y="0" type="curve" smooth="yes"/>
      <point x="357" y="0"/>
      <point x="420" y="63"/>
      <point x="420" y="140" type="curve" smooth="yes"/>
      <point x="420" y="1398" type="line" smooth="yes"/>
      <point x="420" y="1475"/>
      <point x="357" y="1538"/>
      <point x="280" y="1538" type="curve" smooth="yes"/>
      <point x="203" y="1538"/>
      <point x="140" y="1475"/>
      <point x="140" y="1398" type="curve" smooth="yes"/>
      <point x="140" y="140" type="line" smooth="yes"/>
      <point x="140" y="63"/>
      <point x="203" y="0"/>
    </contour>
  </outline>
</glyph>
<glyph name="Hbar" format="2">
  <advance width="1835"/>
  <unicode hex="0126"/>
  <anchor x="918" y="0" name="bottom"/>
  <anchor x="918" y="769" name="center"/>
  <anchor x="918" y="1538" name="top"/>
  <anchor x="142" y="1538" name="topleft"/>
  <outline>
    <contour>
      <point x="150" y="998" type="curve" smooth="yes"/>
      <point x="1685" y="998" type="line" smooth="yes"/>
      <point x="1762" y="998"/>
      <point x="1825" y="1061"/>
      <point x="1825" y="1138" type="curve" smooth="yes"/>
      <point x="1825" y="1215"/>
      <point x="1762" y="1278"/>
      <point x="1685" y="1278" type="curve" smooth="yes"/>
      <point x="150" y="1278" type="line" smooth="yes"/>
      <point x="73" y="1278"/>
      <point x="10" y="1215"/>
      <point x="10" y="1138" type="curve" smooth="yes"/>
      <point x="10" y="1061"/>
      <point x="73" y="998"/>
    </contour>
    <component base="H" xOffset="122"/>
  </outline>
</glyph>
<glyph name="Lslash" format="2">
  <advance width="1249"/>
  <unicode hex="0141"/>
  <anchor x="655" y="0" name="bottom"/>
  <anchor x="655" y="769" name="center"/>
  <anchor x="655" y="1538" name="top"/>
  <anchor x="1259" y="1538" name="topright"/>
  <outline>
    <contour>
      <point x="32" y="679" type="curve" smooth="yes"/>
      <point x="48" y="679"/>
      <point x="63" y="682"/>
      <point x="77" y="687" type="curve" smooth="yes"/>
      <point x="893" y="964" type="line" smooth="yes"/>
      <point x="948" y="983"/>
      <point x="988" y="1035"/>
      <point x="988" y="1096" type="curve" smooth="yes"/>
      <point x="988" y="1174"/>
      <point x="925" y="1236"/>
      <point x="848" y="1236" type="curve" smooth="yes"/>
      <point x="832" y="1236"/>
      <point x="817" y="1234"/>
      <point x="803" y="1229" type="curve" smooth="yes"/>
      <point x="-13" y="952" type="line" smooth="yes"/>
      <point x="-68" y="933"/>
      <point x="-108" y="881"/>
      <point x="-108" y="819" type="curve" smooth="yes"/>
      <point x="-108" y="742"/>
      <point x="-45" y="679"/>
    </contour>
    <component base="L"/>
  </outline>
</glyph>
<glyph name="Eng" format="2">
  <advance width="1615"/>
  <unicode hex="014A"/>
  <anchor x="808" y="0" name="bottom"/>
  <anchor x="808" y="1538" name="top"/>
  <outline>
    <contour>
      <point x="1094" y="-759" type="curve" smooth="yes"/>
      <point x="1325" y="-759"/>
      <point x="1475" y="-575"/>
      <point x="1475" y="-396" type="curve" smooth="yes"/>
      <point x="1475" y="146" type="line"/>
      <point x="1195" y="146" type="line"/>
      <point x="1195" y="-396" type="line" smooth="yes"/>
      <point x="1195" y="-458"/>
      <point x="1172" y="-479"/>
      <point x="1094" y="-479" type="curve" smooth="yes"/>
      <point x="1069" y="-479"/>
      <point x="1060" y="-476"/>
      <point x="1037" y="-465" type="curve" smooth="yes"/>
      <point x="1018" y="-455"/>
      <point x="997" y="-450"/>
      <point x="974" y="-450" type="curve" smooth="yes"/>
      <point x="897" y="-450"/>
      <point x="834" y="-513"/>
      <point x="834" y="-590" type="curve" smooth="yes"/>
      <point x="834" y="-645"/>
      <point x="865" y="-692"/>
      <point x="911" y="-715" type="curve" smooth="yes"/>
      <point x="973" y="-746"/>
      <point x="1037" y="-759"/>
    </contour>
    <component base="N"/>
  </outline>
</glyph>
<glyph name="tbar" format="2">
  <advance width="1536"/>
  <unicode hex="0167"/>
  <anchor x="744" y="0" name="bottom"/>
  <anchor x="772" y="769" name="center"/>
  <anchor x="744" y="1538" name="top"/>
  <outline>
    <contour>
      <point x="381" y="491" type="curve" smooth="yes"/>
      <point x="1099" y="491" type="line" smooth="yes"/>
      <point x="1176" y="491"/>
      <point x="1239" y="554"/>
      <point x="1239" y="631" type="curve" smooth="yes"/>
      <point x="1239" y="708"/>
      <point x="1176" y="771"/>
      <point x="1099" y="771" type="curve" smooth="yes"/>
      <point x="381" y="771" type="line" smooth="yes"/>
      <point x="304" y="771"/>
      <point x="241" y="708"/>
      <point x="241" y="631" type="curve" smooth="yes"/>
      <point x="241" y="554"/>
      <point x="304" y="491"/>
    </contour>
    <component base="T"/>
  </outline>
</glyph>
<glyph name="florin" format="2">
  <advance width="1416"/>
  <unicode hex="0192"/>
  <outline>
    <contour>
      <point x="103" y="57" type="curve" smooth="yes"/>
      <point x="190" y="15"/>
      <point x="285" y="-11"/>
      <point x="375" y="-11" type="curve" smooth="yes"/>
      <point x="563" y="-11"/>
      <point x="714" y="92"/>
      <point x="750" y="282" type="curve" smooth="yes"/>
      <point x="922" y="1179" type="line" smooth="yes"/>
      <point x="936" y="1250"/>
      <point x="956" y="1276"/>
      <point x="1041" y="1276" type="curve" smooth="yes"/>
      <point x="1093" y="1276"/>
      <point x="1138" y="1248"/>
      <point x="1199" y="1218" type="curve" smooth="yes"/>
      <point x="1216" y="1210"/>
      <point x="1236" y="1205"/>
      <point x="1256" y="1205" type="curve" smooth="yes"/>
      <point x="1328" y="1205"/>
      <point x="1386" y="1263"/>
      <point x="1386" y="1335" type="curve" smooth="yes"/>
      <point x="1386" y="1386"/>
      <point x="1356" y="1431"/>
      <point x="1313" y="1452" type="curve" smooth="yes"/>
      <point x="1226" y="1494"/>
      <point x="1131" y="1520"/>
      <point x="1041" y="1520" type="curve" smooth="yes"/>
      <point x="853" y="1520"/>
      <point x="702" y="1415"/>
      <point x="666" y="1227" type="curve" smooth="yes"/>
      <point x="494" y="330" type="line" smooth="yes"/>
      <point x="480" y="259"/>
      <point x="460" y="238"/>
      <point x="375" y="238" type="curve" smooth="yes"/>
      <point x="323" y="238"/>
      <point x="278" y="261"/>
      <point x="217" y="291" type="curve" smooth="yes"/>
      <point x="200" y="299"/>
      <point x="180" y="304"/>
      <point x="160" y="304" type="curve" smooth="yes"/>
      <point x="88" y="304"/>
      <point x="30" y="246"/>
      <point x="30" y="174" type="curve" smooth="yes"/>
      <point x="30" y="123"/>
      <point x="60" y="78"/>
    </contour>
    <contour>
      <point x="330" y="685" type="curve" smooth="yes"/>
      <point x="1220" y="685" type="line" smooth="yes"/>
      <point x="1292" y="685"/>
      <point x="1350" y="743"/>
      <point x="1350" y="815" type="curve" smooth="yes"/>
      <point x="1350" y="887"/>
      <point x="1292" y="945"/>
      <point x="1220" y="945" type="curve" smooth="yes"/>
      <point x="330" y="945" type="line" smooth="yes"/>
      <point x="258" y="945"/>
      <point x="200" y="887"/>
      <point x="200" y="815" type="curve" smooth="yes"/>
      <point x="200" y="743"/>
      <point x="258" y="685"/>
    </contour>
  </outline>
</glyph>
<glyph name="schwa" format="2">
  <advance width="1799"/>
  <unicode hex="0259"/>
  <anchor x="899" y="0" name="bottom"/>
  <anchor x="899" y="1538" name="top"/>
  <outline>
    <contour>
      <point x="899" y="-30" type="curve" smooth="yes"/>
      <point x="1342" y="-30"/>
      <point x="1699" y="325"/>
      <point x="1699" y="767" type="curve" smooth="yes"/>
      <point x="1699" y="1209"/>
      <point x="1342" y="1568"/>
      <point x="899" y="1568" type="curve" smooth="yes"/>
      <point x="677" y="1568"/>
      <point x="476" y="1477"/>
      <point x="332" y="1331" type="curve" smooth="yes"/>
      <point x="307" y="1306"/>
      <point x="292" y="1271"/>
      <point x="292" y="1233" type="curve" smooth="yes"/>
      <point x="292" y="1155"/>
      <point x="354" y="1093"/>
      <point x="432" y="1093" type="curve" smooth="yes"/>
      <point x="471" y="1093"/>
      <point x="506" y="1109"/>
      <point x="531" y="1134" type="curve" smooth="yes"/>
      <point x="639" y="1243"/>
      <point x="737" y="1288"/>
      <point x="899" y="1288" type="curve" smooth="yes"/>
      <point x="1226" y="1288"/>
      <point x="1419" y="1093"/>
      <point x="1419" y="767" type="curve" smooth="yes"/>
      <point x="1419" y="441"/>
      <point x="1226" y="250"/>
      <point x="899" y="250" type="curve" smooth="yes"/>
      <point x="576" y="250"/>
      <point x="384" y="438"/>
      <point x="380" y="760" type="curve" smooth="yes"/>
      <point x="379" y="836"/>
      <point x="317" y="898"/>
      <point x="240" y="898" type="curve" smooth="yes"/>
      <point x="158" y="898"/>
      <point x="99" y="830"/>
      <point x="100" y="756" type="curve" smooth="yes"/>
      <point x="106" y="319"/>
      <point x="461" y="-30"/>
    </contour>
    <contour>
      <point x="1617" y="898" type="line"/>
      <point x="240" y="898" type="line" smooth="yes"/>
      <point x="163" y="898"/>
      <point x="100" y="835"/>
      <point x="100" y="758" type="curve" smooth="yes"/>
      <point x="100" y="681"/>
      <point x="163" y="618"/>
      <point x="240" y="618" type="curve" smooth="yes"/>
      <point x="1533" y="618" type="line"/>
    </contour>
  </outline>
</glyph>
<glyph name="nhookleft" format="2">
  <advance width="1615"/>
  <unicode hex="0272"/>
  <anchor x="808" y="0" name="bottom"/>
  <anchor x="808" y="1538" name="top"/>
  <outline>
    <contour>
      <point x="40" y="-759" type="curve" smooth="yes"/>
      <point x="271" y="-759"/>
      <point x="421" y="-575"/>
      <point x="421" y="-396" type="curve" smooth="yes"/>
      <point x="421" y="146" type="line"/>
      <point x="141" y="146" type="line"/>
      <point x="141" y="-396" type="line" smooth="yes"/>
      <point x="141" y="-458"/>
      <point x="118" y="-479"/>
      <point x="40" y="-479" type="curve" smooth="yes"/>
      <point x="15" y="-479"/>
      <point x="6" y="-476"/>
      <point x="-17" y="-465" type="curve" smooth="yes"/>
      <point x="-36" y="-455"/>
      <point x="-57" y="-450"/>
      <point x="-80" y="-450" type="curve" smooth="yes"/>
      <point x="-157" y="-450"/>
      <point x="-220" y="-513"/>
      <point x="-220" y="-590" type="curve" smooth="yes"/>
      <point x="-220" y="-645"/>
      <point x="-189" y="-692"/>
      <point x="-143" y="-715" type="curve" smooth="yes"/>
      <point x="-81" y="-746"/>
      <point x="-17" y="-759"/>
    </contour>
    <component base="N"/>
  </outline>
</glyph>
<glyph name="acutecomb" format="2">
  <unicode hex="0301"/>
  <anchor x="288" y="1049" name="_top"/>
  <anchor x="318" y="1606" name="top"/>
  <outline>
    <contour>
      <point x="210" y="1168" type="curve" smooth="yes"/>
      <point x="249" y="1168"/>
      <point x="284" y="1184"/>
      <point x="309" y="1209" type="curve" smooth="yes"/>
      <point x="528" y="1428" type="line" smooth="yes"/>
      <point x="553" y="1453"/>
      <point x="569" y="1488"/>
      <point x="569" y="1527" type="curve" smooth="yes"/>
      <point x="569" y="1604"/>
      <point x="506" y="1667"/>
      <point x="429" y="1667" type="curve" smooth="yes"/>
      <point x="390" y="1667"/>
      <point x="355" y="1651"/>
      <point x="330" y="1626" type="curve" smooth="yes"/>
      <point x="111" y="1407" type="line" smooth="yes"/>
      <point x="86" y="1382"/>
      <point x="70" y="1347"/>
      <point x="70" y="1308" type="curve" smooth="yes"/>
      <point x="70" y="1231"/>
      <point x="133" y="1168"/>
    </contour>
    <contour>
      <point x="210" y="1168" type="curve" smooth="yes"/>
      <point x="287" y="1168"/>
      <point x="350" y="1231"/>
      <point x="350" y="1308" type="curve" smooth="yes"/>
      <point x="350" y="1527" type="line" smooth="yes"/>
      <point x="350" y="1604"/>
      <point x="287" y="1667"/>
      <point x="210" y="1667" type="curve" smooth="yes"/>
      <point x="133" y="1667"/>
      <point x="70" y="1604"/>
      <point x="70" y="1527" type="curve" smooth="yes"/>
      <point x="70" y="1308" type="line" smooth="yes"/>
      <point x="70" y="1231"/>
      <point x="133" y="1168"/>
    </contour>
    <contour>
      <point x="210" y="1387" type="curve" smooth="yes"/>
      <point x="429" y="1387" type="line" smooth="yes"/>
      <point x="506" y="1387"/>
      <point x="569" y="1450"/>
      <point x="569" y="1527" type="curve" smooth="yes"/>
      <point x="569" y="1604"/>
      <point x="506" y="1667"/>
      <point x="429" y="1667" type="curve" smooth="yes"/>
      <point x="210" y="1667" type="line" smooth="yes"/>
      <point x="133" y="1667"/>
      <point x="70" y="1604"/>
      <point x="70" y="1527" type="curve" smooth="yes"/>
      <point x="70" y="1450"/>
      <point x="133" y="1387"/>
    </contour>
  </outline>
</glyph>
<glyph name="circumflexcomb" format="2">
  <unicode hex="0302"/>
  <anchor x="358" y="1049" name="_top"/>
  <anchor x="364" y="1535" name="top"/>
  <outline>
    <contour>
      <point x="210" y="1244" type="curve" smooth="yes"/>
      <point x="248" y="1244"/>
      <point x="283" y="1260"/>
      <point x="309" y="1285" type="curve" smooth="yes"/>
      <point x="464" y="1439" type="line" smooth="yes"/>
      <point x="489" y="1464"/>
      <point x="505" y="1499"/>
      <point x="505" y="1538" type="curve" smooth="yes"/>
      <point x="505" y="1615"/>
      <point x="442" y="1678"/>
      <point x="365" y="1678" type="curve" smooth="yes"/>
      <point x="327" y="1678"/>
      <point x="292" y="1662"/>
      <point x="266" y="1637" type="curve" smooth="yes"/>
      <point x="111" y="1483" type="line" smooth="yes"/>
      <point x="86" y="1458"/>
      <point x="70" y="1423"/>
      <point x="70" y="1384" type="curve" smooth="yes"/>
      <point x="70" y="1307"/>
      <point x="133" y="1244"/>
    </contour>
    <contour>
      <point x="210" y="1244" type="curve" smooth="yes"/>
      <point x="519" y="1244" type="line" smooth="yes"/>
      <point x="596" y="1244"/>
      <point x="659" y="1307"/>
      <point x="659" y="1384" type="curve" smooth="yes"/>
      <point x="659" y="1461"/>
      <point x="596" y="1524"/>
      <point x="519" y="1524" type="curve" smooth="yes"/>
      <point x="210" y="1524" type="line" smooth="yes"/>
      <point x="133" y="1524"/>
      <point x="70" y="1461"/>
      <point x="70" y="1384" type="curve" smooth="yes"/>
      <point x="70" y="1307"/>
      <point x="133" y="1244"/>
    </contour>
    <contour>
      <point x="519" y="1244" type="curve" smooth="yes"/>
      <point x="596" y="1244"/>
      <point x="659" y="1307"/>
      <point x="659" y="1384" type="curve" smooth="yes"/>
      <point x="659" y="1423"/>
      <point x="643" y="1458"/>
      <point x="618" y="1483" type="curve" smooth="yes"/>
      <point x="464" y="1637" type="line" smooth="yes"/>
      <point x="439" y="1662"/>
      <point x="404" y="1678"/>
      <point x="365" y="1678" type="curve" smooth="yes"/>
      <point x="288" y="1678"/>
      <point x="225" y="1615"/>
      <point x="225" y="1538" type="curve" smooth="yes"/>
      <point x="225" y="1499"/>
      <point x="241" y="1464"/>
      <point x="266" y="1439" type="curve" smooth="yes"/>
      <point x="420" y="1285" type="line" smooth="yes"/>
      <point x="445" y="1260"/>
      <point x="480" y="1244"/>
    </contour>
  </outline>
</glyph>
<glyph name="tildecomb" format="2">
  <unicode hex="0303"/>
  <anchor x="428" y="1049" name="_top"/>
  <anchor x="431" y="1615" name="top"/>
  <outline>
    <contour>
      <point x="538" y="1227" type="curve" smooth="yes"/>
      <point x="680" y="1227"/>
      <point x="798" y="1330"/>
      <point x="783" y="1504" type="curve" smooth="yes"/>
      <point x="777" y="1576"/>
      <point x="717" y="1632"/>
      <point x="644" y="1632" type="curve" smooth="yes"/>
      <point x="559" y="1632"/>
      <point x="505" y="1559"/>
      <point x="505" y="1480" type="curve" smooth="yes"/>
      <point x="505" y="1472"/>
      <point x="522" y="1505"/>
      <point x="538" y="1507" type="curve" smooth="yes"/>
      <point x="586" y="1513"/>
      <point x="546" y="1513"/>
      <point x="539" y="1523" type="curve" smooth="yes"/>
      <point x="491" y="1591"/>
      <point x="425" y="1659"/>
      <point x="304" y="1659" type="curve" smooth="yes"/>
      <point x="139" y="1659"/>
      <point x="37" y="1501"/>
      <point x="80" y="1339" type="curve" smooth="yes"/>
      <point x="95" y="1279"/>
      <point x="150" y="1235"/>
      <point x="215" y="1235" type="curve" smooth="yes"/>
      <point x="292" y="1235"/>
      <point x="355" y="1298"/>
      <point x="355" y="1375" type="curve" smooth="yes"/>
      <point x="355" y="1444"/>
      <point x="319" y="1379"/>
      <point x="304" y="1379" type="curve" smooth="yes"/>
      <point x="298" y="1379"/>
      <point x="298" y="1379"/>
      <point x="312" y="1359" type="curve" smooth="yes"/>
      <point x="366" y="1284"/>
      <point x="429" y="1227"/>
    </contour>
  </outline>
</glyph>
<glyph name="macroncomb" format="2">
  <unicode hex="0304"/>
  <anchor x="348" y="1049" name="_top"/>
  <anchor x="347" y="1535" name="top"/>
  <outline>
    <contour>
      <point x="210" y="1233" type="curve" smooth="yes"/>
      <point x="488" y="1233" type="line" smooth="yes"/>
      <point x="565" y="1233"/>
      <point x="628" y="1296"/>
      <point x="628" y="1373" type="curve" smooth="yes"/>
      <point x="628" y="1450"/>
      <point x="565" y="1513"/>
      <point x="488" y="1513" type="curve" smooth="yes"/>
      <point x="210" y="1513" type="line" smooth="yes"/>
      <point x="133" y="1513"/>
      <point x="70" y="1450"/>
      <point x="70" y="1373" type="curve" smooth="yes"/>
      <point x="70" y="1296"/>
      <point x="133" y="1233"/>
    </contour>
  </outline>
</glyph>
<glyph name="brevecomb" format="2">
  <unicode hex="0306"/>
  <anchor x="358" y="1049" name="_top"/>
  <anchor x="355" y="1535" name="top"/>
  <outline>
    <contour>
      <point x="355" y="1219" type="curve" smooth="yes"/>
      <point x="552" y="1219"/>
      <point x="679" y="1346"/>
      <point x="679" y="1503" type="curve" smooth="yes"/>
      <point x="679" y="1527"/>
      <point x="675" y="1554"/>
      <point x="670" y="1575" type="curve" smooth="yes"/>
      <point x="655" y="1636"/>
      <point x="600" y="1681"/>
      <point x="534" y="1681" type="curve" smooth="yes"/>
      <point x="457" y="1681"/>
      <point x="395" y="1618"/>
      <point x="395" y="1541" type="curve" smooth="yes"/>
      <point x="395" y="1529"/>
      <point x="400" y="1513"/>
      <point x="400" y="1503" type="curve" smooth="yes"/>
      <point x="400" y="1487"/>
      <point x="389" y="1476"/>
      <point x="375" y="1476" type="curve" smooth="yes"/>
      <point x="360" y="1476"/>
      <point x="350" y="1487"/>
      <point x="350" y="1503" type="curve" smooth="yes"/>
      <point x="350" y="1513"/>
      <point x="355" y="1529"/>
      <point x="355" y="1541" type="curve" smooth="yes"/>
      <point x="355" y="1618"/>
      <point x="292" y="1681"/>
      <point x="215" y="1681" type="curve" smooth="yes"/>
      <point x="149" y="1681"/>
      <point x="94" y="1636"/>
      <point x="79" y="1575" type="curve" smooth="yes"/>
      <point x="74" y="1554"/>
      <point x="70" y="1527"/>
      <point x="70" y="1503" type="curve" smooth="yes"/>
      <point x="70" y="1346"/>
      <point x="198" y="1219"/>
    </contour>
  </outline>
</glyph>
<glyph name="dotaccentcomb" format="2">
  <unicode hex="0307"/>
  <anchor x="318" y="1049" name="_top"/>
  <anchor x="320" y="1535" name="top"/>
  <outline>
    <contour>
      <point x="429" y="1169" type="curve" smooth="yes"/>
      <point x="390" y="1169"/>
      <point x="356" y="1185"/>
      <point x="330" y="1210" type="curve" smooth="yes"/>
      <point x="111" y="1428" type="line" smooth="yes"/>
      <point x="86" y="1453"/>
      <point x="70" y="1488"/>
      <point x="70" y="1527" type="curve" smooth="yes"/>
      <point x="70" y="1604"/>
      <point x="133" y="1667"/>
      <point x="210" y="1667" type="curve" smooth="yes"/>
      <point x="249" y="1667"/>
      <point x="283" y="1651"/>
      <point x="309" y="1626" type="curve" smooth="yes"/>
      <point x="528" y="1408" type="line" smooth="yes"/>
      <point x="553" y="1383"/>
      <point x="569" y="1348"/>
      <point x="569" y="1309" type="curve" smooth="yes"/>
      <point x="569" y="1232"/>
      <point x="506" y="1169"/>
    </contour>
    <contour>
      <point x="210" y="1169" type="curve" smooth="yes"/>
      <point x="133" y="1169"/>
      <point x="70" y="1232"/>
      <point x="70" y="1309" type="curve" smooth="yes"/>
      <point x="70" y="1348"/>
      <point x="86" y="1383"/>
      <point x="111" y="1408" type="curve" smooth="yes"/>
      <point x="330" y="1626" type="line" smooth="yes"/>
      <point x="356" y="1651"/>
      <point x="390" y="1667"/>
      <point x="429" y="1667" type="curve" smooth="yes"/>
      <point x="506" y="1667"/>
      <point x="569" y="1604"/>
      <point x="569" y="1527" type="curve" smooth="yes"/>
      <point x="569" y="1488"/>
      <point x="553" y="1453"/>
      <point x="528" y="1428" type="curve" smooth="yes"/>
      <point x="309" y="1210" type="line" smooth="yes"/>
      <point x="283" y="1185"/>
      <point x="249" y="1169"/>
    </contour>
  </outline>
</glyph>
<glyph name="ringcomb" format="2">
  <unicode hex="030A"/>
  <anchor x="358" y="1049" name="_top"/>
  <anchor x="354" y="1718" name="top"/>
  <outline>
    <contour>
      <point x="355" y="1179" type="curve" smooth="yes"/>
      <point x="512" y="1179"/>
      <point x="639" y="1306"/>
      <point x="639" y="1463" type="curve" smooth="yes"/>
      <point x="639" y="1621"/>
      <point x="512" y="1748"/>
      <point x="355" y="1748" type="curve" smooth="yes"/>
      <point x="198" y="1748"/>
      <point x="70" y="1621"/>
      <point x="70" y="1463" type="curve" smooth="yes"/>
      <point x="70" y="1306"/>
      <point x="198" y="1179"/>
    </contour>
    <contour>
      <point x="355" y="1389" type="curve" smooth="yes"/>
      <point x="311" y="1389"/>
      <point x="280" y="1420"/>
      <point x="280" y="1463" type="curve" smooth="yes"/>
      <point x="280" y="1507"/>
      <point x="311" y="1538"/>
      <point x="355" y="1538" type="curve" smooth="yes"/>
      <point x="399" y="1538"/>
      <point x="429" y="1508"/>
      <point x="429" y="1463" type="curve" smooth="yes"/>
      <point x="429" y="1419"/>
      <point x="399" y="1389"/>
    </contour>
  </outline>
</glyph>
<glyph name="cedillacomb" format="2">
  <unicode hex="0327"/>
  <anchor x="250" y="42" name="_bottom"/>
  <outline>
    <contour>
      <point x="385" y="-803" type="curve" smooth="yes"/>
      <point x="611" y="-803"/>
      <point x="794" y="-628"/>
      <point x="794" y="-412" type="curve" smooth="yes"/>
      <point x="794" y="-194"/>
      <point x="641" y="-20"/>
      <point x="431" y="-20" type="curve" smooth="yes"/>
      <point x="323" y="-20"/>
      <point x="230" y="-60"/>
      <point x="167" y="-126" type="curve" smooth="yes"/>
      <point x="90" y="-207"/>
      <point x="130" y="-407"/>
      <point x="250" y="-407" type="curve" smooth="yes"/>
      <point x="346" y="-407"/>
      <point x="348" y="-300"/>
      <point x="441" y="-300" type="curve" smooth="yes"/>
      <point x="504" y="-300"/>
      <point x="534" y="-336"/>
      <point x="534" y="-412" type="curve" smooth="yes"/>
      <point x="534" y="-486"/>
      <point x="474" y="-523"/>
      <point x="385" y="-523" type="curve" smooth="yes"/>
      <point x="344" y="-523"/>
      <point x="317" y="-516"/>
      <point x="296" y="-499" type="curve" smooth="yes"/>
      <point x="272" y="-479"/>
      <point x="241" y="-467"/>
      <point x="208" y="-467" type="curve" smooth="yes"/>
      <point x="131" y="-467"/>
      <point x="69" y="-529"/>
      <point x="69" y="-606" type="curve" smooth="yes"/>
      <point x="69" y="-639"/>
      <point x="77" y="-672"/>
      <point x="99" y="-693" type="curve" smooth="yes"/>
      <point x="171" y="-764"/>
      <point x="275" y="-803"/>
    </contour>
    <contour>
      <point x="250" y="-407" type="curve" smooth="yes"/>
      <point x="346" y="-407"/>
      <point x="390" y="-196"/>
      <point x="390" y="-119" type="curve" smooth="yes"/>
      <point x="390" y="175" type="line"/>
      <point x="110" y="175" type="line"/>
      <point x="110" y="-267" type="line" smooth="yes"/>
      <point x="110" y="-344"/>
      <point x="173" y="-407"/>
    </contour>
  </outline>
</glyph>
<glyph name="ogonekcomb" format="2">
  <unicode hex="0328"/>
  <anchor x="378" y="-6" name="_ogonek"/>
  <outline>
    <contour>
      <point x="451" y="-775" type="curve" smooth="yes"/>
      <point x="508" y="-775"/>
      <point x="572" y="-762"/>
      <point x="634" y="-731" type="curve" smooth="yes"/>
      <point x="680" y="-708"/>
      <point x="711" y="-661"/>
      <point x="711" y="-606" type="curve" smooth="yes"/>
      <point x="711" y="-529"/>
      <point x="648" y="-466"/>
      <point x="571" y="-466" type="curve" smooth="yes"/>
      <point x="548" y="-466"/>
      <point x="527" y="-471"/>
      <point x="508" y="-481" type="curve" smooth="yes"/>
      <point x="485" y="-492"/>
      <point x="476" y="-495"/>
      <point x="451" y="-495" type="curve" smooth="yes"/>
      <point x="373" y="-495"/>
      <point x="350" y="-474"/>
      <point x="350" y="-412" type="curve" smooth="yes"/>
      <point x="350" y="-331"/>
      <point x="386" y="-276"/>
      <point x="524" y="-80" type="curve" smooth="yes"/>
      <point x="540" y="-58"/>
      <point x="549" y="-30"/>
      <point x="549" y="0" type="curve" smooth="yes"/>
      <point x="549" y="77"/>
      <point x="486" y="140"/>
      <point x="409" y="140" type="curve" smooth="yes"/>
      <point x="362" y="140"/>
      <point x="320" y="116"/>
      <point x="294" y="80" type="curve" smooth="yes"/>
      <point x="153" y="-121"/>
      <point x="70" y="-242"/>
      <point x="70" y="-412" type="curve" smooth="yes"/>
      <point x="70" y="-591"/>
      <point x="220" y="-775"/>
    </contour>
  </outline>
</glyph>
<glyph name="Delta" format="2">
  <advance width="1200"/>
  <unicode hex="0394"/>
  <outline>
    <contour>
      <point x="535" y="1381" type="curve" smooth="yes"/>
      <point x="56" y="150" type="line" smooth="yes"/>
      <point x="21" y="60"/>
      <point x="61" y="0"/>
      <point x="158" y="0" type="curve" smooth="yes"/>
      <point x="1078" y="0" type="line" smooth="yes"/>
      <point x="1175" y="0"/>
      <point x="1216" y="60"/>
      <point x="1181" y="150" type="curve" smooth="yes"/>
      <point x="706" y="1380" type="line" smooth="yes"/>
      <point x="663" y="1491"/>
      <point x="578" y="1492"/>
    </contour>
    <contour>
      <point x="620" y="883" type="line"/>
      <point x="860" y="260" type="line"/>
      <point x="377" y="260" type="line"/>
    </contour>
  </outline>
</glyph>
<glyph name="Omega" format="2">
  <advance width="1517"/>
  <unicode hex="03A9"/>
  <outline>
    <contour>
      <point x="606" y="260" type="curve" smooth="yes"/>
      <point x="170" y="260" type="line" smooth="yes"/>
      <point x="98" y="260"/>
      <point x="40" y="202"/>
      <point x="40" y="130" type="curve" smooth="yes"/>
      <point x="40" y="58"/>
      <point x="98" y="0"/>
      <point x="170" y="0" type="curve" smooth="yes"/>
      <point x="606" y="0" type="line" smooth="yes"/>
      <point x="678" y="0"/>
      <point x="736" y="58"/>
      <point x="736" y="130" type="curve" smooth="yes"/>
      <point x="736" y="202"/>
      <point x="678" y="260"/>
    </contour>
    <contour>
      <point x="955" y="8" type="curve" smooth="yes"/>
      <point x="1252" y="115"/>
      <point x="1453" y="410"/>
      <point x="1453" y="779" type="curve" smooth="yes"/>
      <point x="1453" y="1180"/>
      <point x="1146" y="1536"/>
      <point x="759" y="1536" type="curve" smooth="yes"/>
      <point x="371" y="1536"/>
      <point x="65" y="1180"/>
      <point x="65" y="779" type="curve" smooth="yes"/>
      <point x="65" y="410"/>
      <point x="265" y="115"/>
      <point x="562" y="8" type="curve" smooth="yes"/>
      <point x="576" y="3"/>
      <point x="591" y="0"/>
      <point x="606" y="0" type="curve" smooth="yes"/>
      <point x="678" y="0"/>
      <point x="736" y="58"/>
      <point x="736" y="130" type="curve" smooth="yes"/>
      <point x="736" y="186"/>
      <point x="700" y="234"/>
      <point x="650" y="252" type="curve" smooth="yes"/>
      <point x="446" y="326"/>
      <point x="325" y="504"/>
      <point x="325" y="779" type="curve" smooth="yes"/>
      <point x="325" y="1064"/>
      <point x="507" y="1276"/>
      <point x="759" y="1276" type="curve" smooth="yes"/>
      <point x="1010" y="1276"/>
      <point x="1193" y="1064"/>
      <point x="1193" y="779" type="curve" smooth="yes"/>
      <point x="1193" y="504"/>
      <point x="1071" y="326"/>
      <point x="867" y="252" type="curve" smooth="yes"/>
      <point x="817" y="234"/>
      <point x="781" y="186"/>
      <point x="781" y="130" type="curve" smooth="yes"/>
      <point x="781" y="58"/>
      <point x="839" y="0"/>
      <point x="911" y="0" type="curve" smooth="yes"/>
      <point x="926" y="0"/>
      <point x="941" y="3"/>
    </contour>
    <contour>
      <point x="1347" y="260" type="curve" smooth="yes"/>
      <point x="911" y="260" type="line" smooth="yes"/>
      <point x="839" y="260"/>
      <point x="781" y="202"/>
      <point x="781" y="130" type="curve" smooth="yes"/>
      <point x="781" y="58"/>
      <point x="839" y="0"/>
      <point x="911" y="0" type="curve" smooth="yes"/>
      <point x="1347" y="0" type="line" smooth="yes"/>
      <point x="1419" y="0"/>
      <point x="1477" y="58"/>
      <point x="1477" y="130" type="curve" smooth="yes"/>
      <point x="1477" y="202"/>
      <point x="1419" y="260"/>
    </contour>
  </outline>
</glyph>
<glyph name="mu" format="2">
  <advance width="1669"/>
  <unicode hex="03BC"/>
  <outline>
    <contour>
      <point x="835" y="-30" type="curve" smooth="yes"/>
      <point x="1194" y="-30"/>
      <point x="1489" y="241"/>
      <point x="1489" y="604" type="curve" smooth="yes"/>
      <point x="1489" y="1398" type="line" smooth="yes"/>
      <point x="1489" y="1475"/>
      <point x="1426" y="1538"/>
      <point x="1349" y="1538" type="curve" smooth="yes"/>
      <point x="1272" y="1538"/>
      <point x="1209" y="1475"/>
      <point x="1209" y="1398" type="curve" smooth="yes"/>
      <point x="1209" y="604" type="line" smooth="yes"/>
      <point x="1209" y="382"/>
      <point x="1065" y="250"/>
      <point x="835" y="250" type="curve" smooth="yes"/>
      <point x="604" y="250"/>
      <point x="460" y="382"/>
      <point x="460" y="604" type="curve" smooth="yes"/>
      <point x="460" y="1398" type="line" smooth="yes"/>
      <point x="460" y="1475"/>
      <point x="397" y="1538"/>
      <point x="320" y="1538" type="curve" smooth="yes"/>
      <point x="243" y="1538"/>
      <point x="180" y="1475"/>
      <point x="180" y="1398" type="curve" smooth="yes"/>
      <point x="180" y="604" type="line" smooth="yes"/>
      <point x="180" y="241"/>
      <point x="475" y="-30"/>
    </contour>
    <contour>
      <point x="320" y="-532" type="curve" smooth="yes"/>
      <point x="397" y="-532"/>
      <point x="460" y="-469"/>
      <point x="460" y="-392" type="curve" smooth="yes"/>
      <point x="460" y="604" type="line" smooth="yes"/>
      <point x="460" y="681"/>
      <point x="397" y="744"/>
      <point x="320" y="744" type="curve" smooth="yes"/>
      <point x="243" y="744"/>
      <point x="180" y="681"/>
      <point x="180" y="604" type="curve" smooth="yes"/>
      <point x="180" y="-392" type="line" smooth="yes"/>
      <point x="180" y="-469"/>
      <point x="243" y="-532"/>
    </contour>
  </outline>
</glyph>
<glyph name="pi" format="2">
  <advance width="1396"/>
  <unicode hex="03C0"/>
  <outline>
    <contour>
      <point x="854" y="961" type="curve" smooth="yes"/>
      <point x="854" y="259" type="line" smooth="yes"/>
      <point x="854" y="11"/>
      <point x="1103" y="-39"/>
      <point x="1271" y="-7" type="curve" smooth="yes"/>
      <point x="1331" y="5"/>
      <point x="1376" y="58"/>
      <point x="1376" y="121" type="curve" smooth="yes"/>
      <point x="1376" y="193"/>
      <point x="1318" y="251"/>
      <point x="1246" y="251" type="curve" smooth="yes"/>
      <point x="1238" y="251"/>
      <point x="1229" y="250"/>
      <point x="1221" y="249" type="curve" smooth="yes"/>
      <point x="1159" y="236"/>
      <point x="1114" y="235"/>
      <point x="1114" y="259" type="curve" smooth="yes"/>
      <point x="1114" y="961" type="line" smooth="yes"/>
      <point x="1114" y="1033"/>
      <point x="1056" y="1091"/>
      <point x="984" y="1091" type="curve" smooth="yes"/>
      <point x="912" y="1091"/>
      <point x="854" y="1033"/>
    </contour>
    <contour>
      <point x="255" y="962" type="curve" smooth="yes"/>
      <point x="255" y="130" type="line" smooth="yes"/>
      <point x="255" y="58"/>
      <point x="313" y="0"/>
      <point x="385" y="0" type="curve" smooth="yes"/>
      <point x="457" y="0"/>
      <point x="515" y="58"/>
      <point x="515" y="130" type="curve" smooth="yes"/>
      <point x="515" y="962" type="line" smooth="yes"/>
      <point x="515" y="1034"/>
      <point x="457" y="1092"/>
      <point x="385" y="1092" type="curve" smooth="yes"/>
      <point x="313" y="1092"/>
      <point x="255" y="1034"/>
    </contour>
    <contour>
      <point x="1240" y="1092" type="curve" smooth="yes"/>
      <point x="150" y="1092" type="line" smooth="yes"/>
      <point x="78" y="1092"/>
      <point x="20" y="1034"/>
      <point x="20" y="962" type="curve" smooth="yes"/>
      <point x="20" y="890"/>
      <point x="78" y="832"/>
      <point x="150" y="832" type="curve" smooth="yes"/>
      <point x="1240" y="832" type="line" smooth="yes"/>
      <point x="1312" y="832"/>
      <point x="1370" y="890"/>
      <point x="1370" y="962" type="curve" smooth="yes"/>
      <point x="1370" y="1034"/>
      <point x="1312" y="1092"/>
    </contour>
  </outline>
</glyph>
<glyph name="endash" format="2">
  <advance width="995"/>
  <unicode hex="2013"/>
  <outline>
    <contour>
      <point x="160" y="457" type="curve" smooth="yes"/>
      <point x="835" y="457" type="line" smooth="yes"/>
      <point x="912" y="457"/>
      <point x="975" y="520"/>
      <point x="975" y="597" type="curve" smooth="yes"/>
      <point x="975" y="674"/>
      <point x="912" y="737"/>
      <point x="835" y="737" type="curve" smooth="yes"/>
      <point x="160" y="737" type="line" smooth="yes"/>
      <point x="83" y="737"/>
      <point x="20" y="674"/>
      <point x="20" y="597" type="curve" smooth="yes"/>
      <point x="20" y="520"/>
      <point x="83" y="457"/>
    </contour>
  </outline>
</glyph>
<glyph name="emdash" format="2">
  <advance width="2004"/>
  <unicode hex="2014"/>
  <outline>
    <contour>
      <point x="160" y="457" type="curve" smooth="yes"/>
      <point x="1844" y="457" type="line" smooth="yes"/>
      <point x="1921" y="457"/>
      <point x="1984" y="520"/>
      <point x="1984" y="597" type="curve" smooth="yes"/>
      <point x="1984" y="674"/>
      <point x="1921" y="737"/>
      <point x="1844" y="737" type="curve" smooth="yes"/>
      <point x="160" y="737" type="line" smooth="yes"/>
      <point x="83" y="737"/>
      <point x="20" y="674"/>
      <point x="20" y="597" type="curve" smooth="yes"/>
      <point x="20" y="520"/>
      <point x="83" y="457"/>
    </contour>
  </outline>
</glyph>
<glyph name="quoteright" format="2">
  <advance width="646"/>
  <unicode hex="2019"/>
  <outline>
    <contour>
      <point x="426" y="977" type="curve" smooth="yes"/>
      <point x="503" y="977"/>
      <point x="566" y="1040"/>
      <point x="566" y="1117" type="curve" smooth="yes"/>
      <point x="566" y="1545" type="line" smooth="yes"/>
      <point x="566" y="1616"/>
      <point x="515" y="1667"/>
      <point x="444" y="1667" type="curve" smooth="yes"/>
      <point x="195" y="1667" type="line" smooth="yes"/>
      <point x="45" y="1667"/>
      <point x="-2" y="1492"/>
      <point x="118" y="1372" type="curve" smooth="yes"/>
      <point x="327" y="1163" type="line" smooth="yes"/>
      <point x="352" y="1138"/>
      <point x="387" y="1122"/>
      <point x="426" y="1122" type="curve" smooth="yes"/>
      <point x="503" y="1122"/>
      <point x="566" y="1185"/>
      <point x="566" y="1262" type="curve" smooth="yes"/>
      <point x="566" y="1301"/>
      <point x="550" y="1336"/>
      <point x="525" y="1361" type="curve" smooth="yes"/>
      <point x="499" y="1387" type="line"/>
      <point x="286" y="1387" type="line"/>
      <point x="286" y="1117" type="line" smooth="yes"/>
      <point x="286" y="1040"/>
      <point x="349" y="977"/>
    </contour>
  </outline>
</glyph>
<glyph name="daggerdbl" format="2">
  <advance width="1200"/>
  <unicode hex="2021"/>
  <outline>
    <contour>
      <point x="502" y="1453" type="curve" smooth="yes"/>
      <point x="502" y="125" type="line" smooth="yes"/>
      <point x="502" y="53"/>
      <point x="560" y="-5"/>
      <point x="632" y="-5" type="curve" smooth="yes"/>
      <point x="704" y="-5"/>
      <point x="762" y="53"/>
      <point x="762" y="125" type="curve" smooth="yes"/>
      <point x="762" y="1453" type="line" smooth="yes"/>
      <point x="762" y="1525"/>
      <point x="704" y="1583"/>
      <point x="632" y="1583" type="curve" smooth="yes"/>
      <point x="560" y="1583"/>
      <point x="502" y="1525"/>
    </contour>
    <contour>
      <point x="996" y="1168" type="curve" smooth="yes"/>
      <point x="267" y="1168" type="line" smooth="yes"/>
      <point x="195" y="1168"/>
      <point x="137" y="1110"/>
      <point x="137" y="1038" type="curve" smooth="yes"/>
      <point x="137" y="966"/>
      <point x="195" y="908"/>
      <point x="267" y="908" type="curve" smooth="yes"/>
      <point x="996" y="908" type="line" smooth="yes"/>
      <point x="1068" y="908"/>
      <point x="1126" y="966"/>
      <point x="1126" y="1038" type="curve" smooth="yes"/>
      <point x="1126" y="1110"/>
      <point x="1068" y="1168"/>
    </contour>
    <contour>
      <point x="996" y="687" type="curve" smooth="yes"/>
      <point x="267" y="687" type="line" smooth="yes"/>
      <point x="195" y="687"/>
      <point x="137" y="629"/>
      <point x="137" y="557" type="curve" smooth="yes"/>
      <point x="137" y="485"/>
      <point x="195" y="427"/>
      <point x="267" y="427" type="curve" smooth="yes"/>
      <point x="996" y="427" type="line" smooth="yes"/>
      <point x="1068" y="427"/>
      <point x="1126" y="485"/>
      <point x="1126" y="557" type="curve" smooth="yes"/>
      <point x="1126" y="629"/>
      <point x="1068" y="687"/>
    </contour>
  </outline>
</glyph>
<glyph name="bullet" format="2">
  <advance width="1006"/>
  <unicode hex="2022"/>
  <outline>
    <contour>
      <point x="503" y="299" type="curve" smooth="yes"/>
      <point x="671" y="299"/>
      <point x="806" y="435"/>
      <point x="806" y="602" type="curve" smooth="yes"/>
      <point x="806" y="770"/>
      <point x="671" y="906"/>
      <point x="503" y="906" type="curve" smooth="yes"/>
      <point x="335" y="906"/>
      <point x="200" y="770"/>
      <point x="200" y="602" type="curve" smooth="yes"/>
      <point x="200" y="435"/>
      <point x="335" y="299"/>
    </contour>
  </outline>
</glyph>
<glyph name="guilsinglright" format="2">
  <advance width="858"/>
  <unicode hex="203A"/>
  <outline>
    <contour>
      <point x="250" y="168" type="curve" smooth="yes"/>
      <point x="289" y="168"/>
      <point x="324" y="184"/>
      <point x="349" y="209" type="curve" smooth="yes"/>
      <point x="681" y="541" type="line" smooth="yes"/>
      <point x="731" y="591"/>
      <point x="731" y="665"/>
      <point x="681" y="715" type="curve" smooth="yes"/>
      <point x="349" y="1047" type="line" smooth="yes"/>
      <point x="324" y="1072"/>
      <point x="289" y="1088"/>
      <point x="250" y="1088" type="curve" smooth="yes"/>
      <point x="173" y="1088"/>
      <point x="110" y="1025"/>
      <point x="110" y="948" type="curve" smooth="yes"/>
      <point x="110" y="909"/>
      <point x="126" y="874"/>
      <point x="151" y="849" type="curve" smooth="yes"/>
      <point x="372" y="628" type="line"/>
      <point x="151" y="407" type="line" smooth="yes"/>
      <point x="126" y="382"/>
      <point x="110" y="347"/>
      <point x="110" y="308" type="curve" smooth="yes"/>
      <point x="110" y="231"/>
      <point x="173" y="168"/>
    </contour>
  </outline>
</glyph>
<glyph name="fraction" format="2">
  <advance width="928"/>
  <unicode hex="2044"/>
  <outline>
    <contour>
      <point x="649" y="1418" type="curve" smooth="yes"/>
      <point x="74" y="52" type="line" smooth="yes"/>
      <point x="69" y="39"/>
      <point x="66" y="25"/>
      <point x="66" y="10" type="curve" smooth="yes"/>
      <point x="66" y="-51"/>
      <point x="115" y="-100"/>
      <point x="176" y="-100" type="curve" smooth="yes"/>
      <point x="221" y="-100"/>
      <point x="260" y="-73"/>
      <point x="277" y="-33" type="curve" smooth="yes"/>
      <point x="852" y="1333" type="line" smooth="yes"/>
      <point x="858" y="1346"/>
      <point x="861" y="1360"/>
      <point x="861" y="1376" type="curve" smooth="yes"/>
      <point x="861" y="1436"/>
      <point x="811" y="1486"/>
      <point x="751" y="1486" type="curve" smooth="yes"/>
      <point x="705" y="1486"/>
      <point x="666" y="1458"/>
    </contour>
  </outline>
</glyph>
<glyph name="Euro" format="2">
  <advance width="1787"/>
  <unicode hex="20AC"/>
  <anchor x="1004" y="-30" name="bottom"/>
  <anchor x="1119" y="1538" name="top"/>
  <outline>
    <contour>
      <point x="180" y="759" type="curve" smooth="yes"/>
      <point x="1404" y="759" type="line" smooth="yes"/>
      <point x="1481" y="759"/>
      <point x="1544" y="822"/>
      <point x="1544" y="899" type="curve" smooth="yes"/>
      <point x="1544" y="976"/>
      <point x="1481" y="1039"/>
      <point x="1404" y="1039" type="curve" smooth="yes"/>
      <point x="180" y="1039" type="line" smooth="yes"/>
      <point x="103" y="1039"/>
      <point x="40" y="976"/>
      <point x="40" y="899" type="curve" smooth="yes"/>
      <point x="40" y="822"/>
      <point x="103" y="759"/>
    </contour>
    <contour>
      <point x="180" y="402" type="curve" smooth="yes"/>
      <point x="1234" y="402" type="line" smooth="yes"/>
      <point x="1311" y="402"/>
      <point x="1374" y="465"/>
      <point x="1374" y="542" type="curve" smooth="yes"/>
      <point x="1374" y="619"/>
      <point x="1311" y="682"/>
      <point x="1234" y="682" type="curve" smooth="yes"/>
      <point x="180" y="682" type="line" smooth="yes"/>
      <point x="103" y="682"/>
      <point x="40" y="619"/>
      <point x="40" y="542" type="curve" smooth="yes"/>
      <point x="40" y="465"/>
      <point x="103" y="402"/>
    </contour>
    <component base="C" xOffset="220"/>
  </outline>
</glyph>
<glyph name="literSign" format="2">
  <advance width="961"/>
  <unicode hex="2113"/>
  <outline>
    <contour>
      <point x="704" y="207" type="line" smooth="yes"/>
      <point x="665" y="177"/>
      <point x="635" y="158"/>
      <point x="595" y="158" type="curve" smooth="yes"/>
      <point x="542" y="158"/>
      <point x="531" y="187"/>
      <point x="531" y="251" type="curve" smooth="yes"/>
      <point x="531" y="1051" type="line" smooth="yes"/>
      <point x="531" y="1290"/>
      <point x="550" y="1367"/>
      <point x="608" y="1367" type="curve" smooth="yes"/>
      <point x="663" y="1367"/>
      <point x="691" y="1301"/>
      <point x="691" y="1201" type="curve" smooth="yes"/>
      <point x="691" y="1049"/>
      <point x="627" y="953"/>
      <point x="518" y="842" type="curve" smooth="yes"/>
      <point x="100" y="420" type="line"/>
      <point x="196" y="309" type="line"/>
      <point x="620" y="727" type="line" smooth="yes"/>
      <point x="795" y="898"/>
      <point x="861" y="1009"/>
      <point x="861" y="1201" type="curve" smooth="yes"/>
      <point x="861" y="1405"/>
      <point x="770" y="1538"/>
      <point x="608" y="1538" type="curve" smooth="yes"/>
      <point x="433" y="1538"/>
      <point x="339" y="1395"/>
      <point x="339" y="1051" type="curve" smooth="yes"/>
      <point x="339" y="251" type="line" smooth="yes"/>
      <point x="339" y="94"/>
      <point x="411" y="-13"/>
      <point x="554" y="-13" type="curve" smooth="yes"/>
      <point x="614" y="-13"/>
      <point x="676" y="6"/>
      <point x="768" y="77" type="curve" smooth="yes"/>
      <point x="840" y="132" type="line"/>
      <point x="748" y="241" type="line"/>
    </contour>
  </outline>
</glyph>
<glyph name="numero" format="2">
  <advance width="2845"/>
  <unicode hex="2116"/>
  <anchor x="808" y="0" name="bottom"/>
  <anchor x="808" y="1538" name="top"/>
  <outline>
    <contour>
      <point x="2134" y="635" type="curve" smooth="yes"/>
      <point x="2414" y="635"/>
      <point x="2639" y="860"/>
      <point x="2639" y="1139" type="curve" smooth="yes"/>
      <point x="2639" y="1419"/>
      <point x="2414" y="1646"/>
      <point x="2134" y="1646" type="curve" smooth="yes"/>
      <point x="1853" y="1646"/>
      <point x="1628" y="1419"/>
      <point x="1628" y="1139" type="curve" smooth="yes"/>
      <point x="1628" y="860"/>
      <point x="1853" y="635"/>
    </contour>
    <contour>
      <point x="2134" y="895" type="curve" smooth="yes"/>
      <point x="1971" y="895"/>
      <point x="1888" y="978"/>
      <point x="1888" y="1139" type="curve" smooth="yes"/>
      <point x="1888" y="1301"/>
      <point x="1972" y="1386"/>
      <point x="2134" y="1386" type="curve" smooth="yes"/>
      <point x="2295" y="1386"/>
      <point x="2379" y="1301"/>
      <point x="2379" y="1139" type="curve" smooth="yes"/>
      <point x="2379" y="978"/>
      <point x="2296" y="895"/>
    </contour>
    <contour>
      <point x="2575" y="572" type="curve" smooth="yes"/>
      <point x="1693" y="572" type="line" smooth="yes"/>
      <point x="1621" y="572"/>
      <point x="1563" y="514"/>
      <point x="1563" y="442" type="curve" smooth="yes"/>
      <point x="1563" y="370"/>
      <point x="1621" y="312"/>
      <point x="1693" y="312" type="curve" smooth="yes"/>
      <point x="2575" y="312" type="line" smooth="yes"/>
      <point x="2647" y="312"/>
      <point x="2705" y="370"/>
      <point x="2705" y="442" type="curve" smooth="yes"/>
      <point x="2705" y="514"/>
      <point x="2647" y="572"/>
    </contour>
    <component base="N"/>
  </outline>
</glyph>
<glyph name="trademark" format="2">
  <advance width="1956"/>
  <unicode hex="2122"/>
  <outline>
    <contour>
      <point x="1147" y="659" type="curve" smooth="yes"/>
      <point x="1070" y="659"/>
      <point x="1007" y="722"/>
      <point x="1007" y="799" type="curve" smooth="yes"/>
      <point x="1007" y="1513" type="line" smooth="yes"/>
      <point x="1007" y="1668"/>
      <point x="1162" y="1740"/>
      <point x="1280" y="1638" type="curve" smooth="yes"/>
      <point x="1877" y="1126" type="line" smooth="yes"/>
      <point x="1907" y="1101"/>
      <point x="1926" y="1063"/>
      <point x="1926" y="1020" type="curve" smooth="yes"/>
      <point x="1926" y="943"/>
      <point x="1863" y="880"/>
      <point x="1786" y="880" type="curve" smooth="yes"/>
      <point x="1751" y="880"/>
      <point x="1719" y="893"/>
      <point x="1695" y="914" type="curve" smooth="yes"/>
      <point x="1287" y="1264" type="line"/>
      <point x="1287" y="799" type="line" smooth="yes"/>
      <point x="1287" y="722"/>
      <point x="1224" y="659"/>
    </contour>
    <contour>
      <point x="487" y="659" type="curve" smooth="yes"/>
      <point x="564" y="659"/>
      <point x="627" y="722"/>
      <point x="627" y="799" type="curve" smooth="yes"/>
      <point x="627" y="1548" type="line" smooth="yes"/>
      <point x="627" y="1625"/>
      <point x="564" y="1688"/>
      <point x="487" y="1688" type="curve" smooth="yes"/>
      <point x="410" y="1688"/>
      <point x="347" y="1625"/>
      <point x="347" y="1548" type="curve" smooth="yes"/>
      <point x="347" y="799" type="line" smooth="yes"/>
      <point x="347" y="722"/>
      <point x="410" y="659"/>
    </contour>
    <contour>
      <point x="170" y="1189" type="curve" smooth="yes"/>
      <point x="202" y="1189"/>
      <point x="232" y="1199"/>
      <point x="255" y="1217" type="curve" smooth="yes"/>
      <point x="487" y="1394" type="line"/>
      <point x="721" y="1217" type="line" smooth="yes"/>
      <point x="744" y="1200"/>
      <point x="773" y="1189"/>
      <point x="805" y="1189" type="curve" smooth="yes"/>
      <point x="882" y="1189"/>
      <point x="945" y="1252"/>
      <point x="945" y="1329" type="curve" smooth="yes"/>
      <point x="945" y="1375"/>
      <point x="923" y="1415"/>
      <point x="889" y="1441" type="curve" smooth="yes"/>
      <point x="571" y="1681" type="line" smooth="yes"/>
      <point x="514" y="1724"/>
      <point x="460" y="1724"/>
      <point x="403" y="1681" type="curve" smooth="yes"/>
      <point x="85" y="1441" type="line" smooth="yes"/>
      <point x="51" y="1416"/>
      <point x="30" y="1375"/>
      <point x="30" y="1329" type="curve" smooth="yes"/>
      <point x="30" y="1252"/>
      <point x="93" y="1189"/>
    </contour>
    <contour>
      <point x="1786" y="659" type="curve" smooth="yes"/>
      <point x="1709" y="659"/>
      <point x="1646" y="722"/>
      <point x="1646" y="799" type="curve" smooth="yes"/>
      <point x="1646" y="1264" type="line"/>
      <point x="1238" y="914" type="line" smooth="yes"/>
      <point x="1214" y="893"/>
      <point x="1182" y="880"/>
      <point x="1147" y="880" type="curve" smooth="yes"/>
      <point x="1070" y="880"/>
      <point x="1007" y="943"/>
      <point x="1007" y="1020" type="curve" smooth="yes"/>
      <point x="1007" y="1063"/>
      <point x="1026" y="1101"/>
      <point x="1056" y="1126" type="curve" smooth="yes"/>
      <point x="1653" y="1638" type="line" smooth="yes"/>
      <point x="1771" y="1740"/>
      <point x="1926" y="1668"/>
      <point x="1926" y="1513" type="curve" smooth="yes"/>
      <point x="1926" y="799" type="line" smooth="yes"/>
      <point x="1926" y="722"/>
      <point x="1863" y="659"/>
    </contour>
  </outline>
</glyph>
<glyph name="estimated" format="2">
  <advance width="1576"/>
  <unicode hex="212E"/>
  <outline>
    <contour>
      <point x="321" y="673" type="line"/>
      <point x="1431" y="673" type="line" smooth="yes"/>
      <point x="1484" y="673"/>
      <point x="1515" y="703"/>
      <point x="1511" y="757" type="curve" smooth="yes"/>
      <point x="1475" y="1233"/>
      <point x="1130" y="1475"/>
      <point x="774" y="1475" type="curve" smooth="yes"/>
      <point x="394" y="1475"/>
      <point x="30" y="1204"/>
      <point x="30" y="735" type="curve" smooth="yes"/>
      <point x="30" y="262"/>
      <point x="394" y="-9"/>
      <point x="774" y="-9" type="curve" smooth="yes"/>
      <point x="1022" y="-9"/>
      <point x="1247" y="95"/>
      <point x="1427" y="303" type="curve" smooth="yes"/>
      <point x="1464" y="346"/>
      <point x="1459" y="386"/>
      <point x="1418" y="408" type="curve" smooth="yes"/>
      <point x="1375" y="431"/>
      <point x="1338" y="422"/>
      <point x="1306" y="384" type="curve" smooth="yes"/>
      <point x="1142" y="192"/>
      <point x="981" y="115"/>
      <point x="774" y="115" type="curve" smooth="yes"/>
      <point x="594" y="115"/>
      <point x="431" y="179"/>
      <point x="321" y="311" type="curve"/>
    </contour>
    <contour>
      <point x="321" y="797" type="line"/>
      <point x="321" y="1155" type="line"/>
      <point x="431" y="1287"/>
      <point x="594" y="1351"/>
      <point x="774" y="1351" type="curve" smooth="yes"/>
      <point x="950" y="1351"/>
      <point x="1113" y="1287"/>
      <point x="1220" y="1159" type="curve"/>
      <point x="1220" y="797" type="line"/>
    </contour>
  </outline>
</glyph>
<glyph name="partialdiff" format="2">
  <advance width="1207"/>
  <unicode hex="2202"/>
  <outline>
    <contour>
      <point x="1107" y="520" type="curve" smooth="yes"/>
      <point x="1107" y="1137"/>
      <point x="811" y="1506"/>
      <point x="335" y="1638" type="curve" smooth="yes"/>
      <point x="324" y="1641"/>
      <point x="313" y="1642"/>
      <point x="301" y="1642" type="curve" smooth="yes"/>
      <point x="229" y="1642"/>
      <point x="171" y="1584"/>
      <point x="171" y="1512" type="curve" smooth="yes"/>
      <point x="171" y="1452"/>
      <point x="211" y="1402"/>
      <point x="266" y="1387" type="curve" smooth="yes"/>
      <point x="628" y="1287"/>
      <point x="847" y="1031"/>
      <point x="847" y="520" type="curve" smooth="yes"/>
      <point x="847" y="448"/>
      <point x="905" y="390"/>
      <point x="977" y="390" type="curve" smooth="yes"/>
      <point x="1049" y="390"/>
      <point x="1107" y="448"/>
    </contour>
    <contour>
      <point x="604" y="-28" type="curve" smooth="yes"/>
      <point x="883" y="-28"/>
      <point x="1107" y="219"/>
      <point x="1107" y="520" type="curve" smooth="yes"/>
      <point x="1107" y="821"/>
      <point x="883" y="1069"/>
      <point x="604" y="1069" type="curve" smooth="yes"/>
      <point x="324" y="1069"/>
      <point x="100" y="821"/>
      <point x="100" y="520" type="curve" smooth="yes"/>
      <point x="100" y="219"/>
      <point x="324" y="-28"/>
    </contour>
    <contour>
      <point x="604" y="232" type="curve" smooth="yes"/>
      <point x="446" y="232"/>
      <point x="360" y="326"/>
      <point x="360" y="520" type="curve" smooth="yes"/>
      <point x="360" y="714"/>
      <point x="446" y="809"/>
      <point x="604" y="809" type="curve" smooth="yes"/>
      <point x="761" y="809"/>
      <point x="847" y="714"/>
      <point x="847" y="520" type="curve" smooth="yes"/>
      <point x="847" y="326"/>
      <point x="761" y="232"/>
    </contour>
  </outline>
</glyph>
<glyph name="product" format="2">
  <advance width="1200"/>
  <unicode hex="220F"/>
  <outline>
    <contour>
      <point x="83" y="1244" type="curve" smooth="yes"/>
      <point x="1107" y="1244" type="line" smooth="yes"/>
      <point x="1179" y="1244"/>
      <point x="1237" y="1302"/>
      <point x="1237" y="1374" type="curve" smooth="yes"/>
      <point x="1237" y="1446"/>
      <point x="1179" y="1504"/>
      <point x="1107" y="1504" type="curve" smooth="yes"/>
      <point x="83" y="1504" type="line" smooth="yes"/>
      <point x="11" y="1504"/>
      <point x="-47" y="1446"/>
      <point x="-47" y="1374" type="curve" smooth="yes"/>
      <point x="-47" y="1302"/>
      <point x="11" y="1244"/>
    </contour>
    <contour>
      <point x="160" y="1374" type="curve" smooth="yes"/>
      <point x="160" y="-220" type="line" smooth="yes"/>
      <point x="160" y="-292"/>
      <point x="218" y="-350"/>
      <point x="290" y="-350" type="curve" smooth="yes"/>
      <point x="362" y="-350"/>
      <point x="420" y="-292"/>
      <point x="420" y="-220" type="curve" smooth="yes"/>
      <point x="420" y="1374" type="line" smooth="yes"/>
      <point x="420" y="1446"/>
      <point x="362" y="1504"/>
      <point x="290" y="1504" type="curve" smooth="yes"/>
      <point x="218" y="1504"/>
      <point x="160" y="1446"/>
    </contour>
    <contour>
      <point x="770" y="1374" type="curve" smooth="yes"/>
      <point x="770" y="-220" type="line" smooth="yes"/>
      <point x="770" y="-292"/>
      <point x="828" y="-350"/>
      <point x="900" y="-350" type="curve" smooth="yes"/>
      <point x="972" y="-350"/>
      <point x="1030" y="-292"/>
      <point x="1030" y="-220" type="curve" smooth="yes"/>
      <point x="1030" y="1374" type="line" smooth="yes"/>
      <point x="1030" y="1446"/>
      <point x="972" y="1504"/>
      <point x="900" y="1504" type="curve" smooth="yes"/>
      <point x="828" y="1504"/>
      <point x="770" y="1446"/>
    </contour>
  </outline>
</glyph>
<glyph name="summation" format="2">
  <advance width="1199"/>
  <unicode hex="2211"/>
  <outline>
    <contour>
      <point x="1038" y="1503" type="curve" smooth="yes"/>
      <point x="135" y="1503" type="line" smooth="yes"/>
      <point x="30" y="1503"/>
      <point x="-8" y="1435"/>
      <point x="49" y="1346" type="curve" smooth="yes"/>
      <point x="550" y="564" type="line"/>
      <point x="49" y="-171" type="line" smooth="yes"/>
      <point x="-11" y="-260"/>
      <point x="25" y="-329"/>
      <point x="132" y="-329" type="curve" smooth="yes"/>
      <point x="1049" y="-329" type="line" smooth="yes"/>
      <point x="1121" y="-329"/>
      <point x="1179" y="-271"/>
      <point x="1179" y="-199" type="curve" smooth="yes"/>
      <point x="1179" y="-127"/>
      <point x="1121" y="-69"/>
      <point x="1049" y="-69" type="curve" smooth="yes"/>
      <point x="433" y="-69" type="line"/>
      <point x="801" y="471" type="line" smooth="yes"/>
      <point x="843" y="533"/>
      <point x="844" y="589"/>
      <point x="804" y="651" type="curve" smooth="yes"/>
      <point x="425" y="1243" type="line"/>
      <point x="1038" y="1243" type="line" smooth="yes"/>
      <point x="1110" y="1243"/>
      <point x="1168" y="1301"/>
      <point x="1168" y="1373" type="curve" smooth="yes"/>
      <point x="1168" y="1445"/>
      <point x="1110" y="1503"/>
    </contour>
  </outline>
</glyph>
<glyph name="minus" format="2">
  <advance width="1450"/>
  <unicode hex="2212"/>
  <outline>
    <contour>
      <point x="202" y="438" type="curve" smooth="yes"/>
      <point x="1248" y="438" type="line" smooth="yes"/>
      <point x="1325" y="438"/>
      <point x="1388" y="501"/>
      <point x="1388" y="578" type="curve" smooth="yes"/>
      <point x="1388" y="655"/>
      <point x="1325" y="718"/>
      <point x="1248" y="718" type="curve" smooth="yes"/>
      <point x="202" y="718" type="line" smooth="yes"/>
      <point x="125" y="718"/>
      <point x="62" y="655"/>
      <point x="62" y="578" type="curve" smooth="yes"/>
      <point x="62" y="501"/>
      <point x="125" y="438"/>
    </contour>
  </outline>
</glyph>
<glyph name="divisionslash" format="2">
  <advance width="1200"/>
  <unicode hex="2215"/>
  <outline>
    <contour>
      <point x="332" y="-54" type="curve" smooth="yes"/>
      <point x="1081" y="1331" type="line" smooth="yes"/>
      <point x="1091" y="1350"/>
      <point x="1097" y="1371"/>
      <point x="1097" y="1393" type="curve" smooth="yes"/>
      <point x="1097" y="1465"/>
      <point x="1039" y="1523"/>
      <point x="967" y="1523" type="curve" smooth="yes"/>
      <point x="918" y="1523"/>
      <point x="875" y="1495"/>
      <point x="853" y="1455" type="curve" smooth="yes"/>
      <point x="104" y="70" type="line" smooth="yes"/>
      <point x="94" y="51"/>
      <point x="88" y="30"/>
      <point x="88" y="8" type="curve" smooth="yes"/>
      <point x="88" y="-64"/>
      <point x="146" y="-122"/>
      <point x="218" y="-122" type="curve" smooth="yes"/>
      <point x="267" y="-122"/>
      <point x="310" y="-94"/>
    </contour>
  </outline>
</glyph>
<glyph name="bulletoperator" format="2">
  <advance width="1200"/>
  <unicode hex="2219"/>
  <outline>
    <contour>
      <point x="600" y="309" type="curve" smooth="yes"/>
      <point x="739" y="309"/>
      <point x="852" y="422"/>
      <point x="852" y="561" type="curve" smooth="yes"/>
      <point x="852" y="700"/>
      <point x="739" y="813"/>
      <point x="600" y="813" type="curve" smooth="yes"/>
      <point x="461" y="813"/>
      <point x="348" y="700"/>
      <point x="348" y="561" type="curve" smooth="yes"/>
      <point x="348" y="422"/>
      <point x="461" y="309"/>
    </contour>
  </outline>
</glyph>
